{"glyphs":{"0":{"ha":625,"x_min":63,"x_max":563,"o":"m 310 -11 q 122 89 182 -11 q 63 411 63 189 q 123 724 63 614 q 324 833 183 833 q 511 731 460 833 q 563 411 563 628 q 503 97 563 206 q 310 -11 444 -11 m 307 22 q 480 125 431 22 q 529 417 529 228 q 485 706 529 613 q 325 800 442 800 q 149 696 203 800 q 96 399 96 592 q 149 111 96 200 q 307 22 201 22 z "},"1":{"ha":625,"x_min":63,"x_max":563,"o":"m 63 0 q 63 17 63 0 q 63 33 63 33 q 99 33 63 33 q 184 33 136 33 q 269 33 232 33 q 306 33 306 33 l 328 796 q 276 785 328 796 q 173 765 225 775 q 121 754 121 754 q 119 767 121 754 q 117 788 117 781 q 151 794 117 788 q 232 811 186 801 q 313 828 278 821 q 347 835 347 835 q 357 833 353 835 q 361 831 361 831 l 343 33 l 490 33 q 542 35 522 33 q 563 36 563 36 q 563 18 563 36 q 563 0 563 0 l 63 0 z "},"2":{"ha":625,"x_min":63,"x_max":561,"o":"m 67 0 q 65 6 67 0 q 63 21 63 11 q 71 42 63 35 q 93 72 79 50 q 253 267 158 175 q 419 454 347 358 q 492 664 492 550 q 465 762 492 724 q 340 800 438 800 q 189 782 247 800 q 99 740 131 764 q 96 754 97 749 q 94 768 94 760 q 156 806 94 779 q 332 833 217 833 q 490 788 456 833 q 525 658 525 742 q 451 437 525 538 q 277 239 376 336 q 106 33 178 142 l 446 33 q 474 33 446 33 q 532 33 503 33 q 561 33 561 33 q 561 17 561 33 q 561 0 561 0 l 67 0 z "},"3":{"ha":625,"x_min":75,"x_max":546,"o":"m 235 -139 q 114 -117 153 -139 q 75 -85 75 -96 q 76 -67 75 -74 q 81 -56 78 -61 q 148 -93 113 -81 q 240 -106 183 -106 q 438 -11 363 -106 q 513 219 513 83 q 439 361 513 333 q 276 396 365 389 l 274 425 q 422 545 364 482 q 481 679 481 608 q 453 756 481 711 q 329 800 426 800 q 182 783 236 800 q 88 738 128 767 q 84 751 85 743 q 83 764 83 760 q 144 808 83 782 q 321 833 206 833 q 479 783 444 833 q 514 675 514 733 q 456 534 514 597 q 332 424 397 471 q 479 373 413 417 q 546 214 546 329 q 464 -35 546 69 q 235 -139 382 -139 z "},"4":{"ha":625,"x_min":69,"x_max":569,"o":"m 397 0 l 397 253 l 74 253 q 72 256 74 253 q 69 264 69 258 q 96 371 69 301 q 167 524 122 440 q 272 688 213 607 q 399 831 332 769 q 419 838 407 838 q 431 835 426 838 q 435 832 435 832 l 431 286 q 526 286 483 286 q 568 286 568 286 q 569 283 568 286 q 569 269 569 281 q 567 258 569 264 q 558 253 565 253 l 431 253 l 431 19 q 428 3 431 6 q 397 0 425 0 m 104 286 l 397 286 l 404 792 q 292 657 353 736 q 179 483 231 578 q 104 286 128 388 z "},"5":{"ha":625,"x_min":63,"x_max":549,"o":"m 229 -139 q 105 -119 147 -139 q 63 -85 63 -99 q 68 -56 63 -71 q 235 -106 125 -106 q 456 1 397 -106 q 515 275 515 108 q 464 424 515 375 q 347 488 413 472 q 235 503 281 503 q 123 490 168 503 q 78 478 78 478 l 114 833 l 539 833 q 535 805 539 810 q 514 800 531 800 q 458 800 514 800 q 329 800 403 800 q 200 800 256 800 q 144 800 144 800 l 114 524 q 142 529 114 524 q 232 535 169 535 q 365 519 290 536 q 494 445 439 503 q 549 269 549 388 q 482 -27 549 85 q 229 -139 415 -139 z "},"6":{"ha":625,"x_min":65,"x_max":565,"o":"m 299 -12 q 150 40 200 -12 q 83 184 100 93 q 65 393 65 275 q 110 730 65 603 q 229 915 156 857 q 388 972 303 972 q 495 963 450 972 q 540 939 540 953 q 539 922 540 929 q 538 914 538 914 q 475 933 506 926 q 376 939 444 939 q 183 809 269 939 q 97 408 97 679 q 110 224 97 313 q 165 78 122 135 q 299 21 207 21 q 473 103 414 21 q 532 326 532 185 q 481 514 532 456 q 338 572 429 572 q 186 514 254 572 q 85 350 118 456 l 85 403 q 183 555 113 504 q 343 606 253 606 q 502 542 439 606 q 565 336 565 478 q 502 81 565 174 q 299 -12 439 -12 z "},"7":{"ha":625,"x_min":83,"x_max":583,"o":"m 156 -112 q 139 -112 156 -112 q 122 -106 122 -111 q 211 200 163 61 q 313 451 260 339 q 418 651 365 564 q 518 800 471 738 q 392 800 518 800 q 97 800 265 800 q 87 808 90 800 q 83 833 83 815 l 583 833 q 349 446 465 681 q 156 -112 232 211 z "},"8":{"ha":625,"x_min":68,"x_max":568,"o":"m 326 -12 q 133 59 197 -12 q 68 249 68 131 q 136 431 68 353 q 289 535 204 508 l 314 535 q 457 621 392 564 q 522 756 522 678 q 488 883 522 842 q 407 935 454 924 q 319 947 360 947 q 174 901 239 947 q 110 753 110 856 q 133 665 110 706 q 211 589 156 625 q 326 539 247 567 q 468 460 404 511 q 540 378 511 425 q 568 250 568 331 q 508 56 568 124 q 326 -12 447 -12 m 326 19 q 484 83 431 19 q 538 249 538 147 q 507 365 538 321 q 435 443 476 410 q 307 510 385 483 q 176 571 229 538 q 101 651 125 603 q 78 751 78 700 q 151 926 78 871 q 319 981 225 981 q 419 966 364 981 q 515 903 475 951 q 554 757 554 856 q 487 602 554 660 q 354 514 419 544 l 328 513 q 170 417 239 492 q 101 247 101 343 q 156 85 101 151 q 326 19 211 19 z "},"9":{"ha":625,"x_min":63,"x_max":563,"o":"m 210 -143 q 135 -138 168 -143 q 101 -124 101 -133 q 103 -106 101 -114 q 104 -99 104 -99 q 159 -108 135 -107 q 210 -110 183 -110 q 384 -50 313 -110 q 493 130 456 10 q 531 435 531 250 q 518 617 531 531 q 463 759 506 704 q 329 814 421 814 q 155 736 214 814 q 96 503 96 658 q 153 316 96 374 q 296 258 210 258 q 438 315 374 258 q 543 465 501 371 l 543 418 q 447 277 511 329 q 290 225 383 225 q 130 288 197 225 q 63 493 63 351 q 126 756 63 664 q 329 847 189 847 q 478 799 428 847 q 545 660 528 751 q 563 436 563 568 q 471 -2 563 139 q 210 -143 379 -143 z "},"A":{"ha":606,"x_min":14,"x_max":592,"o":"m 33 -1 q 26 -1 31 -1 q 14 0 21 -1 l 292 976 q 299 979 292 979 q 311 976 308 979 l 590 14 q 590 2 592 6 q 579 -1 588 -1 q 569 -1 575 -1 q 557 0 563 -1 l 372 653 q 324 827 346 747 q 301 929 303 907 q 278 828 299 907 q 231 653 257 749 l 53 8 q 45 0 50 1 q 33 -1 40 -1 m 128 294 l 128 328 l 493 328 l 493 294 l 128 294 z "},"Á":{"ha":606,"x_min":14,"x_max":592,"o":"m 33 -1 q 26 -1 31 -1 q 14 0 21 -1 l 292 976 q 299 979 292 979 q 311 976 308 979 l 590 14 q 590 2 592 6 q 579 -1 588 -1 q 569 -1 575 -1 q 557 0 563 -1 l 372 653 q 324 827 346 747 q 301 929 303 907 q 278 828 299 907 q 231 653 257 749 l 53 8 q 45 0 50 1 q 33 -1 40 -1 m 128 294 l 128 328 l 493 328 l 493 294 l 128 294 m 211 1082 q 204 1093 211 1082 q 197 1104 197 1104 q 288 1184 243 1147 q 361 1244 332 1221 q 390 1267 390 1267 q 403 1251 399 1267 q 408 1235 408 1235 q 381 1212 408 1235 q 309 1154 354 1189 q 211 1082 264 1119 z "},"Ă":{"ha":606,"x_min":14,"x_max":592,"o":"m 33 -1 q 26 -1 31 -1 q 14 0 21 -1 l 292 976 q 299 979 292 979 q 311 976 308 979 l 590 14 q 590 2 592 6 q 579 -1 588 -1 q 569 -1 575 -1 q 557 0 563 -1 l 372 653 q 324 827 346 747 q 301 929 303 907 q 278 828 299 907 q 231 653 257 749 l 53 8 q 45 0 50 1 q 33 -1 40 -1 m 128 294 l 128 328 l 493 328 l 493 294 l 128 294 m 303 1090 q 214 1123 249 1090 q 162 1192 179 1156 q 144 1242 144 1229 q 171 1260 144 1257 q 213 1173 183 1222 q 304 1124 243 1124 q 388 1165 363 1124 q 428 1246 413 1206 q 447 1257 433 1261 q 463 1240 460 1253 q 415 1144 450 1197 q 303 1090 379 1090 z "},"Ắ":{"ha":606,"x_min":14,"x_max":592,"o":"m 33 -1 q 26 -1 31 -1 q 14 0 21 -1 l 292 976 q 299 979 292 979 q 311 976 308 979 l 590 14 q 590 2 592 6 q 579 -1 588 -1 q 569 -1 575 -1 q 557 0 563 -1 l 372 653 q 324 827 346 747 q 301 929 303 907 q 278 828 299 907 q 231 653 257 749 l 53 8 q 45 0 50 1 q 33 -1 40 -1 m 128 294 l 128 328 l 493 328 l 493 294 l 128 294 z "},"Ặ":{"ha":606,"x_min":14,"x_max":592,"o":"m 33 -1 q 26 -1 31 -1 q 14 0 21 -1 l 292 976 q 299 979 292 979 q 311 976 308 979 l 590 14 q 590 2 592 6 q 579 -1 588 -1 q 569 -1 575 -1 q 557 0 563 -1 l 372 653 q 324 827 346 747 q 301 929 303 907 q 278 828 299 907 q 231 653 257 749 l 53 8 q 45 0 50 1 q 33 -1 40 -1 m 128 294 l 128 328 l 493 328 l 493 294 l 128 294 m 303 1090 q 214 1123 249 1090 q 162 1192 179 1156 q 144 1242 144 1229 q 171 1260 144 1257 q 213 1173 183 1222 q 304 1124 243 1124 q 388 1165 363 1124 q 428 1246 413 1206 q 447 1257 433 1261 q 463 1240 460 1253 q 415 1144 450 1197 q 303 1090 379 1090 z "},"Ằ":{"ha":606,"x_min":14,"x_max":592,"o":"m 33 -1 q 26 -1 31 -1 q 14 0 21 -1 l 292 976 q 299 979 292 979 q 311 976 308 979 l 590 14 q 590 2 592 6 q 579 -1 588 -1 q 569 -1 575 -1 q 557 0 563 -1 l 372 653 q 324 827 346 747 q 301 929 303 907 q 278 828 299 907 q 231 653 257 749 l 53 8 q 45 0 50 1 q 33 -1 40 -1 m 128 294 l 128 328 l 493 328 l 493 294 l 128 294 z "},"Ẳ":{"ha":606,"x_min":14,"x_max":592,"o":"m 33 -1 q 26 -1 31 -1 q 14 0 21 -1 l 292 976 q 299 979 292 979 q 311 976 308 979 l 590 14 q 590 2 592 6 q 579 -1 588 -1 q 569 -1 575 -1 q 557 0 563 -1 l 372 653 q 324 827 346 747 q 301 929 303 907 q 278 828 299 907 q 231 653 257 749 l 53 8 q 45 0 50 1 q 33 -1 40 -1 m 128 294 l 128 328 l 493 328 l 493 294 l 128 294 z "},"Ẵ":{"ha":606,"x_min":14,"x_max":592,"o":"m 33 -1 q 26 -1 31 -1 q 14 0 21 -1 l 292 976 q 299 979 292 979 q 311 976 308 979 l 590 14 q 590 2 592 6 q 579 -1 588 -1 q 569 -1 575 -1 q 557 0 563 -1 l 372 653 q 324 827 346 747 q 301 929 303 907 q 278 828 299 907 q 231 653 257 749 l 53 8 q 45 0 50 1 q 33 -1 40 -1 m 128 294 l 128 328 l 493 328 l 493 294 l 128 294 z "},"Â":{"ha":606,"x_min":14,"x_max":592,"o":"m 33 -1 q 26 -1 31 -1 q 14 0 21 -1 l 292 976 q 299 979 292 979 q 311 976 308 979 l 590 14 q 590 2 592 6 q 579 -1 588 -1 q 569 -1 575 -1 q 557 0 563 -1 l 372 653 q 324 827 346 747 q 301 929 303 907 q 278 828 299 907 q 231 653 257 749 l 53 8 q 45 0 50 1 q 33 -1 40 -1 m 128 294 l 128 328 l 493 328 l 493 294 l 128 294 m 431 1083 q 399 1117 431 1083 q 338 1183 368 1150 q 307 1215 307 1215 q 275 1183 307 1215 q 209 1117 243 1150 q 171 1085 175 1085 q 151 1094 157 1085 q 144 1103 144 1103 l 297 1246 q 308 1249 300 1249 q 328 1239 318 1249 q 361 1206 328 1239 q 428 1139 394 1172 q 461 1106 461 1106 q 452 1094 461 1106 q 431 1083 443 1083 z "},"Ấ":{"ha":606,"x_min":14,"x_max":665,"o":"m 33 -1 q 26 -1 31 -1 q 14 0 21 -1 l 292 976 q 299 979 292 979 q 311 976 308 979 l 590 14 q 590 2 592 6 q 579 -1 588 -1 q 569 -1 575 -1 q 557 0 563 -1 l 372 653 q 324 827 346 747 q 301 929 303 907 q 278 828 299 907 q 231 653 257 749 l 53 8 q 45 0 50 1 q 33 -1 40 -1 m 128 294 l 128 328 l 493 328 l 493 294 l 128 294 z "},"Ậ":{"ha":606,"x_min":14,"x_max":592,"o":"m 33 -1 q 26 -1 31 -1 q 14 0 21 -1 l 292 976 q 299 979 292 979 q 311 976 308 979 l 590 14 q 590 2 592 6 q 579 -1 588 -1 q 569 -1 575 -1 q 557 0 563 -1 l 372 653 q 324 827 346 747 q 301 929 303 907 q 278 828 299 907 q 231 653 257 749 l 53 8 q 45 0 50 1 q 33 -1 40 -1 m 128 294 l 128 328 l 493 328 l 493 294 l 128 294 m 431 1083 q 399 1117 431 1083 q 338 1183 368 1150 q 307 1215 307 1215 q 275 1183 307 1215 q 209 1117 243 1150 q 171 1085 175 1085 q 151 1094 157 1085 q 144 1103 144 1103 l 297 1246 q 308 1249 300 1249 q 328 1239 318 1249 q 361 1206 328 1239 q 428 1139 394 1172 q 461 1106 461 1106 q 452 1094 461 1106 q 431 1083 443 1083 z "},"Ầ":{"ha":606,"x_min":14,"x_max":592,"o":"m 33 -1 q 26 -1 31 -1 q 14 0 21 -1 l 292 976 q 299 979 292 979 q 311 976 308 979 l 590 14 q 590 2 592 6 q 579 -1 588 -1 q 569 -1 575 -1 q 557 0 563 -1 l 372 653 q 324 827 346 747 q 301 929 303 907 q 278 828 299 907 q 231 653 257 749 l 53 8 q 45 0 50 1 q 33 -1 40 -1 m 128 294 l 128 328 l 493 328 l 493 294 l 128 294 z "},"Ẩ":{"ha":606,"x_min":14,"x_max":592,"o":"m 33 -1 q 26 -1 31 -1 q 14 0 21 -1 l 292 976 q 299 979 292 979 q 311 976 308 979 l 590 14 q 590 2 592 6 q 579 -1 588 -1 q 569 -1 575 -1 q 557 0 563 -1 l 372 653 q 324 827 346 747 q 301 929 303 907 q 278 828 299 907 q 231 653 257 749 l 53 8 q 45 0 50 1 q 33 -1 40 -1 m 128 294 l 128 328 l 493 328 l 493 294 l 128 294 z "},"Ẫ":{"ha":606,"x_min":14,"x_max":592,"o":"m 33 -1 q 26 -1 31 -1 q 14 0 21 -1 l 292 976 q 299 979 292 979 q 311 976 308 979 l 590 14 q 590 2 592 6 q 579 -1 588 -1 q 569 -1 575 -1 q 557 0 563 -1 l 372 653 q 324 827 346 747 q 301 929 303 907 q 278 828 299 907 q 231 653 257 749 l 53 8 q 45 0 50 1 q 33 -1 40 -1 m 128 294 l 128 328 l 493 328 l 493 294 l 128 294 z "},"Ä":{"ha":606,"x_min":14,"x_max":592,"o":"m 33 -1 q 26 -1 31 -1 q 14 0 21 -1 l 292 976 q 299 979 292 979 q 311 976 308 979 l 590 14 q 590 2 592 6 q 579 -1 588 -1 q 569 -1 575 -1 q 557 0 563 -1 l 372 653 q 324 827 346 747 q 301 929 303 907 q 278 828 299 907 q 231 653 257 749 l 53 8 q 45 0 50 1 q 33 -1 40 -1 m 128 294 l 128 328 l 493 328 l 493 294 l 128 294 m 232 1131 q 213 1142 218 1132 q 208 1169 207 1151 q 235 1208 210 1208 q 255 1197 249 1208 q 260 1167 261 1186 q 232 1131 257 1131 m 371 1131 q 351 1142 357 1132 q 347 1169 346 1151 q 374 1208 349 1208 q 394 1197 388 1208 q 399 1167 400 1186 q 371 1131 396 1131 z "},"Ạ":{"ha":606,"x_min":14,"x_max":592,"o":"m 33 -1 q 26 -1 31 -1 q 14 0 21 -1 l 292 976 q 299 979 292 979 q 311 976 308 979 l 590 14 q 590 2 592 6 q 579 -1 588 -1 q 569 -1 575 -1 q 557 0 563 -1 l 372 653 q 324 827 346 747 q 301 929 303 907 q 278 828 299 907 q 231 653 257 749 l 53 8 q 45 0 50 1 q 33 -1 40 -1 m 128 294 l 128 328 l 493 328 l 493 294 l 128 294 z "},"À":{"ha":606,"x_min":14,"x_max":592,"o":"m 33 -1 q 26 -1 31 -1 q 14 0 21 -1 l 292 976 q 299 979 292 979 q 311 976 308 979 l 590 14 q 590 2 592 6 q 579 -1 588 -1 q 569 -1 575 -1 q 557 0 563 -1 l 372 653 q 324 827 346 747 q 301 929 303 907 q 278 828 299 907 q 231 653 257 749 l 53 8 q 45 0 50 1 q 33 -1 40 -1 m 128 294 l 128 328 l 493 328 l 493 294 l 128 294 m 394 1082 q 297 1154 342 1119 q 224 1212 251 1189 q 197 1235 197 1235 q 202 1251 197 1235 q 215 1267 207 1267 q 244 1244 215 1267 q 318 1184 274 1221 q 408 1104 363 1147 q 401 1093 408 1104 q 394 1082 394 1082 z "},"Ả":{"ha":606,"x_min":14,"x_max":592,"o":"m 33 -1 q 26 -1 31 -1 q 14 0 21 -1 l 292 976 q 299 979 292 979 q 311 976 308 979 l 590 14 q 590 2 592 6 q 579 -1 588 -1 q 569 -1 575 -1 q 557 0 563 -1 l 372 653 q 324 827 346 747 q 301 929 303 907 q 278 828 299 907 q 231 653 257 749 l 53 8 q 45 0 50 1 q 33 -1 40 -1 m 128 294 l 128 328 l 493 328 l 493 294 l 128 294 m 281 1049 q 279 1060 281 1049 q 283 1083 278 1071 q 317 1114 296 1107 q 338 1158 338 1121 q 315 1208 338 1200 q 282 1217 293 1217 q 228 1200 250 1217 q 228 1215 228 1200 q 228 1233 228 1229 q 281 1253 228 1253 q 350 1232 324 1253 q 376 1158 376 1211 q 353 1103 376 1119 q 317 1078 329 1088 q 308 1061 310 1072 q 307 1050 307 1050 q 294 1047 306 1047 q 281 1049 283 1047 z "},"Ā":{"ha":606,"x_min":14,"x_max":592,"o":"m 33 -1 q 26 -1 31 -1 q 14 0 21 -1 l 292 976 q 299 979 292 979 q 311 976 308 979 l 590 14 q 590 2 592 6 q 579 -1 588 -1 q 569 -1 575 -1 q 557 0 563 -1 l 372 653 q 324 827 346 747 q 301 929 303 907 q 278 828 299 907 q 231 653 257 749 l 53 8 q 45 0 50 1 q 33 -1 40 -1 m 128 294 l 128 328 l 493 328 l 493 294 l 128 294 m 136 1143 q 135 1153 135 1149 q 135 1161 135 1157 q 150 1178 138 1178 l 469 1178 q 471 1160 471 1171 q 466 1147 469 1151 q 456 1143 463 1143 l 136 1143 z "},"Ą":{"ha":606,"x_min":14,"x_max":593,"o":"m 532 -271 q 460 -244 486 -271 q 435 -164 435 -217 q 474 -59 435 -107 q 553 15 513 -11 l 474 294 l 132 294 l 53 8 q 45 0 50 1 q 33 -1 40 -1 q 26 -1 31 -1 q 14 0 21 -1 l 292 976 q 299 979 292 979 q 311 976 308 979 l 590 15 q 583 0 593 6 q 503 -71 539 -28 q 468 -162 468 -114 q 533 -239 468 -239 q 561 -235 550 -239 q 581 -225 572 -231 q 589 -247 589 -239 q 571 -265 589 -260 q 532 -271 553 -271 m 140 328 l 464 328 l 372 653 q 324 827 346 747 q 301 929 303 907 q 278 828 299 907 q 231 653 257 749 l 140 328 z "},"Å":{"ha":606,"x_min":14,"x_max":592,"o":"m 33 -1 q 26 -1 31 -1 q 14 0 21 -1 l 292 976 q 299 979 292 979 q 311 976 308 979 l 590 14 q 590 2 592 6 q 579 -1 588 -1 q 569 -1 575 -1 q 557 0 563 -1 l 372 653 q 324 827 346 747 q 301 929 303 907 q 278 828 299 907 q 231 653 257 749 l 53 8 q 45 0 50 1 q 33 -1 40 -1 m 128 294 l 128 328 l 493 328 l 493 294 l 128 294 m 299 1065 q 219 1091 250 1065 q 189 1181 189 1117 q 308 1297 189 1297 q 390 1271 363 1297 q 417 1181 417 1244 q 299 1065 417 1065 m 299 1099 q 383 1182 383 1099 q 365 1247 383 1229 q 310 1264 346 1264 q 245 1245 268 1264 q 222 1176 222 1226 q 299 1099 222 1099 z "},"Ã":{"ha":606,"x_min":14,"x_max":592,"o":"m 33 -1 q 26 -1 31 -1 q 14 0 21 -1 l 292 976 q 299 979 292 979 q 311 976 308 979 l 590 14 q 590 2 592 6 q 579 -1 588 -1 q 569 -1 575 -1 q 557 0 563 -1 l 372 653 q 324 827 346 747 q 301 929 303 907 q 278 828 299 907 q 231 653 257 749 l 53 8 q 45 0 50 1 q 33 -1 40 -1 m 128 294 l 128 328 l 493 328 l 493 294 l 128 294 m 369 1103 q 305 1124 326 1103 q 267 1165 283 1144 q 228 1185 251 1185 q 164 1148 185 1185 q 133 1111 143 1111 q 119 1121 126 1111 q 111 1131 111 1131 q 172 1199 143 1183 q 236 1214 200 1214 q 287 1194 269 1214 q 321 1156 304 1175 q 369 1138 338 1138 q 446 1174 428 1138 q 474 1210 464 1210 q 489 1199 483 1210 q 494 1189 494 1189 q 471 1149 485 1169 q 433 1116 457 1129 q 369 1103 408 1103 z "},"Æ":{"ha":938,"x_min":26,"x_max":889,"o":"m 46 -1 q 39 -1 44 -1 q 26 0 33 -1 l 539 964 q 550 972 543 972 l 569 972 q 534 900 561 956 q 472 775 507 844 q 406 647 436 706 l 65 8 q 58 1 63 3 q 46 -1 53 -1 m 204 294 l 218 328 l 556 328 l 556 294 l 204 294 m 540 0 l 540 958 q 542 965 540 958 q 554 972 544 972 l 886 972 q 885 945 886 951 q 878 939 883 939 l 574 939 l 574 33 l 889 33 q 888 6 889 11 q 878 0 886 0 l 540 0 m 563 517 l 563 550 l 858 550 q 857 523 858 529 q 847 517 856 517 l 563 517 z "},"B":{"ha":569,"x_min":94,"x_max":528,"o":"m 94 0 l 94 950 q 128 972 94 972 l 268 972 q 372 957 318 972 q 462 897 425 942 q 499 764 499 853 q 448 589 499 633 q 357 538 397 544 q 424 522 383 536 q 497 463 465 507 q 528 332 528 419 q 495 142 528 210 q 416 44 463 74 q 325 7 369 14 q 257 0 281 0 l 94 0 m 128 33 l 256 33 q 419 91 344 33 q 494 329 494 149 q 424 489 494 463 q 254 515 354 515 l 128 515 l 128 33 m 128 549 l 274 549 q 408 592 351 549 q 465 763 465 636 q 401 905 465 869 q 261 940 338 940 l 128 940 l 128 549 z "},"C":{"ha":513,"x_min":67,"x_max":471,"o":"m 296 -12 q 224 -3 263 -12 q 149 47 185 7 q 90 178 113 88 q 67 432 67 269 q 90 734 67 622 q 153 899 114 846 q 240 969 193 953 q 332 985 286 985 q 424 961 389 985 q 460 921 460 938 q 457 908 460 915 q 450 899 454 901 q 410 929 444 906 q 328 953 375 953 q 223 922 275 953 q 136 778 171 890 q 101 425 101 667 q 132 159 101 244 q 208 48 163 74 q 297 22 253 22 q 399 51 353 22 q 461 106 444 79 q 471 81 471 89 q 419 22 471 57 q 296 -12 368 -12 z "},"Ć":{"ha":513,"x_min":67,"x_max":471,"o":"m 296 -12 q 224 -3 263 -12 q 149 47 185 7 q 90 178 113 88 q 67 432 67 269 q 90 734 67 622 q 153 899 114 846 q 240 969 193 953 q 332 985 286 985 q 424 961 389 985 q 460 921 460 938 q 457 908 460 915 q 450 899 454 901 q 410 929 444 906 q 328 953 375 953 q 223 922 275 953 q 136 778 171 890 q 101 425 101 667 q 132 159 101 244 q 208 48 163 74 q 297 22 253 22 q 399 51 353 22 q 461 106 444 79 q 471 81 471 89 q 419 22 471 57 q 296 -12 368 -12 m 207 1082 q 200 1093 207 1082 q 193 1104 193 1104 q 283 1184 239 1147 q 357 1244 328 1221 q 386 1267 386 1267 q 399 1251 394 1267 q 404 1235 404 1235 q 377 1212 404 1235 q 305 1154 350 1189 q 207 1082 260 1119 z "},"Č":{"ha":513,"x_min":67,"x_max":471,"o":"m 296 -12 q 224 -3 263 -12 q 149 47 185 7 q 90 178 113 88 q 67 432 67 269 q 90 734 67 622 q 153 899 114 846 q 240 969 193 953 q 332 985 286 985 q 424 961 389 985 q 460 921 460 938 q 457 908 460 915 q 450 899 454 901 q 410 929 444 906 q 328 953 375 953 q 223 922 275 953 q 136 778 171 890 q 101 425 101 667 q 132 159 101 244 q 208 48 163 74 q 297 22 253 22 q 399 51 353 22 q 461 106 444 79 q 471 81 471 89 q 419 22 471 57 q 296 -12 368 -12 m 310 1092 q 258 1132 300 1092 q 178 1213 217 1172 q 139 1253 139 1253 q 146 1263 139 1253 q 163 1272 153 1272 q 204 1236 168 1272 q 274 1163 240 1200 q 308 1126 308 1126 q 397 1230 353 1179 q 442 1281 442 1281 q 458 1258 458 1268 q 424 1212 458 1253 q 353 1131 390 1171 q 310 1092 317 1092 z "},"Ç":{"ha":513,"x_min":67,"x_max":471,"o":"m 296 -12 q 224 -3 263 -12 q 149 47 185 7 q 90 178 113 88 q 67 432 67 269 q 90 734 67 622 q 153 899 114 846 q 240 969 193 953 q 332 985 286 985 q 424 961 389 985 q 460 921 460 938 q 457 908 460 915 q 450 899 454 901 q 410 929 444 906 q 328 953 375 953 q 223 922 275 953 q 136 778 171 890 q 101 425 101 667 q 132 159 101 244 q 208 48 163 74 q 297 22 253 22 q 399 51 353 22 q 461 106 444 79 q 471 81 471 89 q 419 22 471 57 q 296 -12 368 -12 m 311 -246 q 264 -242 285 -246 q 243 -237 243 -237 q 244 -224 243 -237 q 253 -206 246 -211 q 276 -207 260 -200 q 311 -214 292 -214 q 347 -203 331 -214 q 364 -161 364 -192 q 348 -119 364 -128 q 313 -111 332 -111 q 280 -115 296 -111 q 264 -118 264 -118 l 290 4 l 325 4 l 306 -85 q 313 -83 306 -85 q 332 -82 319 -82 q 376 -98 354 -82 q 397 -153 397 -114 q 367 -228 397 -211 q 311 -246 338 -246 z "},"D":{"ha":607,"x_min":97,"x_max":540,"o":"m 97 0 l 97 950 q 131 972 97 972 l 271 972 q 418 927 358 972 q 509 786 478 882 q 540 539 540 690 q 499 188 540 303 q 394 36 458 72 q 260 0 331 0 l 97 0 m 131 33 l 258 33 q 378 67 322 33 q 471 209 435 101 q 507 539 507 317 q 482 764 507 675 q 403 896 457 853 q 264 939 350 939 l 131 939 l 131 33 z "},"Ð":{"ha":607,"x_min":28,"x_max":540,"o":"m 97 0 l 97 950 q 131 972 97 972 l 271 972 q 472 869 403 972 q 540 539 540 767 q 499 188 540 303 q 394 36 458 72 q 260 0 331 0 l 97 0 m 28 499 q 29 528 28 522 q 42 533 31 533 l 315 533 q 313 505 315 511 q 301 499 311 499 l 28 499 m 131 33 l 258 33 q 378 67 322 33 q 471 209 435 101 q 507 539 507 317 q 482 764 507 675 q 403 896 457 853 q 264 939 350 939 l 131 939 l 131 33 z "},"Ď":{"ha":607,"x_min":97,"x_max":540,"o":"m 97 0 l 97 950 q 131 972 97 972 l 271 972 q 418 927 358 972 q 509 786 478 882 q 540 539 540 690 q 499 188 540 303 q 394 36 458 72 q 260 0 331 0 l 97 0 m 131 33 l 258 33 q 378 67 322 33 q 471 209 435 101 q 507 539 507 317 q 482 764 507 675 q 403 896 457 853 q 264 939 350 939 l 131 939 l 131 33 m 275 1092 q 224 1132 265 1092 q 143 1213 182 1172 q 104 1253 104 1253 q 111 1263 104 1253 q 128 1272 118 1272 q 169 1236 133 1272 q 240 1163 206 1200 q 274 1126 274 1126 q 363 1230 318 1179 q 407 1281 407 1281 q 424 1258 424 1268 q 390 1212 424 1253 q 319 1131 356 1171 q 275 1092 282 1092 z "},"Đ":{"ha":607,"x_min":-18,"x_max":540,"o":"m 97 0 l 97 950 q 131 972 97 972 l 271 972 q 418 927 358 972 q 509 786 478 882 q 540 539 540 690 q 499 188 540 303 q 394 36 458 72 q 260 0 331 0 l 97 0 m 131 33 l 258 33 q 378 67 322 33 q 471 209 435 101 q 507 539 507 317 q 482 764 507 675 q 403 896 457 853 q 264 939 350 939 l 131 939 l 131 33 m -17 451 q -18 461 -18 457 q -18 469 -18 465 q -3 486 -15 486 l 317 486 q 318 468 318 479 q 313 456 317 460 q 303 451 310 451 l -17 451 z "},"E":{"ha":496,"x_min":99,"x_max":447,"o":"m 99 0 l 99 958 q 101 965 99 958 q 113 972 103 972 l 444 972 q 443 945 444 951 q 436 939 442 939 l 132 939 l 132 33 l 447 33 q 446 6 447 11 q 436 0 444 0 l 99 0 m 121 517 l 121 550 l 417 550 q 415 523 417 529 q 406 517 414 517 l 121 517 z "},"É":{"ha":496,"x_min":99,"x_max":447,"o":"m 99 0 l 99 958 q 101 965 99 958 q 113 972 103 972 l 444 972 q 443 945 444 951 q 436 939 442 939 l 132 939 l 132 33 l 447 33 q 446 6 447 11 q 436 0 444 0 l 99 0 m 121 517 l 121 550 l 417 550 q 415 523 417 529 q 406 517 414 517 l 121 517 m 182 1082 q 175 1093 182 1082 q 168 1104 168 1104 q 258 1184 214 1147 q 332 1244 303 1221 q 361 1267 361 1267 q 374 1251 369 1267 q 379 1235 379 1235 q 352 1212 379 1235 q 280 1154 325 1189 q 182 1082 235 1119 z "},"Ě":{"ha":496,"x_min":99,"x_max":447,"o":"m 99 0 l 99 958 q 101 965 99 958 q 113 972 103 972 l 444 972 q 443 945 444 951 q 436 939 442 939 l 132 939 l 132 33 l 447 33 q 446 6 447 11 q 436 0 444 0 l 99 0 m 121 517 l 121 550 l 417 550 q 415 523 417 529 q 406 517 414 517 l 121 517 m 285 1092 q 233 1132 275 1092 q 153 1213 192 1172 q 114 1253 114 1253 q 121 1263 114 1253 q 138 1272 128 1272 q 179 1236 143 1272 q 249 1163 215 1200 q 283 1126 283 1126 q 372 1230 328 1179 q 417 1281 417 1281 q 433 1258 433 1268 q 399 1212 433 1253 q 328 1131 365 1171 q 285 1092 292 1092 z "},"Ê":{"ha":496,"x_min":99,"x_max":447,"o":"m 99 0 l 99 958 q 101 965 99 958 q 113 972 103 972 l 444 972 q 443 945 444 951 q 436 939 442 939 l 132 939 l 132 33 l 447 33 q 446 6 447 11 q 436 0 444 0 l 99 0 m 121 517 l 121 550 l 417 550 q 415 523 417 529 q 406 517 414 517 l 121 517 m 401 1083 q 370 1117 401 1083 q 308 1183 339 1150 q 278 1215 278 1215 q 246 1183 278 1215 q 180 1117 214 1150 q 142 1085 146 1085 q 122 1094 128 1085 q 115 1103 115 1103 l 268 1246 q 279 1249 271 1249 q 299 1239 289 1249 q 332 1206 299 1239 q 399 1139 365 1172 q 432 1106 432 1106 q 423 1094 432 1106 q 401 1083 414 1083 z "},"Ế":{"ha":496,"x_min":99,"x_max":636,"o":"m 99 0 l 99 958 q 101 965 99 958 q 113 972 103 972 l 444 972 q 443 945 444 951 q 436 939 442 939 l 132 939 l 132 33 l 447 33 q 446 6 447 11 q 436 0 444 0 l 99 0 m 121 517 l 121 550 l 417 550 q 415 523 417 529 q 406 517 414 517 l 121 517 z "},"Ệ":{"ha":496,"x_min":99,"x_max":447,"o":"m 99 0 l 99 958 q 101 965 99 958 q 113 972 103 972 l 444 972 q 443 945 444 951 q 436 939 442 939 l 132 939 l 132 33 l 447 33 q 446 6 447 11 q 436 0 444 0 l 99 0 m 121 517 l 121 550 l 417 550 q 415 523 417 529 q 406 517 414 517 l 121 517 m 401 1083 q 370 1117 401 1083 q 308 1183 339 1150 q 278 1215 278 1215 q 246 1183 278 1215 q 180 1117 214 1150 q 142 1085 146 1085 q 122 1094 128 1085 q 115 1103 115 1103 l 268 1246 q 279 1249 271 1249 q 299 1239 289 1249 q 332 1206 299 1239 q 399 1139 365 1172 q 432 1106 432 1106 q 423 1094 432 1106 q 401 1083 414 1083 z "},"Ề":{"ha":496,"x_min":99,"x_max":447,"o":"m 99 0 l 99 958 q 101 965 99 958 q 113 972 103 972 l 444 972 q 443 945 444 951 q 436 939 442 939 l 132 939 l 132 33 l 447 33 q 446 6 447 11 q 436 0 444 0 l 99 0 m 121 517 l 121 550 l 417 550 q 415 523 417 529 q 406 517 414 517 l 121 517 z "},"Ể":{"ha":496,"x_min":99,"x_max":515,"o":"m 99 0 l 99 958 q 101 965 99 958 q 113 972 103 972 l 444 972 q 443 945 444 951 q 436 939 442 939 l 132 939 l 132 33 l 447 33 q 446 6 447 11 q 436 0 444 0 l 99 0 m 121 517 l 121 550 l 417 550 q 415 523 417 529 q 406 517 414 517 l 121 517 z "},"Ễ":{"ha":496,"x_min":99,"x_max":486,"o":"m 99 0 l 99 958 q 101 965 99 958 q 113 972 103 972 l 444 972 q 443 945 444 951 q 436 939 442 939 l 132 939 l 132 33 l 447 33 q 446 6 447 11 q 436 0 444 0 l 99 0 m 121 517 l 121 550 l 417 550 q 415 523 417 529 q 406 517 414 517 l 121 517 z "},"Ë":{"ha":496,"x_min":99,"x_max":447,"o":"m 99 0 l 99 958 q 101 965 99 958 q 113 972 103 972 l 444 972 q 443 945 444 951 q 436 939 442 939 l 132 939 l 132 33 l 447 33 q 446 6 447 11 q 436 0 444 0 l 99 0 m 121 517 l 121 550 l 417 550 q 415 523 417 529 q 406 517 414 517 l 121 517 m 203 1131 q 183 1142 189 1132 q 179 1169 178 1151 q 206 1208 181 1208 q 226 1197 219 1208 q 231 1167 232 1186 q 203 1131 228 1131 m 342 1131 q 322 1142 328 1132 q 318 1169 317 1151 q 344 1208 319 1208 q 365 1197 358 1208 q 369 1167 371 1186 q 342 1131 367 1131 z "},"Ė":{"ha":496,"x_min":99,"x_max":447,"o":"m 99 0 l 99 958 q 101 965 99 958 q 113 972 103 972 l 444 972 q 443 945 444 951 q 436 939 442 939 l 132 939 l 132 33 l 447 33 q 446 6 447 11 q 436 0 444 0 l 99 0 m 121 517 l 121 550 l 417 550 q 415 523 417 529 q 406 517 414 517 l 121 517 m 272 1131 q 253 1142 258 1132 q 249 1169 247 1151 q 256 1199 250 1189 q 275 1208 263 1208 q 295 1197 289 1208 q 300 1167 301 1186 q 272 1131 297 1131 z "},"Ẹ":{"ha":496,"x_min":99,"x_max":447,"o":"m 99 0 l 99 958 q 101 965 99 958 q 113 972 103 972 l 444 972 q 443 945 444 951 q 436 939 442 939 l 132 939 l 132 33 l 447 33 q 446 6 447 11 q 436 0 444 0 l 99 0 m 121 517 l 121 550 l 417 550 q 415 523 417 529 q 406 517 414 517 l 121 517 z "},"È":{"ha":496,"x_min":99,"x_max":447,"o":"m 99 0 l 99 958 q 101 965 99 958 q 113 972 103 972 l 444 972 q 443 945 444 951 q 436 939 442 939 l 132 939 l 132 33 l 447 33 q 446 6 447 11 q 436 0 444 0 l 99 0 m 121 517 l 121 550 l 417 550 q 415 523 417 529 q 406 517 414 517 l 121 517 m 365 1082 q 267 1154 313 1119 q 195 1212 222 1189 q 168 1235 168 1235 q 173 1251 168 1235 q 186 1267 178 1267 q 215 1244 186 1267 q 289 1184 244 1221 q 379 1104 333 1147 q 372 1093 379 1104 q 365 1082 365 1082 z "},"Ẻ":{"ha":496,"x_min":99,"x_max":447,"o":"m 99 0 l 99 958 q 101 965 99 958 q 113 972 103 972 l 444 972 q 443 945 444 951 q 436 939 442 939 l 132 939 l 132 33 l 447 33 q 446 6 447 11 q 436 0 444 0 l 99 0 m 121 517 l 121 550 l 417 550 q 415 523 417 529 q 406 517 414 517 l 121 517 m 251 1049 q 250 1060 251 1049 q 254 1083 249 1071 q 288 1114 267 1107 q 308 1158 308 1121 q 286 1208 308 1200 q 253 1217 264 1217 q 199 1200 221 1217 q 199 1215 199 1200 q 199 1233 199 1229 q 251 1253 199 1253 q 321 1232 294 1253 q 347 1158 347 1211 q 324 1103 347 1119 q 288 1078 300 1088 q 279 1061 281 1072 q 278 1050 278 1050 q 265 1047 276 1047 q 251 1049 254 1047 z "},"Ē":{"ha":496,"x_min":99,"x_max":447,"o":"m 99 0 l 99 958 q 101 965 99 958 q 113 972 103 972 l 444 972 q 443 945 444 951 q 436 939 442 939 l 132 939 l 132 33 l 447 33 q 446 6 447 11 q 436 0 444 0 l 99 0 m 121 517 l 121 550 l 417 550 q 415 523 417 529 q 406 517 414 517 l 121 517 m 107 1143 q 106 1153 106 1149 q 106 1161 106 1157 q 121 1178 108 1178 l 440 1178 q 442 1160 442 1171 q 437 1147 440 1151 q 426 1143 433 1143 l 107 1143 z "},"Ę":{"ha":496,"x_min":99,"x_max":447,"o":"m 386 -271 q 316 -244 342 -271 q 290 -165 290 -217 q 319 -72 290 -117 q 388 0 349 -28 l 99 0 l 99 958 q 101 965 99 958 q 113 972 103 972 l 444 972 q 443 945 444 951 q 436 939 442 939 l 132 939 l 132 550 l 417 550 q 415 523 417 529 q 406 517 414 517 l 132 517 l 132 33 l 447 33 q 445 8 447 14 q 433 -3 443 3 q 356 -74 389 -31 q 324 -165 324 -117 q 388 -239 324 -239 q 436 -225 413 -239 q 444 -247 444 -239 q 426 -265 444 -260 q 386 -271 408 -271 z "},"Ẽ":{"ha":496,"x_min":82,"x_max":465,"o":"m 99 0 l 99 958 q 101 965 99 958 q 113 972 103 972 l 444 972 q 443 945 444 951 q 436 939 442 939 l 132 939 l 132 33 l 447 33 q 446 6 447 11 q 436 0 444 0 l 99 0 m 121 517 l 121 550 l 417 550 q 415 523 417 529 q 406 517 414 517 l 121 517 m 340 1103 q 276 1124 297 1103 q 238 1165 254 1144 q 199 1185 222 1185 q 135 1148 156 1185 q 104 1111 114 1111 q 90 1121 97 1111 q 82 1131 82 1131 q 142 1199 114 1183 q 207 1214 171 1214 q 258 1194 240 1214 q 292 1156 275 1175 q 340 1138 308 1138 q 417 1174 399 1138 q 444 1210 435 1210 q 460 1199 454 1210 q 465 1189 465 1189 q 442 1149 456 1169 q 403 1116 428 1129 q 340 1103 379 1103 z "},"F":{"ha":478,"x_min":99,"x_max":444,"o":"m 99 0 l 99 958 q 101 965 99 958 q 113 972 103 972 l 444 972 q 443 945 444 951 q 436 939 442 939 l 132 939 l 132 14 q 130 7 132 14 q 118 0 128 0 l 99 0 m 121 518 l 121 551 l 417 551 q 415 524 417 531 q 406 518 414 518 l 121 518 z "},"G":{"ha":576,"x_min":67,"x_max":510,"o":"m 324 -14 q 194 22 253 -14 q 101 163 136 57 q 67 481 67 269 q 103 797 67 688 q 205 946 140 906 q 351 986 269 986 q 452 969 410 986 q 494 932 494 953 q 493 922 494 926 q 488 910 492 917 q 433 940 464 928 q 356 953 403 953 q 225 917 283 953 q 133 778 167 881 q 100 481 100 676 q 132 174 100 272 q 215 48 164 76 q 326 19 267 19 q 431 47 392 19 q 476 93 469 75 l 476 500 l 303 500 l 303 519 q 317 533 303 533 l 510 533 l 510 83 q 462 26 503 67 q 324 -14 421 -14 z "},"Ğ":{"ha":576,"x_min":67,"x_max":510,"o":"m 324 -14 q 194 22 253 -14 q 101 163 136 57 q 67 481 67 269 q 103 797 67 688 q 205 946 140 906 q 351 986 269 986 q 452 969 410 986 q 494 932 494 953 q 493 922 494 926 q 488 910 492 917 q 433 940 464 928 q 356 953 403 953 q 225 917 283 953 q 133 778 167 881 q 100 481 100 676 q 132 174 100 272 q 215 48 164 76 q 326 19 267 19 q 431 47 392 19 q 476 93 469 75 l 476 500 l 303 500 l 303 519 q 317 533 303 533 l 510 533 l 510 83 q 462 26 503 67 q 324 -14 421 -14 m 317 1090 q 228 1123 263 1090 q 176 1192 193 1156 q 158 1242 158 1229 q 185 1260 158 1257 q 227 1173 197 1222 q 318 1124 257 1124 q 401 1165 376 1124 q 442 1246 426 1206 q 460 1257 447 1261 q 476 1240 474 1253 q 428 1144 464 1197 q 317 1090 393 1090 z "},"Ģ":{"ha":576,"x_min":67,"x_max":510,"o":"m 324 -14 q 194 22 253 -14 q 101 163 136 57 q 67 481 67 269 q 103 797 67 688 q 205 946 140 906 q 351 986 269 986 q 452 969 410 986 q 494 932 494 953 q 493 922 494 926 q 488 910 492 917 q 433 940 464 928 q 356 953 403 953 q 225 917 283 953 q 133 778 167 881 q 100 481 100 676 q 132 174 100 272 q 215 48 164 76 q 326 19 267 19 q 431 47 392 19 q 476 93 469 75 l 476 500 l 303 500 l 303 519 q 317 533 303 533 l 510 533 l 510 83 q 462 26 503 67 q 324 -14 421 -14 z "},"H":{"ha":638,"x_min":94,"x_max":543,"o":"m 510 0 l 510 958 q 514 970 510 968 q 543 972 518 972 l 543 14 q 538 1 543 3 q 510 0 533 0 m 94 0 l 94 958 q 99 971 94 969 q 128 972 104 972 l 128 14 q 123 1 128 3 q 94 0 118 0 m 117 518 l 117 551 l 526 551 l 526 518 l 117 518 z "},"I":{"ha":224,"x_min":94,"x_max":129,"o":"m 94 0 l 94 950 q 99 969 94 967 q 129 972 104 972 l 129 14 q 124 1 129 3 q 94 0 118 0 z "},"Ĳ":{"ha":636,"x_min":94,"x_max":542,"o":"m 94 0 l 94 950 q 99 969 94 967 q 129 972 104 972 l 129 14 q 124 1 129 3 q 94 0 118 0 m 385 -14 q 291 7 329 -14 q 253 49 253 28 q 256 63 253 56 q 264 75 260 71 q 313 35 283 51 q 383 19 343 19 q 492 94 475 19 q 508 256 508 169 l 508 951 q 513 969 508 967 q 542 972 517 972 l 542 239 q 535 128 542 186 q 495 28 528 69 q 385 -14 463 -14 z "},"Í":{"ha":224,"x_min":7,"x_max":218,"o":"m 94 0 l 94 950 q 99 969 94 967 q 129 972 104 972 l 129 14 q 124 1 129 3 q 94 0 118 0 m 21 1082 q 14 1093 21 1082 q 7 1104 7 1104 q 97 1184 53 1147 q 171 1244 142 1221 q 200 1267 200 1267 q 213 1251 208 1267 q 218 1235 218 1235 q 191 1212 218 1235 q 119 1154 164 1189 q 21 1082 74 1119 z "},"Î":{"ha":224,"x_min":-46,"x_max":271,"o":"m 94 0 l 94 950 q 99 969 94 967 q 129 972 104 972 l 129 14 q 124 1 129 3 q 94 0 118 0 m 240 1083 q 209 1117 240 1083 q 147 1183 178 1150 q 117 1215 117 1215 q 85 1183 117 1215 q 19 1117 53 1150 q -19 1085 -15 1085 q -40 1094 -33 1085 q -46 1103 -46 1103 l 107 1246 q 118 1249 110 1249 q 138 1239 128 1249 q 171 1206 138 1239 q 238 1139 204 1172 q 271 1106 271 1106 q 262 1094 271 1106 q 240 1083 253 1083 z "},"Ï":{"ha":224,"x_min":17,"x_max":210,"o":"m 94 0 l 94 950 q 99 969 94 967 q 129 972 104 972 l 129 14 q 124 1 129 3 q 94 0 118 0 m 42 1131 q 22 1142 28 1132 q 18 1169 17 1151 q 44 1208 19 1208 q 65 1197 58 1208 q 69 1167 71 1186 q 42 1131 67 1131 m 181 1131 q 161 1142 167 1132 q 157 1169 156 1151 q 183 1208 158 1208 q 203 1197 197 1208 q 208 1167 210 1186 q 181 1131 206 1131 z "},"İ":{"ha":224,"x_min":86,"x_max":140,"o":"m 94 0 l 94 950 q 99 969 94 967 q 129 972 104 972 l 129 14 q 124 1 129 3 q 94 0 118 0 m 111 1131 q 92 1142 97 1132 q 88 1169 86 1151 q 95 1199 89 1189 q 114 1208 101 1208 q 134 1197 128 1208 q 139 1167 140 1186 q 111 1131 136 1131 z "},"Ị":{"ha":224,"x_min":86,"x_max":140,"o":"m 94 0 l 94 950 q 99 969 94 967 q 129 972 104 972 l 129 14 q 124 1 129 3 q 94 0 118 0 z "},"Ì":{"ha":224,"x_min":7,"x_max":218,"o":"m 94 0 l 94 950 q 99 969 94 967 q 129 972 104 972 l 129 14 q 124 1 129 3 q 94 0 118 0 m 204 1082 q 106 1154 151 1119 q 34 1212 61 1189 q 7 1235 7 1235 q 12 1251 7 1235 q 25 1267 17 1267 q 54 1244 25 1267 q 128 1184 83 1221 q 218 1104 172 1147 q 211 1093 218 1104 q 204 1082 204 1082 z "},"Ỉ":{"ha":224,"x_min":38,"x_max":186,"o":"m 94 0 l 94 950 q 99 969 94 967 q 129 972 104 972 l 129 14 q 124 1 129 3 q 94 0 118 0 m 90 1049 q 89 1060 90 1049 q 93 1083 88 1071 q 126 1114 106 1107 q 147 1158 147 1121 q 125 1208 147 1200 q 92 1217 103 1217 q 38 1200 60 1217 q 38 1215 38 1200 q 38 1233 38 1229 q 90 1253 38 1253 q 160 1232 133 1253 q 186 1158 186 1211 q 163 1103 186 1119 q 126 1078 139 1088 q 118 1061 119 1072 q 117 1050 117 1050 q 104 1047 115 1047 q 90 1049 93 1047 z "},"Ī":{"ha":224,"x_min":-56,"x_max":281,"o":"m 94 0 l 94 950 q 99 969 94 967 q 129 972 104 972 l 129 14 q 124 1 129 3 q 94 0 118 0 m -54 1143 q -56 1153 -56 1149 q -56 1161 -56 1157 q -40 1178 -53 1178 l 279 1178 q 281 1160 281 1171 q 276 1147 279 1151 q 265 1143 272 1143 l -54 1143 z "},"Į":{"ha":222,"x_min":-10,"x_max":146,"o":"m 89 -271 q 15 -244 40 -271 q -10 -168 -10 -217 q 22 -63 -10 -108 q 94 17 54 -18 l 94 950 q 99 969 94 967 q 128 972 104 972 l 128 14 q 110 -8 128 4 q 51 -76 78 -33 q 24 -169 24 -119 q 89 -237 24 -237 q 136 -225 111 -237 q 144 -246 144 -233 q 130 -264 146 -257 q 89 -271 114 -271 z "},"Ĩ":{"ha":224,"x_min":-79,"x_max":304,"o":"m 94 0 l 94 950 q 99 969 94 967 q 129 972 104 972 l 129 14 q 124 1 129 3 q 94 0 118 0 m 179 1103 q 115 1124 136 1103 q 77 1165 93 1144 q 38 1185 61 1185 q -26 1148 -6 1185 q -57 1111 -47 1111 q -72 1121 -64 1111 q -79 1131 -79 1131 q -19 1199 -47 1183 q 46 1214 10 1214 q 97 1194 79 1214 q 131 1156 114 1175 q 179 1138 147 1138 q 256 1174 238 1138 q 283 1210 274 1210 q 299 1199 293 1210 q 304 1189 304 1189 q 281 1149 294 1169 q 242 1116 267 1129 q 179 1103 218 1103 z "},"J":{"ha":413,"x_min":29,"x_max":318,"o":"m 161 -14 q 67 7 106 -14 q 29 49 29 28 q 33 63 29 56 q 40 75 36 71 q 90 35 60 51 q 160 19 119 19 q 268 94 251 19 q 285 256 285 169 l 285 951 q 289 969 285 967 q 318 972 293 972 l 318 239 q 311 128 318 186 q 272 28 304 69 q 161 -14 239 -14 z "},"K":{"ha":544,"x_min":94,"x_max":522,"o":"m 504 -1 q 486 0 492 -1 q 381 242 429 153 q 290 383 332 332 q 210 471 247 433 q 165 504 189 492 q 117 526 142 517 l 117 540 l 475 971 q 485 972 481 972 q 496 972 490 972 q 504 951 522 972 l 160 544 q 344 371 253 497 q 514 18 436 244 q 515 3 518 8 q 504 -1 511 -1 m 94 0 l 94 958 q 99 971 94 969 q 128 972 103 972 l 128 14 q 124 1 128 3 q 94 0 119 0 z "},"Ķ":{"ha":544,"x_min":94,"x_max":522,"o":"m 504 -1 q 486 0 492 -1 q 381 242 429 153 q 290 383 332 332 q 210 471 247 433 q 165 504 189 492 q 117 526 142 517 l 117 540 l 475 971 q 485 972 481 972 q 496 972 490 972 q 504 951 522 972 l 160 544 q 344 371 253 497 q 514 18 436 244 q 515 3 518 8 q 504 -1 511 -1 m 94 0 l 94 958 q 99 971 94 969 q 128 972 103 972 l 128 14 q 124 1 128 3 q 94 0 119 0 z "},"L":{"ha":476,"x_min":94,"x_max":449,"o":"m 94 0 l 94 951 q 99 969 94 967 q 131 972 103 972 l 131 32 l 449 32 l 449 14 q 435 0 449 0 l 94 0 z "},"Ĺ":{"ha":476,"x_min":94,"x_max":449,"o":"m 94 0 l 94 951 q 99 969 94 967 q 131 972 103 972 l 131 32 l 449 32 l 449 14 q 435 0 449 0 l 94 0 m 147 1082 q 140 1093 147 1082 q 133 1104 133 1104 q 224 1184 179 1147 q 297 1244 268 1221 q 326 1267 326 1267 q 340 1251 335 1267 q 344 1235 344 1235 q 317 1212 344 1235 q 245 1154 290 1189 q 147 1082 200 1119 z "},"Ľ":{"ha":490,"x_min":94,"x_max":449,"o":"m 94 0 l 94 951 q 99 969 94 967 q 131 972 103 972 l 131 32 l 449 32 l 449 14 q 435 0 449 0 l 94 0 m 346 639 q 328 656 331 639 q 351 751 344 694 q 357 842 358 807 q 336 882 336 854 q 346 910 336 900 q 372 921 356 921 q 397 913 388 921 q 407 874 407 904 q 396 781 407 838 q 370 682 385 725 q 346 639 356 639 z "},"Ļ":{"ha":476,"x_min":94,"x_max":449,"o":"m 94 0 l 94 951 q 99 969 94 967 q 131 972 103 972 l 131 32 l 449 32 l 449 14 q 435 0 449 0 l 94 0 z "},"Ŀ":{"ha":490,"x_min":94,"x_max":449,"o":"m 94 0 l 94 951 q 99 969 94 967 q 131 972 103 972 l 131 32 l 449 32 l 449 14 q 435 0 449 0 l 94 0 m 318 406 q 290 417 300 406 q 281 449 281 429 q 290 478 281 465 q 318 490 300 490 q 347 478 336 490 q 358 449 358 465 q 347 417 358 429 q 318 406 336 406 z "},"Ł":{"ha":476,"x_min":14,"x_max":449,"o":"m 94 0 l 94 951 q 99 969 94 967 q 131 972 103 972 l 131 32 l 449 32 l 449 14 q 447 7 449 14 q 435 0 444 0 l 94 0 m 24 456 q 15 483 15 476 q 24 493 14 489 l 278 596 q 287 568 286 574 q 278 558 288 563 l 24 456 z "},"M":{"ha":708,"x_min":94,"x_max":614,"o":"m 335 179 l 250 456 q 229 520 250 456 q 181 670 208 585 q 133 820 154 756 q 113 885 113 885 l 124 972 l 297 407 q 311 362 297 407 q 339 272 325 317 q 353 226 353 226 q 367 270 353 226 q 394 358 381 314 q 407 401 407 401 l 581 958 l 590 875 q 570 812 590 875 q 524 665 550 749 q 478 519 499 582 q 458 456 458 456 l 371 193 q 356 179 367 179 l 335 179 m 94 0 l 94 958 q 99 969 94 965 q 108 972 103 972 l 124 972 l 128 953 l 128 876 q 128 818 128 876 q 128 683 128 760 q 128 547 128 606 q 128 489 128 489 l 128 14 q 124 1 128 3 q 94 0 119 0 m 581 0 l 581 475 q 581 539 581 475 q 581 687 581 603 q 581 835 581 771 q 581 899 581 899 l 581 915 l 581 958 q 583 965 581 958 q 594 972 586 972 q 611 972 608 972 q 614 972 614 972 l 614 14 q 610 1 614 3 q 581 0 606 0 z "},"N":{"ha":653,"x_min":94,"x_max":558,"o":"m 528 0 l 346 400 q 322 453 346 400 q 263 583 299 506 q 193 739 228 661 q 135 869 158 817 q 111 922 111 922 l 99 949 l 108 972 l 125 972 l 303 579 q 326 528 303 579 q 384 401 350 476 q 452 249 418 325 q 510 121 486 172 q 533 69 533 69 l 554 24 l 544 0 l 528 0 m 94 0 l 94 958 q 108 972 94 972 l 128 958 l 128 929 q 128 872 128 929 q 128 728 128 814 q 128 558 128 643 q 128 415 128 472 q 128 357 128 357 l 128 14 q 124 1 128 3 q 94 0 119 0 m 544 0 l 525 14 l 525 51 q 525 109 525 51 q 525 253 525 167 q 525 424 525 339 q 525 567 525 510 q 525 625 525 625 l 525 958 q 529 971 525 969 q 558 972 533 972 l 558 14 q 544 0 558 0 z "},"Ń":{"ha":653,"x_min":94,"x_max":558,"o":"m 528 0 l 346 400 q 322 453 346 400 q 263 583 299 506 q 193 739 228 661 q 135 869 158 817 q 111 922 111 922 l 99 949 l 108 972 l 125 972 l 303 579 q 326 528 303 579 q 384 401 350 476 q 452 249 418 325 q 510 121 486 172 q 533 69 533 69 l 554 24 l 544 0 l 528 0 m 94 0 l 94 958 q 108 972 94 972 l 128 958 l 128 929 q 128 872 128 929 q 128 728 128 814 q 128 558 128 643 q 128 415 128 472 q 128 357 128 357 l 128 14 q 124 1 128 3 q 94 0 119 0 m 544 0 l 525 14 l 525 51 q 525 109 525 51 q 525 253 525 167 q 525 424 525 339 q 525 567 525 510 q 525 625 525 625 l 525 958 q 529 971 525 969 q 558 972 533 972 l 558 14 q 544 0 558 0 m 235 1082 q 228 1093 235 1082 q 221 1104 221 1104 q 311 1184 267 1147 q 385 1244 356 1221 q 414 1267 414 1267 q 427 1251 422 1267 q 432 1235 432 1235 q 405 1212 432 1235 q 333 1154 378 1189 q 235 1082 288 1119 z "},"Ň":{"ha":653,"x_min":94,"x_max":558,"o":"m 528 0 l 346 400 q 322 453 346 400 q 263 583 299 506 q 193 739 228 661 q 135 869 158 817 q 111 922 111 922 l 99 949 l 108 972 l 125 972 l 303 579 q 326 528 303 579 q 384 401 350 476 q 452 249 418 325 q 510 121 486 172 q 533 69 533 69 l 554 24 l 544 0 l 528 0 m 94 0 l 94 958 q 108 972 94 972 l 128 958 l 128 929 q 128 872 128 929 q 128 728 128 814 q 128 558 128 643 q 128 415 128 472 q 128 357 128 357 l 128 14 q 124 1 128 3 q 94 0 119 0 m 544 0 l 525 14 l 525 51 q 525 109 525 51 q 525 253 525 167 q 525 424 525 339 q 525 567 525 510 q 525 625 525 625 l 525 958 q 529 971 525 969 q 558 972 533 972 l 558 14 q 544 0 558 0 m 338 1092 q 286 1132 328 1092 q 206 1213 244 1172 q 167 1253 167 1253 q 174 1263 167 1253 q 190 1272 181 1272 q 232 1236 196 1272 q 302 1163 268 1200 q 336 1126 336 1126 q 425 1230 381 1179 q 469 1281 469 1281 q 486 1258 486 1268 q 452 1212 486 1253 q 381 1131 418 1171 q 338 1092 344 1092 z "},"Ņ":{"ha":653,"x_min":94,"x_max":558,"o":"m 528 0 l 346 400 q 322 453 346 400 q 263 583 299 506 q 193 739 228 661 q 135 869 158 817 q 111 922 111 922 l 99 949 l 108 972 l 125 972 l 303 579 q 326 528 303 579 q 384 401 350 476 q 452 249 418 325 q 510 121 486 172 q 533 69 533 69 l 554 24 l 544 0 l 528 0 m 94 0 l 94 958 q 108 972 94 972 l 128 958 l 128 929 q 128 872 128 929 q 128 728 128 814 q 128 558 128 643 q 128 415 128 472 q 128 357 128 357 l 128 14 q 124 1 128 3 q 94 0 119 0 m 544 0 l 525 14 l 525 51 q 525 109 525 51 q 525 253 525 167 q 525 424 525 339 q 525 567 525 510 q 525 625 525 625 l 525 958 q 529 971 525 969 q 558 972 533 972 l 558 14 q 544 0 558 0 z "},"Ñ":{"ha":653,"x_min":94,"x_max":558,"o":"m 528 0 l 346 400 q 322 453 346 400 q 263 583 299 506 q 193 739 228 661 q 135 869 158 817 q 111 922 111 922 l 99 949 l 108 972 l 125 972 l 303 579 q 326 528 303 579 q 384 401 350 476 q 452 249 418 325 q 510 121 486 172 q 533 69 533 69 l 554 24 l 544 0 l 528 0 m 94 0 l 94 958 q 108 972 94 972 l 128 958 l 128 929 q 128 872 128 929 q 128 728 128 814 q 128 558 128 643 q 128 415 128 472 q 128 357 128 357 l 128 14 q 124 1 128 3 q 94 0 119 0 m 544 0 l 525 14 l 525 51 q 525 109 525 51 q 525 253 525 167 q 525 424 525 339 q 525 567 525 510 q 525 625 525 625 l 525 958 q 529 971 525 969 q 558 972 533 972 l 558 14 q 544 0 558 0 m 393 1103 q 328 1124 350 1103 q 291 1165 307 1144 q 251 1185 275 1185 q 188 1148 208 1185 q 157 1111 167 1111 q 142 1121 150 1111 q 135 1131 135 1131 q 195 1199 167 1183 q 260 1214 224 1214 q 310 1194 293 1214 q 344 1156 328 1175 q 393 1138 361 1138 q 469 1174 451 1138 q 497 1210 488 1210 q 513 1199 507 1210 q 518 1189 518 1189 q 494 1149 508 1169 q 456 1116 481 1129 q 393 1103 432 1103 z "},"O":{"ha":647,"x_min":67,"x_max":581,"o":"m 319 -14 q 175 33 231 -14 q 93 192 119 81 q 67 493 67 303 q 133 872 67 758 q 335 986 200 986 q 525 875 469 986 q 581 493 581 764 q 519 102 581 218 q 319 -14 457 -14 m 318 19 q 492 126 438 19 q 547 497 547 233 q 496 853 547 754 q 333 953 444 953 q 158 847 217 953 q 100 476 100 740 q 152 122 100 225 q 318 19 204 19 z "},"Ó":{"ha":647,"x_min":67,"x_max":581,"o":"m 319 -14 q 175 33 231 -14 q 93 192 119 81 q 67 493 67 303 q 133 872 67 758 q 335 986 200 986 q 525 875 469 986 q 581 493 581 764 q 519 102 581 218 q 319 -14 457 -14 m 318 19 q 492 126 438 19 q 547 497 547 233 q 496 853 547 754 q 333 953 444 953 q 158 847 217 953 q 100 476 100 740 q 152 122 100 225 q 318 19 204 19 m 232 1082 q 225 1093 232 1082 q 218 1104 218 1104 q 308 1184 264 1147 q 382 1244 353 1221 q 411 1267 411 1267 q 424 1251 419 1267 q 429 1235 429 1235 q 402 1212 429 1235 q 330 1154 375 1189 q 232 1082 285 1119 z "},"Ô":{"ha":647,"x_min":67,"x_max":581,"o":"m 319 -14 q 175 33 231 -14 q 93 192 119 81 q 67 493 67 303 q 133 872 67 758 q 335 986 200 986 q 525 875 469 986 q 581 493 581 764 q 519 102 581 218 q 319 -14 457 -14 m 318 19 q 492 126 438 19 q 547 497 547 233 q 496 853 547 754 q 333 953 444 953 q 158 847 217 953 q 100 476 100 740 q 152 122 100 225 q 318 19 204 19 m 451 1083 q 420 1117 451 1083 q 358 1183 389 1150 q 328 1215 328 1215 q 296 1183 328 1215 q 230 1117 264 1150 q 192 1085 196 1085 q 172 1094 178 1085 q 165 1103 165 1103 l 318 1246 q 329 1249 321 1249 q 349 1239 339 1249 q 382 1206 349 1239 q 449 1139 415 1172 q 482 1106 482 1106 q 473 1094 482 1106 q 451 1083 464 1083 z "},"Ố":{"ha":647,"x_min":67,"x_max":686,"o":"m 319 -14 q 175 33 231 -14 q 93 192 119 81 q 67 493 67 303 q 133 872 67 758 q 335 986 200 986 q 525 875 469 986 q 581 493 581 764 q 519 102 581 218 q 319 -14 457 -14 m 318 19 q 492 126 438 19 q 547 497 547 233 q 496 853 547 754 q 333 953 444 953 q 158 847 217 953 q 100 476 100 740 q 152 122 100 225 q 318 19 204 19 z "},"Ộ":{"ha":647,"x_min":67,"x_max":581,"o":"m 319 -14 q 175 33 231 -14 q 93 192 119 81 q 67 493 67 303 q 133 872 67 758 q 335 986 200 986 q 525 875 469 986 q 581 493 581 764 q 519 102 581 218 q 319 -14 457 -14 m 318 19 q 492 126 438 19 q 547 497 547 233 q 496 853 547 754 q 333 953 444 953 q 158 847 217 953 q 100 476 100 740 q 152 122 100 225 q 318 19 204 19 m 451 1083 q 420 1117 451 1083 q 358 1183 389 1150 q 328 1215 328 1215 q 296 1183 328 1215 q 230 1117 264 1150 q 192 1085 196 1085 q 172 1094 178 1085 q 165 1103 165 1103 l 318 1246 q 329 1249 321 1249 q 349 1239 339 1249 q 382 1206 349 1239 q 449 1139 415 1172 q 482 1106 482 1106 q 473 1094 482 1106 q 451 1083 464 1083 z "},"Ồ":{"ha":647,"x_min":67,"x_max":581,"o":"m 319 -14 q 175 33 231 -14 q 93 192 119 81 q 67 493 67 303 q 133 872 67 758 q 335 986 200 986 q 525 875 469 986 q 581 493 581 764 q 519 102 581 218 q 319 -14 457 -14 m 318 19 q 492 126 438 19 q 547 497 547 233 q 496 853 547 754 q 333 953 444 953 q 158 847 217 953 q 100 476 100 740 q 152 122 100 225 q 318 19 204 19 z "},"Ổ":{"ha":647,"x_min":67,"x_max":581,"o":"m 319 -14 q 175 33 231 -14 q 93 192 119 81 q 67 493 67 303 q 133 872 67 758 q 335 986 200 986 q 525 875 469 986 q 581 493 581 764 q 519 102 581 218 q 319 -14 457 -14 m 318 19 q 492 126 438 19 q 547 497 547 233 q 496 853 547 754 q 333 953 444 953 q 158 847 217 953 q 100 476 100 740 q 152 122 100 225 q 318 19 204 19 z "},"Ỗ":{"ha":647,"x_min":67,"x_max":581,"o":"m 319 -14 q 175 33 231 -14 q 93 192 119 81 q 67 493 67 303 q 133 872 67 758 q 335 986 200 986 q 525 875 469 986 q 581 493 581 764 q 519 102 581 218 q 319 -14 457 -14 m 318 19 q 492 126 438 19 q 547 497 547 233 q 496 853 547 754 q 333 953 444 953 q 158 847 217 953 q 100 476 100 740 q 152 122 100 225 q 318 19 204 19 z "},"Ö":{"ha":647,"x_min":67,"x_max":581,"o":"m 319 -14 q 175 33 231 -14 q 93 192 119 81 q 67 493 67 303 q 133 872 67 758 q 335 986 200 986 q 525 875 469 986 q 581 493 581 764 q 519 102 581 218 q 319 -14 457 -14 m 318 19 q 492 126 438 19 q 547 497 547 233 q 496 853 547 754 q 333 953 444 953 q 158 847 217 953 q 100 476 100 740 q 152 122 100 225 q 318 19 204 19 m 253 1131 q 233 1142 239 1132 q 229 1169 228 1151 q 256 1208 231 1208 q 276 1197 269 1208 q 281 1167 282 1186 q 253 1131 278 1131 m 392 1131 q 372 1142 378 1132 q 368 1169 367 1151 q 394 1208 369 1208 q 415 1197 408 1208 q 419 1167 421 1186 q 392 1131 417 1131 z "},"Ọ":{"ha":647,"x_min":67,"x_max":581,"o":"m 319 -14 q 175 33 231 -14 q 93 192 119 81 q 67 493 67 303 q 133 872 67 758 q 335 986 200 986 q 525 875 469 986 q 581 493 581 764 q 519 102 581 218 q 319 -14 457 -14 m 318 19 q 492 126 438 19 q 547 497 547 233 q 496 853 547 754 q 333 953 444 953 q 158 847 217 953 q 100 476 100 740 q 152 122 100 225 q 318 19 204 19 z "},"Ò":{"ha":647,"x_min":67,"x_max":581,"o":"m 319 -14 q 175 33 231 -14 q 93 192 119 81 q 67 493 67 303 q 133 872 67 758 q 335 986 200 986 q 525 875 469 986 q 581 493 581 764 q 519 102 581 218 q 319 -14 457 -14 m 318 19 q 492 126 438 19 q 547 497 547 233 q 496 853 547 754 q 333 953 444 953 q 158 847 217 953 q 100 476 100 740 q 152 122 100 225 q 318 19 204 19 m 415 1082 q 317 1154 363 1119 q 245 1212 272 1189 q 218 1235 218 1235 q 223 1251 218 1235 q 236 1267 228 1267 q 265 1244 236 1267 q 339 1184 294 1221 q 429 1104 383 1147 q 422 1093 429 1104 q 415 1082 415 1082 z "},"Ỏ":{"ha":647,"x_min":67,"x_max":581,"o":"m 319 -14 q 175 33 231 -14 q 93 192 119 81 q 67 493 67 303 q 133 872 67 758 q 335 986 200 986 q 525 875 469 986 q 581 493 581 764 q 519 102 581 218 q 319 -14 457 -14 m 318 19 q 492 126 438 19 q 547 497 547 233 q 496 853 547 754 q 333 953 444 953 q 158 847 217 953 q 100 476 100 740 q 152 122 100 225 q 318 19 204 19 m 301 1049 q 300 1060 301 1049 q 304 1083 299 1071 q 338 1114 317 1107 q 358 1158 358 1121 q 336 1208 358 1200 q 303 1217 314 1217 q 249 1200 271 1217 q 249 1215 249 1200 q 249 1233 249 1229 q 301 1253 249 1253 q 371 1232 344 1253 q 397 1158 397 1211 q 374 1103 397 1119 q 338 1078 350 1088 q 329 1061 331 1072 q 328 1050 328 1050 q 315 1047 326 1047 q 301 1049 304 1047 z "},"Ơ":{"ha":647,"x_min":67,"x_max":581,"o":"m 319 -14 q 175 33 231 -14 q 93 192 119 81 q 67 493 67 303 q 133 872 67 758 q 335 986 200 986 q 525 875 469 986 q 581 493 581 764 q 519 102 581 218 q 319 -14 457 -14 m 318 19 q 492 126 438 19 q 547 497 547 233 q 496 853 547 754 q 333 953 444 953 q 158 847 217 953 q 100 476 100 740 q 152 122 100 225 q 318 19 204 19 m 418 938 l 419 971 q 495 997 478 971 q 513 1064 513 1022 q 521 1076 513 1074 q 538 1073 529 1078 q 547 1058 547 1068 q 538 1001 549 1028 q 497 956 526 974 q 418 938 468 938 z "},"Ớ":{"ha":647,"x_min":67,"x_max":581,"o":"m 319 -14 q 175 33 231 -14 q 93 192 119 81 q 67 493 67 303 q 133 872 67 758 q 335 986 200 986 q 525 875 469 986 q 581 493 581 764 q 519 102 581 218 q 319 -14 457 -14 m 318 19 q 492 126 438 19 q 547 497 547 233 q 496 853 547 754 q 333 953 444 953 q 158 847 217 953 q 100 476 100 740 q 152 122 100 225 q 318 19 204 19 m 418 938 l 419 971 q 495 997 478 971 q 513 1064 513 1022 q 521 1076 513 1074 q 538 1073 529 1078 q 547 1058 547 1068 q 538 1001 549 1028 q 497 956 526 974 q 418 938 468 938 z "},"Ợ":{"ha":647,"x_min":67,"x_max":581,"o":"m 319 -14 q 175 33 231 -14 q 93 192 119 81 q 67 493 67 303 q 133 872 67 758 q 335 986 200 986 q 525 875 469 986 q 581 493 581 764 q 519 102 581 218 q 319 -14 457 -14 m 318 19 q 492 126 438 19 q 547 497 547 233 q 496 853 547 754 q 333 953 444 953 q 158 847 217 953 q 100 476 100 740 q 152 122 100 225 q 318 19 204 19 m 418 938 l 419 971 q 495 997 478 971 q 513 1064 513 1022 q 521 1076 513 1074 q 538 1073 529 1078 q 547 1058 547 1068 q 538 1001 549 1028 q 497 956 526 974 q 418 938 468 938 z "},"Ờ":{"ha":647,"x_min":67,"x_max":581,"o":"m 319 -14 q 175 33 231 -14 q 93 192 119 81 q 67 493 67 303 q 133 872 67 758 q 335 986 200 986 q 525 875 469 986 q 581 493 581 764 q 519 102 581 218 q 319 -14 457 -14 m 318 19 q 492 126 438 19 q 547 497 547 233 q 496 853 547 754 q 333 953 444 953 q 158 847 217 953 q 100 476 100 740 q 152 122 100 225 q 318 19 204 19 m 418 938 l 419 971 q 495 997 478 971 q 513 1064 513 1022 q 521 1076 513 1074 q 538 1073 529 1078 q 547 1058 547 1068 q 538 1001 549 1028 q 497 956 526 974 q 418 938 468 938 z "},"Ở":{"ha":647,"x_min":67,"x_max":581,"o":"m 319 -14 q 175 33 231 -14 q 93 192 119 81 q 67 493 67 303 q 133 872 67 758 q 335 986 200 986 q 525 875 469 986 q 581 493 581 764 q 519 102 581 218 q 319 -14 457 -14 m 318 19 q 492 126 438 19 q 547 497 547 233 q 496 853 547 754 q 333 953 444 953 q 158 847 217 953 q 100 476 100 740 q 152 122 100 225 q 318 19 204 19 m 418 938 l 419 971 q 495 997 478 971 q 513 1064 513 1022 q 521 1076 513 1074 q 538 1073 529 1078 q 547 1058 547 1068 q 538 1001 549 1028 q 497 956 526 974 q 418 938 468 938 m 301 1049 q 300 1060 301 1049 q 304 1083 299 1071 q 338 1114 317 1107 q 358 1158 358 1121 q 336 1208 358 1200 q 303 1217 314 1217 q 249 1200 271 1217 q 249 1215 249 1200 q 249 1233 249 1229 q 301 1253 249 1253 q 371 1232 344 1253 q 397 1158 397 1211 q 374 1103 397 1119 q 338 1078 350 1088 q 329 1061 331 1072 q 328 1050 328 1050 q 315 1047 326 1047 q 301 1049 304 1047 z "},"Ỡ":{"ha":647,"x_min":67,"x_max":581,"o":"m 319 -14 q 175 33 231 -14 q 93 192 119 81 q 67 493 67 303 q 133 872 67 758 q 335 986 200 986 q 525 875 469 986 q 581 493 581 764 q 519 102 581 218 q 319 -14 457 -14 m 318 19 q 492 126 438 19 q 547 497 547 233 q 496 853 547 754 q 333 953 444 953 q 158 847 217 953 q 100 476 100 740 q 152 122 100 225 q 318 19 204 19 m 418 938 l 419 971 q 495 997 478 971 q 513 1064 513 1022 q 521 1076 513 1074 q 538 1073 529 1078 q 547 1058 547 1068 q 538 1001 549 1028 q 497 956 526 974 q 418 938 468 938 m 390 1103 q 326 1124 347 1103 q 288 1165 304 1144 q 249 1185 272 1185 q 185 1148 206 1185 q 154 1111 164 1111 q 140 1121 147 1111 q 132 1131 132 1131 q 192 1199 164 1183 q 257 1214 221 1214 q 308 1194 290 1214 q 342 1156 325 1175 q 390 1138 358 1138 q 467 1174 449 1138 q 494 1210 485 1210 q 510 1199 504 1210 q 515 1189 515 1189 q 492 1149 506 1169 q 453 1116 478 1129 q 390 1103 429 1103 z "},"Ő":{"ha":647,"x_min":67,"x_max":581,"o":"m 319 -14 q 175 33 231 -14 q 93 192 119 81 q 67 493 67 303 q 133 872 67 758 q 335 986 200 986 q 525 875 469 986 q 581 493 581 764 q 519 102 581 218 q 319 -14 457 -14 m 318 19 q 492 126 438 19 q 547 497 547 233 q 496 853 547 754 q 333 953 444 953 q 158 847 217 953 q 100 476 100 740 q 152 122 100 225 q 318 19 204 19 m 225 1079 q 216 1088 225 1079 q 207 1097 207 1097 q 270 1185 239 1144 q 323 1252 301 1226 q 344 1278 344 1278 q 360 1266 353 1281 q 368 1251 368 1251 q 349 1226 368 1251 q 297 1162 329 1201 q 225 1079 264 1122 m 364 1079 q 355 1088 364 1079 q 346 1097 346 1097 q 409 1185 378 1144 q 462 1252 440 1226 q 483 1278 483 1278 q 499 1266 492 1281 q 507 1251 507 1251 q 488 1226 507 1251 q 435 1162 468 1201 q 364 1079 403 1122 z "},"Ō":{"ha":647,"x_min":67,"x_max":581,"o":"m 319 -14 q 175 33 231 -14 q 93 192 119 81 q 67 493 67 303 q 133 872 67 758 q 335 986 200 986 q 525 875 469 986 q 581 493 581 764 q 519 102 581 218 q 319 -14 457 -14 m 318 19 q 492 126 438 19 q 547 497 547 233 q 496 853 547 754 q 333 953 444 953 q 158 847 217 953 q 100 476 100 740 q 152 122 100 225 q 318 19 204 19 m 157 1143 q 156 1153 156 1149 q 156 1161 156 1157 q 171 1178 158 1178 l 490 1178 q 492 1160 492 1171 q 487 1147 490 1151 q 476 1143 483 1143 l 157 1143 z "},"Ø":{"ha":647,"x_min":67,"x_max":581,"o":"m 332 986 q 524 875 467 986 q 581 493 581 764 q 519 102 581 218 q 319 -14 457 -14 q 175 33 231 -14 q 93 192 119 81 q 67 493 67 303 q 132 872 67 758 q 332 986 197 986 m 333 953 q 158 847 217 953 q 100 476 100 740 q 152 122 100 225 q 318 19 204 19 q 448 65 397 19 q 523 216 499 111 q 547 497 547 321 q 496 853 547 754 q 333 953 444 953 m 140 83 q 152 82 140 83 q 167 69 164 81 q 157 46 167 69 q 138 -1 147 22 q 128 -24 128 -24 q 115 -23 128 -24 q 101 -10 103 -22 q 111 13 101 -10 q 131 60 121 36 q 140 83 140 83 m 144 83 l 476 911 q 488 910 476 911 q 503 897 500 908 q 478 838 503 897 q 417 683 454 778 q 337 483 379 589 q 257 283 294 378 q 195 129 219 189 q 171 69 171 69 q 159 70 171 69 q 144 83 147 71 m 506 894 q 499 894 506 894 q 487 897 493 894 q 479 908 481 900 q 488 931 479 908 q 506 976 497 953 q 515 999 515 999 q 527 997 515 999 q 542 985 539 994 q 536 971 542 985 q 524 940 531 957 q 511 908 517 922 q 506 894 506 894 z "},"Õ":{"ha":647,"x_min":67,"x_max":581,"o":"m 319 -14 q 175 33 231 -14 q 93 192 119 81 q 67 493 67 303 q 133 872 67 758 q 335 986 200 986 q 525 875 469 986 q 581 493 581 764 q 519 102 581 218 q 319 -14 457 -14 m 318 19 q 492 126 438 19 q 547 497 547 233 q 496 853 547 754 q 333 953 444 953 q 158 847 217 953 q 100 476 100 740 q 152 122 100 225 q 318 19 204 19 m 390 1103 q 326 1124 347 1103 q 288 1165 304 1144 q 249 1185 272 1185 q 185 1148 206 1185 q 154 1111 164 1111 q 140 1121 147 1111 q 132 1131 132 1131 q 192 1199 164 1183 q 257 1214 221 1214 q 308 1194 290 1214 q 342 1156 325 1175 q 390 1138 358 1138 q 467 1174 449 1138 q 494 1210 485 1210 q 510 1199 504 1210 q 515 1189 515 1189 q 492 1149 506 1169 q 453 1116 478 1129 q 390 1103 429 1103 z "},"Œ":{"ha":931,"x_min":67,"x_max":882,"o":"m 319 -14 q 175 33 231 -14 q 93 192 119 81 q 67 493 67 303 q 132 872 67 758 q 332 986 197 986 q 517 875 467 986 q 567 493 567 764 q 512 102 567 218 q 319 -14 457 -14 m 318 19 q 485 126 438 19 q 533 497 533 233 q 489 853 533 754 q 333 953 444 953 q 158 847 217 953 q 100 476 100 740 q 152 122 100 225 q 318 19 204 19 m 533 0 l 533 958 q 535 965 533 958 q 547 972 536 972 l 879 972 q 878 945 879 951 q 871 939 878 939 l 567 939 l 567 33 l 882 33 q 881 6 882 11 q 871 0 879 0 l 533 0 m 556 517 l 556 550 l 851 550 q 850 523 851 529 q 840 517 849 517 l 556 517 z "},"P":{"ha":529,"x_min":94,"x_max":488,"o":"m 119 431 q 106 435 101 431 q 111 446 111 440 l 111 950 q 111 966 111 960 q 113 972 111 972 l 260 972 q 440 894 392 972 q 488 719 488 815 q 460 561 488 625 q 378 464 432 497 q 249 431 325 431 l 119 431 m 94 0 l 94 958 q 108 972 94 972 l 114 972 q 126 965 125 972 q 128 958 128 958 l 128 14 q 124 1 128 3 q 94 0 119 0 m 119 464 l 247 464 q 404 535 354 464 q 454 719 454 606 q 413 873 454 807 q 253 939 371 939 l 119 939 l 119 464 z "},"Þ":{"ha":529,"x_min":94,"x_max":488,"o":"m 94 0 l 94 961 q 101 971 94 969 q 118 972 108 972 l 128 972 l 128 776 l 260 776 q 440 698 392 776 q 488 524 488 619 q 460 366 488 431 q 378 268 432 301 q 249 235 325 235 l 128 235 l 128 14 q 124 1 128 3 q 94 0 119 0 m 247 268 q 404 338 354 268 q 454 524 454 408 q 413 677 454 611 q 253 743 371 743 q 190 743 222 743 q 128 743 158 743 l 128 268 q 188 268 158 268 q 247 268 217 268 z "},"Q":{"ha":647,"x_min":67,"x_max":581,"o":"m 443 -179 q 360 -138 390 -179 q 313 1 329 -97 l 347 1 q 385 -119 363 -89 q 447 -149 408 -149 q 503 -142 481 -149 q 540 -125 525 -136 q 547 -135 544 -129 q 549 -146 549 -140 q 517 -169 549 -158 q 443 -179 485 -179 m 319 -14 q 175 33 231 -14 q 93 192 119 81 q 67 493 67 303 q 133 872 67 758 q 335 986 200 986 q 525 875 469 986 q 581 493 581 764 q 519 102 581 218 q 319 -14 457 -14 m 318 19 q 492 126 438 19 q 547 497 547 233 q 496 853 547 754 q 333 953 444 953 q 158 847 217 953 q 100 476 100 740 q 152 122 100 225 q 318 19 204 19 z "},"R":{"ha":535,"x_min":94,"x_max":488,"o":"m 119 431 q 106 435 101 431 q 111 446 111 440 l 111 950 q 111 966 111 960 q 113 972 111 972 l 260 972 q 440 894 392 972 q 488 719 488 815 q 460 561 488 625 q 378 464 432 497 q 249 431 325 431 l 119 431 m 94 0 l 94 958 q 96 965 94 958 q 108 972 97 972 l 114 972 q 126 965 125 972 q 128 958 128 958 l 128 14 q 124 1 128 3 q 94 0 119 0 m 458 0 q 451 0 456 0 q 440 0 447 0 q 379 251 418 154 q 309 392 340 347 q 278 436 278 436 q 276 442 278 436 q 283 453 275 449 l 294 458 q 308 451 303 458 q 342 400 308 451 q 416 251 376 349 q 472 17 456 154 q 471 4 474 7 q 458 0 468 1 m 119 464 l 247 464 q 404 535 354 464 q 454 719 454 606 q 413 873 454 807 q 253 939 371 939 l 119 939 l 119 464 z "},"Ŕ":{"ha":535,"x_min":94,"x_max":488,"o":"m 119 431 q 106 435 101 431 q 111 446 111 440 l 111 950 q 111 966 111 960 q 113 972 111 972 l 260 972 q 440 894 392 972 q 488 719 488 815 q 460 561 488 625 q 378 464 432 497 q 249 431 325 431 l 119 431 m 94 0 l 94 958 q 96 965 94 958 q 108 972 97 972 l 114 972 q 126 965 125 972 q 128 958 128 958 l 128 14 q 124 1 128 3 q 94 0 119 0 m 458 0 q 451 0 456 0 q 440 0 447 0 q 379 251 418 154 q 309 392 340 347 q 278 436 278 436 q 276 442 278 436 q 283 453 275 449 l 294 458 q 308 451 303 458 q 342 400 308 451 q 416 251 376 349 q 472 17 456 154 q 471 4 474 7 q 458 0 468 1 m 119 464 l 247 464 q 404 535 354 464 q 454 719 454 606 q 413 873 454 807 q 253 939 371 939 l 119 939 l 119 464 m 149 1082 q 142 1093 149 1082 q 135 1104 135 1104 q 225 1184 181 1147 q 299 1244 269 1221 q 328 1267 328 1267 q 341 1251 336 1267 q 346 1235 346 1235 q 319 1212 346 1235 q 247 1154 292 1189 q 149 1082 201 1119 z "},"Ř":{"ha":535,"x_min":81,"x_max":488,"o":"m 119 431 q 106 435 101 431 q 111 446 111 440 l 111 950 q 111 966 111 960 q 113 972 111 972 l 260 972 q 440 894 392 972 q 488 719 488 815 q 460 561 488 625 q 378 464 432 497 q 249 431 325 431 l 119 431 m 94 0 l 94 958 q 96 965 94 958 q 108 972 97 972 l 114 972 q 126 965 125 972 q 128 958 128 958 l 128 14 q 124 1 128 3 q 94 0 119 0 m 458 0 q 451 0 456 0 q 440 0 447 0 q 379 251 418 154 q 309 392 340 347 q 278 436 278 436 q 276 442 278 436 q 283 453 275 449 l 294 458 q 308 451 303 458 q 342 400 308 451 q 416 251 376 349 q 472 17 456 154 q 471 4 474 7 q 458 0 468 1 m 119 464 l 247 464 q 404 535 354 464 q 454 719 454 606 q 413 873 454 807 q 253 939 371 939 l 119 939 l 119 464 m 251 1092 q 200 1132 242 1092 q 119 1213 158 1172 q 81 1253 81 1253 q 88 1263 81 1253 q 104 1272 94 1272 q 146 1236 110 1272 q 216 1163 182 1200 q 250 1126 250 1126 q 339 1230 294 1179 q 383 1281 383 1281 q 400 1258 400 1268 q 366 1212 400 1253 q 295 1131 332 1171 q 251 1092 258 1092 z "},"Ŗ":{"ha":535,"x_min":94,"x_max":488,"o":"m 119 431 q 106 435 101 431 q 111 446 111 440 l 111 950 q 111 966 111 960 q 113 972 111 972 l 260 972 q 440 894 392 972 q 488 719 488 815 q 460 561 488 625 q 378 464 432 497 q 249 431 325 431 l 119 431 m 94 0 l 94 958 q 96 965 94 958 q 108 972 97 972 l 114 972 q 126 965 125 972 q 128 958 128 958 l 128 14 q 124 1 128 3 q 94 0 119 0 m 458 0 q 451 0 456 0 q 440 0 447 0 q 379 251 418 154 q 309 392 340 347 q 278 436 278 436 q 276 442 278 436 q 283 453 275 449 l 294 458 q 308 451 303 458 q 342 400 308 451 q 416 251 376 349 q 472 17 456 154 q 471 4 474 7 q 458 0 468 1 m 119 464 l 247 464 q 404 535 354 464 q 454 719 454 606 q 413 873 454 807 q 253 939 371 939 l 119 939 l 119 464 z "},"S":{"ha":532,"x_min":58,"x_max":479,"o":"m 242 -14 q 101 11 144 -14 q 58 50 58 36 q 63 63 58 57 q 75 72 67 69 q 135 35 97 51 q 244 19 172 19 q 398 76 350 19 q 446 224 446 133 q 420 349 446 294 q 331 468 394 403 l 168 618 q 92 710 121 665 q 64 811 64 756 q 124 937 64 888 q 289 986 183 986 q 416 967 375 986 q 457 933 457 949 q 444 910 457 919 q 385 940 425 925 q 281 954 344 954 q 148 915 199 954 q 97 813 97 875 q 124 725 97 764 q 188 649 150 686 l 369 478 q 456 360 432 415 q 479 231 479 304 q 422 53 479 121 q 242 -14 364 -14 z "},"Ś":{"ha":532,"x_min":58,"x_max":479,"o":"m 242 -14 q 101 11 144 -14 q 58 50 58 36 q 63 63 58 57 q 75 72 67 69 q 135 35 97 51 q 244 19 172 19 q 398 76 350 19 q 446 224 446 133 q 420 349 446 294 q 331 468 394 403 l 168 618 q 92 710 121 665 q 64 811 64 756 q 124 937 64 888 q 289 986 183 986 q 416 967 375 986 q 457 933 457 949 q 444 910 457 919 q 385 940 425 925 q 281 954 344 954 q 148 915 199 954 q 97 813 97 875 q 124 725 97 764 q 188 649 150 686 l 369 478 q 456 360 432 415 q 479 231 479 304 q 422 53 479 121 q 242 -14 364 -14 m 175 1082 q 168 1093 175 1082 q 161 1104 161 1104 q 251 1184 207 1147 q 325 1244 296 1221 q 354 1267 354 1267 q 367 1251 363 1267 q 372 1235 372 1235 q 345 1212 372 1235 q 273 1154 318 1189 q 175 1082 228 1119 z "},"Š":{"ha":532,"x_min":58,"x_max":479,"o":"m 242 -14 q 101 11 144 -14 q 58 50 58 36 q 63 63 58 57 q 75 72 67 69 q 135 35 97 51 q 244 19 172 19 q 398 76 350 19 q 446 224 446 133 q 420 349 446 294 q 331 468 394 403 l 168 618 q 92 710 121 665 q 64 811 64 756 q 124 937 64 888 q 289 986 183 986 q 416 967 375 986 q 457 933 457 949 q 444 910 457 919 q 385 940 425 925 q 281 954 344 954 q 148 915 199 954 q 97 813 97 875 q 124 725 97 764 q 188 649 150 686 l 369 478 q 456 360 432 415 q 479 231 479 304 q 422 53 479 121 q 242 -14 364 -14 m 278 1092 q 226 1132 268 1092 q 146 1213 185 1172 q 107 1253 107 1253 q 114 1263 107 1253 q 131 1272 121 1272 q 172 1236 136 1272 q 242 1163 208 1200 q 276 1126 276 1126 q 365 1230 321 1179 q 410 1281 410 1281 q 426 1258 426 1268 q 392 1212 426 1253 q 322 1131 358 1171 q 278 1092 285 1092 z "},"Ş":{"ha":532,"x_min":58,"x_max":479,"o":"m 242 -14 q 101 11 144 -14 q 58 50 58 36 q 63 63 58 57 q 75 72 67 69 q 135 35 97 51 q 244 19 172 19 q 398 76 350 19 q 446 224 446 133 q 420 349 446 294 q 331 468 394 403 l 168 618 q 92 710 121 665 q 64 811 64 756 q 124 937 64 888 q 289 986 183 986 q 416 967 375 986 q 457 933 457 949 q 444 910 457 919 q 385 940 425 925 q 281 954 344 954 q 148 915 199 954 q 97 813 97 875 q 124 725 97 764 q 188 649 150 686 l 369 478 q 456 360 432 415 q 479 231 479 304 q 422 53 479 121 q 242 -14 364 -14 m 271 -246 q 224 -242 244 -246 q 203 -237 203 -237 q 204 -224 203 -237 q 213 -206 206 -211 q 235 -207 219 -200 q 271 -214 251 -214 q 307 -203 290 -214 q 324 -161 324 -192 q 308 -119 324 -128 q 272 -111 292 -111 q 240 -115 256 -111 q 224 -118 224 -118 l 250 4 l 285 4 l 265 -85 q 272 -83 265 -85 q 292 -82 279 -82 q 335 -98 314 -82 q 357 -153 357 -114 q 327 -228 357 -211 q 271 -246 297 -246 z "},"Ș":{"ha":532,"x_min":58,"x_max":479,"o":"m 242 -14 q 101 11 144 -14 q 58 50 58 36 q 63 63 58 57 q 75 72 67 69 q 135 35 97 51 q 244 19 172 19 q 398 76 350 19 q 446 224 446 133 q 420 349 446 294 q 331 468 394 403 l 168 618 q 92 710 121 665 q 64 811 64 756 q 124 937 64 888 q 289 986 183 986 q 416 967 375 986 q 457 933 457 949 q 444 910 457 919 q 385 940 425 925 q 281 954 344 954 q 148 915 199 954 q 97 813 97 875 q 124 725 97 764 q 188 649 150 686 l 369 478 q 456 360 432 415 q 479 231 479 304 q 422 53 479 121 q 242 -14 364 -14 z "},"T":{"ha":500,"x_min":7,"x_max":493,"o":"m 231 0 l 231 949 q 232 956 231 949 q 244 963 233 963 l 250 963 q 263 956 261 963 q 264 949 264 949 l 264 13 q 260 1 264 3 q 231 0 256 0 m 7 939 l 7 958 q 21 972 7 972 l 493 972 l 493 953 q 479 939 493 939 l 7 939 z "},"Ť":{"ha":500,"x_min":7,"x_max":493,"o":"m 231 0 l 231 949 q 232 956 231 949 q 244 963 233 963 l 250 963 q 263 956 261 963 q 264 949 264 949 l 264 13 q 260 1 264 3 q 231 0 256 0 m 7 939 l 7 958 q 21 972 7 972 l 493 972 l 493 953 q 479 939 493 939 l 7 939 m 261 1092 q 210 1132 251 1092 q 129 1213 168 1172 q 90 1253 90 1253 q 97 1263 90 1253 q 114 1272 104 1272 q 156 1236 119 1272 q 226 1163 192 1200 q 260 1126 260 1126 q 349 1230 304 1179 q 393 1281 393 1281 q 410 1258 410 1268 q 376 1212 410 1253 q 305 1131 342 1171 q 261 1092 268 1092 z "},"Ţ":{"ha":500,"x_min":7,"x_max":493,"o":"m 231 0 l 231 949 q 232 956 231 949 q 244 963 233 963 l 250 963 q 263 956 261 963 q 264 949 264 949 l 264 13 q 260 1 264 3 q 231 0 256 0 m 7 939 l 7 958 q 21 972 7 972 l 493 972 l 493 953 q 479 939 493 939 l 7 939 m 251 -246 q 204 -242 225 -246 q 183 -237 183 -237 q 185 -224 183 -237 q 193 -206 186 -211 q 216 -207 200 -200 q 251 -214 232 -214 q 288 -203 271 -214 q 304 -161 304 -192 q 288 -119 304 -128 q 253 -111 272 -111 q 220 -115 236 -111 q 204 -118 204 -118 l 231 4 l 265 4 l 246 -85 q 253 -83 246 -85 q 272 -82 260 -82 q 316 -98 294 -82 q 338 -153 338 -114 q 308 -228 338 -211 q 251 -246 278 -246 z "},"Ț":{"ha":500,"x_min":7,"x_max":493,"o":"m 231 0 l 231 949 q 232 956 231 949 q 244 963 233 963 l 250 963 q 263 956 261 963 q 264 949 264 949 l 264 13 q 260 1 264 3 q 231 0 256 0 m 7 939 l 7 958 q 21 972 7 972 l 493 972 l 493 953 q 479 939 493 939 l 7 939 z "},"U":{"ha":672,"x_min":94,"x_max":578,"o":"m 347 -14 q 177 32 231 -14 q 109 153 124 78 q 94 315 94 228 l 94 958 q 99 971 94 969 q 128 972 103 972 l 128 315 q 141 172 128 239 q 201 62 154 104 q 347 19 247 19 q 463 32 407 19 q 544 57 519 44 l 544 960 q 550 971 544 969 q 578 972 556 972 l 578 32 q 483 0 550 14 q 347 -14 417 -14 z "},"Ú":{"ha":672,"x_min":94,"x_max":578,"o":"m 347 -14 q 177 32 231 -14 q 109 153 124 78 q 94 315 94 228 l 94 958 q 99 971 94 969 q 128 972 103 972 l 128 315 q 141 172 128 239 q 201 62 154 104 q 347 19 247 19 q 463 32 407 19 q 544 57 519 44 l 544 960 q 550 971 544 969 q 578 972 556 972 l 578 32 q 483 0 550 14 q 347 -14 417 -14 m 244 1082 q 238 1093 244 1082 q 231 1104 231 1104 q 321 1184 276 1147 q 394 1244 365 1221 q 424 1267 424 1267 q 437 1251 432 1267 q 442 1235 442 1235 q 415 1212 442 1235 q 342 1154 388 1189 q 244 1082 297 1119 z "},"Û":{"ha":672,"x_min":94,"x_max":578,"o":"m 347 -14 q 177 32 231 -14 q 109 153 124 78 q 94 315 94 228 l 94 958 q 99 971 94 969 q 128 972 103 972 l 128 315 q 141 172 128 239 q 201 62 154 104 q 347 19 247 19 q 463 32 407 19 q 544 57 519 44 l 544 960 q 550 971 544 969 q 578 972 556 972 l 578 32 q 483 0 550 14 q 347 -14 417 -14 m 464 1083 q 433 1117 464 1083 q 371 1183 401 1150 q 340 1215 340 1215 q 308 1183 340 1215 q 242 1117 276 1150 q 204 1085 208 1085 q 184 1094 190 1085 q 178 1103 178 1103 l 331 1246 q 342 1249 333 1249 q 361 1239 351 1249 q 394 1206 361 1239 q 461 1139 428 1172 q 494 1106 494 1106 q 485 1094 494 1106 q 464 1083 476 1083 z "},"Ü":{"ha":672,"x_min":94,"x_max":578,"o":"m 347 -14 q 177 32 231 -14 q 109 153 124 78 q 94 315 94 228 l 94 958 q 99 971 94 969 q 128 972 103 972 l 128 315 q 141 172 128 239 q 201 62 154 104 q 347 19 247 19 q 463 32 407 19 q 544 57 519 44 l 544 960 q 550 971 544 969 q 578 972 556 972 l 578 32 q 483 0 550 14 q 347 -14 417 -14 m 265 1131 q 246 1142 251 1132 q 242 1169 240 1151 q 268 1208 243 1208 q 288 1197 282 1208 q 293 1167 294 1186 q 265 1131 290 1131 m 404 1131 q 385 1142 390 1132 q 381 1169 379 1151 q 407 1208 382 1208 q 427 1197 421 1208 q 432 1167 433 1186 q 404 1131 429 1131 z "},"Ụ":{"ha":672,"x_min":94,"x_max":578,"o":"m 347 -14 q 177 32 231 -14 q 109 153 124 78 q 94 315 94 228 l 94 958 q 99 971 94 969 q 128 972 103 972 l 128 315 q 141 172 128 239 q 201 62 154 104 q 347 19 247 19 q 463 32 407 19 q 544 57 519 44 l 544 960 q 550 971 544 969 q 578 972 556 972 l 578 32 q 483 0 550 14 q 347 -14 417 -14 z "},"Ù":{"ha":672,"x_min":94,"x_max":578,"o":"m 347 -14 q 177 32 231 -14 q 109 153 124 78 q 94 315 94 228 l 94 958 q 99 971 94 969 q 128 972 103 972 l 128 315 q 141 172 128 239 q 201 62 154 104 q 347 19 247 19 q 463 32 407 19 q 544 57 519 44 l 544 960 q 550 971 544 969 q 578 972 556 972 l 578 32 q 483 0 550 14 q 347 -14 417 -14 m 428 1082 q 330 1154 375 1119 q 258 1212 285 1189 q 231 1235 231 1235 q 235 1251 231 1235 q 249 1267 240 1267 q 278 1244 249 1267 q 351 1184 307 1221 q 442 1104 396 1147 q 435 1093 442 1104 q 428 1082 428 1082 z "},"Ủ":{"ha":672,"x_min":94,"x_max":578,"o":"m 347 -14 q 177 32 231 -14 q 109 153 124 78 q 94 315 94 228 l 94 958 q 99 971 94 969 q 128 972 103 972 l 128 315 q 141 172 128 239 q 201 62 154 104 q 347 19 247 19 q 463 32 407 19 q 544 57 519 44 l 544 960 q 550 971 544 969 q 578 972 556 972 l 578 32 q 483 0 550 14 q 347 -14 417 -14 m 314 1049 q 313 1060 314 1049 q 317 1083 311 1071 q 350 1114 329 1107 q 371 1158 371 1121 q 349 1208 371 1200 q 315 1217 326 1217 q 261 1200 283 1217 q 261 1215 261 1200 q 261 1233 261 1229 q 314 1253 261 1253 q 383 1232 357 1253 q 410 1158 410 1211 q 386 1103 410 1119 q 350 1078 363 1088 q 342 1061 343 1072 q 340 1050 340 1050 q 328 1047 339 1047 q 314 1049 317 1047 z "},"Ư":{"ha":672,"x_min":94,"x_max":681,"o":"m 347 -14 q 177 32 231 -14 q 109 153 124 78 q 94 315 94 228 l 94 958 q 99 971 94 969 q 128 972 103 972 l 128 315 q 141 172 128 239 q 201 62 154 104 q 347 19 247 19 q 463 32 407 19 q 544 57 519 44 l 544 960 q 550 971 544 969 q 578 972 556 972 l 578 32 q 483 0 550 14 q 347 -14 417 -14 m 550 938 l 551 971 q 627 997 610 971 q 644 1064 644 1022 q 653 1076 644 1074 q 670 1073 661 1078 q 679 1058 679 1068 q 669 1001 681 1028 q 629 956 658 974 q 550 938 600 938 z "},"Ứ":{"ha":672,"x_min":94,"x_max":681,"o":"m 347 -14 q 177 32 231 -14 q 109 153 124 78 q 94 315 94 228 l 94 958 q 99 971 94 969 q 128 972 103 972 l 128 315 q 141 172 128 239 q 201 62 154 104 q 347 19 247 19 q 463 32 407 19 q 544 57 519 44 l 544 960 q 550 971 544 969 q 578 972 556 972 l 578 32 q 483 0 550 14 q 347 -14 417 -14 m 550 938 l 551 971 q 627 997 610 971 q 644 1064 644 1022 q 653 1076 644 1074 q 670 1073 661 1078 q 679 1058 679 1068 q 669 1001 681 1028 q 629 956 658 974 q 550 938 600 938 z "},"Ự":{"ha":672,"x_min":94,"x_max":681,"o":"m 347 -14 q 177 32 231 -14 q 109 153 124 78 q 94 315 94 228 l 94 958 q 99 971 94 969 q 128 972 103 972 l 128 315 q 141 172 128 239 q 201 62 154 104 q 347 19 247 19 q 463 32 407 19 q 544 57 519 44 l 544 960 q 550 971 544 969 q 578 972 556 972 l 578 32 q 483 0 550 14 q 347 -14 417 -14 m 550 938 l 551 971 q 627 997 610 971 q 644 1064 644 1022 q 653 1076 644 1074 q 670 1073 661 1078 q 679 1058 679 1068 q 669 1001 681 1028 q 629 956 658 974 q 550 938 600 938 z "},"Ừ":{"ha":672,"x_min":94,"x_max":681,"o":"m 347 -14 q 177 32 231 -14 q 109 153 124 78 q 94 315 94 228 l 94 958 q 99 971 94 969 q 128 972 103 972 l 128 315 q 141 172 128 239 q 201 62 154 104 q 347 19 247 19 q 463 32 407 19 q 544 57 519 44 l 544 960 q 550 971 544 969 q 578 972 556 972 l 578 32 q 483 0 550 14 q 347 -14 417 -14 m 550 938 l 551 971 q 627 997 610 971 q 644 1064 644 1022 q 653 1076 644 1074 q 670 1073 661 1078 q 679 1058 679 1068 q 669 1001 681 1028 q 629 956 658 974 q 550 938 600 938 z "},"Ử":{"ha":672,"x_min":94,"x_max":681,"o":"m 347 -14 q 177 32 231 -14 q 109 153 124 78 q 94 315 94 228 l 94 958 q 99 971 94 969 q 128 972 103 972 l 128 315 q 141 172 128 239 q 201 62 154 104 q 347 19 247 19 q 463 32 407 19 q 544 57 519 44 l 544 960 q 550 971 544 969 q 578 972 556 972 l 578 32 q 483 0 550 14 q 347 -14 417 -14 m 550 938 l 551 971 q 627 997 610 971 q 644 1064 644 1022 q 653 1076 644 1074 q 670 1073 661 1078 q 679 1058 679 1068 q 669 1001 681 1028 q 629 956 658 974 q 550 938 600 938 m 314 1049 q 313 1060 314 1049 q 317 1083 311 1071 q 350 1114 329 1107 q 371 1158 371 1121 q 349 1208 371 1200 q 315 1217 326 1217 q 261 1200 283 1217 q 261 1215 261 1200 q 261 1233 261 1229 q 314 1253 261 1253 q 383 1232 357 1253 q 410 1158 410 1211 q 386 1103 410 1119 q 350 1078 363 1088 q 342 1061 343 1072 q 340 1050 340 1050 q 328 1047 339 1047 q 314 1049 317 1047 z "},"Ữ":{"ha":672,"x_min":94,"x_max":681,"o":"m 347 -14 q 177 32 231 -14 q 109 153 124 78 q 94 315 94 228 l 94 958 q 99 971 94 969 q 128 972 103 972 l 128 315 q 141 172 128 239 q 201 62 154 104 q 347 19 247 19 q 463 32 407 19 q 544 57 519 44 l 544 960 q 550 971 544 969 q 578 972 556 972 l 578 32 q 483 0 550 14 q 347 -14 417 -14 m 550 938 l 551 971 q 627 997 610 971 q 644 1064 644 1022 q 653 1076 644 1074 q 670 1073 661 1078 q 679 1058 679 1068 q 669 1001 681 1028 q 629 956 658 974 q 550 938 600 938 m 403 1103 q 338 1124 360 1103 q 301 1165 317 1144 q 261 1185 285 1185 q 197 1148 218 1185 q 167 1111 176 1111 q 152 1121 160 1111 q 144 1131 144 1131 q 205 1199 176 1183 q 269 1214 233 1214 q 320 1194 303 1214 q 354 1156 338 1175 q 403 1138 371 1138 q 479 1174 461 1138 q 507 1210 497 1210 q 522 1199 517 1210 q 528 1189 528 1189 q 504 1149 518 1169 q 466 1116 490 1129 q 403 1103 442 1103 z "},"Ű":{"ha":672,"x_min":94,"x_max":578,"o":"m 347 -14 q 177 32 231 -14 q 109 153 124 78 q 94 315 94 228 l 94 958 q 99 971 94 969 q 128 972 103 972 l 128 315 q 141 172 128 239 q 201 62 154 104 q 347 19 247 19 q 463 32 407 19 q 544 57 519 44 l 544 960 q 550 971 544 969 q 578 972 556 972 l 578 32 q 483 0 550 14 q 347 -14 417 -14 m 238 1079 q 228 1088 238 1079 q 219 1097 219 1097 q 283 1185 251 1144 q 335 1252 314 1226 q 357 1278 357 1278 q 373 1266 365 1281 q 381 1251 381 1251 q 361 1226 381 1251 q 309 1162 342 1201 q 238 1079 276 1122 m 376 1079 q 367 1088 376 1079 q 358 1097 358 1097 q 422 1185 390 1144 q 474 1252 453 1226 q 496 1278 496 1278 q 512 1266 504 1281 q 519 1251 519 1251 q 500 1226 519 1251 q 448 1162 481 1201 q 376 1079 415 1122 z "},"Ū":{"ha":672,"x_min":94,"x_max":578,"o":"m 347 -14 q 177 32 231 -14 q 109 153 124 78 q 94 315 94 228 l 94 958 q 99 971 94 969 q 128 972 103 972 l 128 315 q 141 172 128 239 q 201 62 154 104 q 347 19 247 19 q 463 32 407 19 q 544 57 519 44 l 544 960 q 550 971 544 969 q 578 972 556 972 l 578 32 q 483 0 550 14 q 347 -14 417 -14 m 169 1143 q 168 1153 168 1149 q 168 1161 168 1157 q 183 1178 171 1178 l 503 1178 q 504 1160 504 1171 q 499 1147 503 1151 q 489 1143 496 1143 l 169 1143 z "},"Ų":{"ha":672,"x_min":94,"x_max":578,"o":"m 515 -271 q 444 -244 469 -271 q 418 -164 418 -217 q 443 -77 418 -125 q 499 4 468 -29 q 426 -9 467 -4 q 347 -14 386 -14 q 177 32 231 -14 q 109 153 124 78 q 94 315 94 228 l 94 958 q 99 971 94 969 q 128 972 103 972 l 128 315 q 141 172 128 239 q 201 62 154 104 q 347 19 247 19 q 463 31 407 19 q 544 56 519 43 l 544 960 q 550 971 544 969 q 578 972 556 972 l 578 32 q 491 -56 531 4 q 451 -164 451 -115 q 517 -239 451 -239 q 564 -225 540 -239 q 572 -247 572 -239 q 556 -265 572 -258 q 515 -271 539 -271 z "},"Ů":{"ha":672,"x_min":94,"x_max":578,"o":"m 347 -14 q 177 32 231 -14 q 109 153 124 78 q 94 315 94 228 l 94 958 q 99 971 94 969 q 128 972 103 972 l 128 315 q 141 172 128 239 q 201 62 154 104 q 347 19 247 19 q 463 32 407 19 q 544 57 519 44 l 544 960 q 550 971 544 969 q 578 972 556 972 l 578 32 q 483 0 550 14 q 347 -14 417 -14 m 332 1065 q 253 1091 283 1065 q 222 1181 222 1117 q 342 1297 222 1297 q 423 1271 396 1297 q 450 1181 450 1244 q 332 1065 450 1065 m 332 1099 q 417 1182 417 1099 q 398 1247 417 1229 q 343 1264 379 1264 q 278 1245 301 1264 q 256 1176 256 1226 q 332 1099 256 1099 z "},"Ũ":{"ha":672,"x_min":94,"x_max":578,"o":"m 347 -14 q 177 32 231 -14 q 109 153 124 78 q 94 315 94 228 l 94 958 q 99 971 94 969 q 128 972 103 972 l 128 315 q 141 172 128 239 q 201 62 154 104 q 347 19 247 19 q 463 32 407 19 q 544 57 519 44 l 544 960 q 550 971 544 969 q 578 972 556 972 l 578 32 q 483 0 550 14 q 347 -14 417 -14 m 403 1103 q 338 1124 360 1103 q 301 1165 317 1144 q 261 1185 285 1185 q 197 1148 218 1185 q 167 1111 176 1111 q 152 1121 160 1111 q 144 1131 144 1131 q 205 1199 176 1183 q 269 1214 233 1214 q 320 1194 303 1214 q 354 1156 338 1175 q 403 1138 371 1138 q 479 1174 461 1138 q 507 1210 497 1210 q 522 1199 517 1210 q 528 1189 528 1189 q 504 1149 518 1169 q 466 1116 490 1129 q 403 1103 442 1103 z "},"V":{"ha":585,"x_min":7,"x_max":579,"o":"m 293 -14 q 281 8 288 -14 q 264 67 275 29 q 213 248 244 138 q 146 480 181 358 q 80 709 111 601 q 29 885 49 817 q 10 953 10 953 q 7 967 7 961 q 15 972 7 972 l 38 972 l 238 279 q 273 152 260 206 q 300 38 286 99 q 326 152 313 99 q 358 279 339 206 l 542 953 q 556 972 547 972 l 579 972 l 311 -12 q 306 -13 311 -12 q 293 -14 301 -14 z "},"W":{"ha":874,"x_min":7,"x_max":869,"o":"m 639 -15 q 619 47 633 -15 l 475 658 q 469 690 475 658 q 454 763 463 722 q 440 836 446 804 q 433 868 433 868 l 425 897 q 431 917 418 917 l 454 917 l 603 278 q 628 161 621 201 q 646 60 635 121 l 649 60 q 665 160 657 104 q 688 278 674 215 l 832 953 q 846 972 836 972 l 869 972 l 657 -12 q 653 -14 657 -12 q 639 -15 649 -15 m 235 -14 q 225 8 231 -14 q 211 69 219 31 q 170 252 196 142 q 117 484 144 363 q 65 712 89 606 q 24 885 40 818 q 8 953 8 953 q 7 965 7 958 q 14 972 7 972 l 38 972 l 197 278 q 222 160 214 203 q 242 57 231 118 l 244 57 q 261 167 251 117 q 283 278 271 218 l 415 897 q 419 911 417 906 q 429 917 422 917 l 442 917 q 451 910 451 917 q 449 897 450 904 l 439 868 q 433 837 439 868 q 419 765 428 806 q 406 692 411 724 q 400 661 400 661 l 254 -12 q 249 -13 254 -12 q 235 -14 243 -14 z "},"Ẃ":{"ha":874,"x_min":7,"x_max":869,"o":"m 639 -15 q 619 47 633 -15 l 475 658 q 469 690 475 658 q 454 763 463 722 q 440 836 446 804 q 433 868 433 868 l 425 897 q 431 917 418 917 l 454 917 l 603 278 q 628 161 621 201 q 646 60 635 121 l 649 60 q 665 160 657 104 q 688 278 674 215 l 832 953 q 846 972 836 972 l 869 972 l 657 -12 q 653 -14 657 -12 q 639 -15 649 -15 m 235 -14 q 225 8 231 -14 q 211 69 219 31 q 170 252 196 142 q 117 484 144 363 q 65 712 89 606 q 24 885 40 818 q 8 953 8 953 q 7 965 7 958 q 14 972 7 972 l 38 972 l 197 278 q 222 160 214 203 q 242 57 231 118 l 244 57 q 261 167 251 117 q 283 278 271 218 l 415 897 q 419 911 417 906 q 429 917 422 917 l 442 917 q 451 910 451 917 q 449 897 450 904 l 439 868 q 433 837 439 868 q 419 765 428 806 q 406 692 411 724 q 400 661 400 661 l 254 -12 q 249 -13 254 -12 q 235 -14 243 -14 m 346 1082 q 339 1093 346 1082 q 332 1104 332 1104 q 422 1184 378 1147 q 496 1244 467 1221 q 525 1267 525 1267 q 538 1251 533 1267 q 543 1235 543 1235 q 516 1212 543 1235 q 444 1154 489 1189 q 346 1082 399 1119 z "},"Ŵ":{"ha":874,"x_min":7,"x_max":869,"o":"m 639 -15 q 619 47 633 -15 l 475 658 q 469 690 475 658 q 454 763 463 722 q 440 836 446 804 q 433 868 433 868 l 425 897 q 431 917 418 917 l 454 917 l 603 278 q 628 161 621 201 q 646 60 635 121 l 649 60 q 665 160 657 104 q 688 278 674 215 l 832 953 q 846 972 836 972 l 869 972 l 657 -12 q 653 -14 657 -12 q 639 -15 649 -15 m 235 -14 q 225 8 231 -14 q 211 69 219 31 q 170 252 196 142 q 117 484 144 363 q 65 712 89 606 q 24 885 40 818 q 8 953 8 953 q 7 965 7 958 q 14 972 7 972 l 38 972 l 197 278 q 222 160 214 203 q 242 57 231 118 l 244 57 q 261 167 251 117 q 283 278 271 218 l 415 897 q 419 911 417 906 q 429 917 422 917 l 442 917 q 451 910 451 917 q 449 897 450 904 l 439 868 q 433 837 439 868 q 419 765 428 806 q 406 692 411 724 q 400 661 400 661 l 254 -12 q 249 -13 254 -12 q 235 -14 243 -14 m 565 1083 q 534 1117 565 1083 q 472 1183 503 1150 q 442 1215 442 1215 q 410 1183 442 1215 q 344 1117 378 1150 q 306 1085 310 1085 q 285 1094 292 1085 q 279 1103 279 1103 l 432 1246 q 443 1249 435 1249 q 463 1239 453 1249 q 496 1206 463 1239 q 563 1139 529 1172 q 596 1106 596 1106 q 587 1094 596 1106 q 565 1083 578 1083 z "},"Ẅ":{"ha":874,"x_min":7,"x_max":869,"o":"m 639 -15 q 619 47 633 -15 l 475 658 q 469 690 475 658 q 454 763 463 722 q 440 836 446 804 q 433 868 433 868 l 425 897 q 431 917 418 917 l 454 917 l 603 278 q 628 161 621 201 q 646 60 635 121 l 649 60 q 665 160 657 104 q 688 278 674 215 l 832 953 q 846 972 836 972 l 869 972 l 657 -12 q 653 -14 657 -12 q 639 -15 649 -15 m 235 -14 q 225 8 231 -14 q 211 69 219 31 q 170 252 196 142 q 117 484 144 363 q 65 712 89 606 q 24 885 40 818 q 8 953 8 953 q 7 965 7 958 q 14 972 7 972 l 38 972 l 197 278 q 222 160 214 203 q 242 57 231 118 l 244 57 q 261 167 251 117 q 283 278 271 218 l 415 897 q 419 911 417 906 q 429 917 422 917 l 442 917 q 451 910 451 917 q 449 897 450 904 l 439 868 q 433 837 439 868 q 419 765 428 806 q 406 692 411 724 q 400 661 400 661 l 254 -12 q 249 -13 254 -12 q 235 -14 243 -14 m 367 1131 q 347 1142 353 1132 q 343 1169 342 1151 q 369 1208 344 1208 q 390 1197 383 1208 q 394 1167 396 1186 q 367 1131 392 1131 m 506 1131 q 486 1142 492 1132 q 482 1169 481 1151 q 508 1208 483 1208 q 528 1197 522 1208 q 533 1167 535 1186 q 506 1131 531 1131 z "},"Ẁ":{"ha":874,"x_min":7,"x_max":869,"o":"m 639 -15 q 619 47 633 -15 l 475 658 q 469 690 475 658 q 454 763 463 722 q 440 836 446 804 q 433 868 433 868 l 425 897 q 431 917 418 917 l 454 917 l 603 278 q 628 161 621 201 q 646 60 635 121 l 649 60 q 665 160 657 104 q 688 278 674 215 l 832 953 q 846 972 836 972 l 869 972 l 657 -12 q 653 -14 657 -12 q 639 -15 649 -15 m 235 -14 q 225 8 231 -14 q 211 69 219 31 q 170 252 196 142 q 117 484 144 363 q 65 712 89 606 q 24 885 40 818 q 8 953 8 953 q 7 965 7 958 q 14 972 7 972 l 38 972 l 197 278 q 222 160 214 203 q 242 57 231 118 l 244 57 q 261 167 251 117 q 283 278 271 218 l 415 897 q 419 911 417 906 q 429 917 422 917 l 442 917 q 451 910 451 917 q 449 897 450 904 l 439 868 q 433 837 439 868 q 419 765 428 806 q 406 692 411 724 q 400 661 400 661 l 254 -12 q 249 -13 254 -12 q 235 -14 243 -14 m 529 1082 q 431 1154 476 1119 q 359 1212 386 1189 q 332 1235 332 1235 q 337 1251 332 1235 q 350 1267 342 1267 q 379 1244 350 1267 q 453 1184 408 1221 q 543 1104 497 1147 q 536 1093 543 1104 q 529 1082 529 1082 z "},"X":{"ha":596,"x_min":17,"x_max":583,"o":"m 17 0 l 281 515 l 296 524 q 337 610 296 524 q 425 793 378 697 l 508 965 q 515 972 511 971 q 551 972 519 972 l 319 496 l 304 490 q 265 411 304 490 q 176 236 225 332 l 60 6 q 47 0 56 0 l 17 0 m 540 0 l 424 235 q 335 411 375 332 q 296 490 296 490 l 282 499 l 54 965 q 54 972 51 971 q 89 972 57 972 l 176 793 q 265 610 225 694 q 304 525 304 525 l 315 515 l 578 13 q 571 0 583 0 l 540 0 z "},"Y":{"ha":496,"x_min":6,"x_max":489,"o":"m 256 369 l 244 371 l 8 965 q 11 972 6 971 q 44 972 17 972 l 126 765 q 181 622 153 700 q 230 488 210 544 q 250 432 250 432 q 271 488 250 432 q 320 622 292 544 q 374 765 349 700 l 450 965 q 458 972 453 971 q 489 972 463 972 l 256 369 m 233 0 l 233 418 l 267 418 l 267 14 q 263 1 267 3 q 233 0 258 0 z "},"Ý":{"ha":496,"x_min":6,"x_max":489,"o":"m 256 369 l 244 371 l 8 965 q 11 972 6 971 q 44 972 17 972 l 126 765 q 181 622 153 700 q 230 488 210 544 q 250 432 250 432 q 271 488 250 432 q 320 622 292 544 q 374 765 349 700 l 450 965 q 458 972 453 971 q 489 972 463 972 l 256 369 m 233 0 l 233 418 l 267 418 l 267 14 q 263 1 267 3 q 233 0 258 0 m 157 1082 q 150 1093 157 1082 q 143 1104 143 1104 q 233 1184 189 1147 q 307 1244 278 1221 q 336 1267 336 1267 q 349 1251 344 1267 q 354 1235 354 1235 q 327 1212 354 1235 q 255 1154 300 1189 q 157 1082 210 1119 z "},"Ŷ":{"ha":496,"x_min":6,"x_max":489,"o":"m 256 369 l 244 371 l 8 965 q 11 972 6 971 q 44 972 17 972 l 126 765 q 181 622 153 700 q 230 488 210 544 q 250 432 250 432 q 271 488 250 432 q 320 622 292 544 q 374 765 349 700 l 450 965 q 458 972 453 971 q 489 972 463 972 l 256 369 m 233 0 l 233 418 l 267 418 l 267 14 q 263 1 267 3 q 233 0 258 0 m 376 1083 q 345 1117 376 1083 q 283 1183 314 1150 q 253 1215 253 1215 q 221 1183 253 1215 q 155 1117 189 1150 q 117 1085 121 1085 q 97 1094 103 1085 q 90 1103 90 1103 l 243 1246 q 254 1249 246 1249 q 274 1239 264 1249 q 307 1206 274 1239 q 374 1139 340 1172 q 407 1106 407 1106 q 398 1094 407 1106 q 376 1083 389 1083 z "},"Ÿ":{"ha":496,"x_min":6,"x_max":489,"o":"m 256 369 l 244 371 l 8 965 q 11 972 6 971 q 44 972 17 972 l 126 765 q 181 622 153 700 q 230 488 210 544 q 250 432 250 432 q 271 488 250 432 q 320 622 292 544 q 374 765 349 700 l 450 965 q 458 972 453 971 q 489 972 463 972 l 256 369 m 233 0 l 233 418 l 267 418 l 267 14 q 263 1 267 3 q 233 0 258 0 m 178 1131 q 158 1142 164 1132 q 154 1169 153 1151 q 181 1208 156 1208 q 201 1197 194 1208 q 206 1167 207 1186 q 178 1131 203 1131 m 317 1131 q 297 1142 303 1132 q 293 1169 292 1151 q 319 1208 294 1208 q 340 1197 333 1208 q 344 1167 346 1186 q 317 1131 342 1131 z "},"Ỵ":{"ha":496,"x_min":6,"x_max":489,"o":"m 256 369 l 244 371 l 8 965 q 11 972 6 971 q 44 972 17 972 l 126 765 q 181 622 153 700 q 230 488 210 544 q 250 432 250 432 q 271 488 250 432 q 320 622 292 544 q 374 765 349 700 l 450 965 q 458 972 453 971 q 489 972 463 972 l 256 369 m 233 0 l 233 418 l 267 418 l 267 14 q 263 1 267 3 q 233 0 258 0 z "},"Ỳ":{"ha":496,"x_min":6,"x_max":489,"o":"m 256 369 l 244 371 l 8 965 q 11 972 6 971 q 44 972 17 972 l 126 765 q 181 622 153 700 q 230 488 210 544 q 250 432 250 432 q 271 488 250 432 q 320 622 292 544 q 374 765 349 700 l 450 965 q 458 972 453 971 q 489 972 463 972 l 256 369 m 233 0 l 233 418 l 267 418 l 267 14 q 263 1 267 3 q 233 0 258 0 m 340 1082 q 242 1154 288 1119 q 170 1212 197 1189 q 143 1235 143 1235 q 148 1251 143 1235 q 161 1267 153 1267 q 190 1244 161 1267 q 264 1184 219 1221 q 354 1104 308 1147 q 347 1093 354 1104 q 340 1082 340 1082 z "},"Ỷ":{"ha":496,"x_min":6,"x_max":489,"o":"m 256 369 l 244 371 l 8 965 q 11 972 6 971 q 44 972 17 972 l 126 765 q 181 622 153 700 q 230 488 210 544 q 250 432 250 432 q 271 488 250 432 q 320 622 292 544 q 374 765 349 700 l 450 965 q 458 972 453 971 q 489 972 463 972 l 256 369 m 233 0 l 233 418 l 267 418 l 267 14 q 263 1 267 3 q 233 0 258 0 m 226 1049 q 225 1060 226 1049 q 229 1083 224 1071 q 263 1114 242 1107 q 283 1158 283 1121 q 261 1208 283 1200 q 228 1217 239 1217 q 174 1200 196 1217 q 174 1215 174 1200 q 174 1233 174 1229 q 226 1253 174 1253 q 296 1232 269 1253 q 322 1158 322 1211 q 299 1103 322 1119 q 263 1078 275 1088 q 254 1061 256 1072 q 253 1050 253 1050 q 240 1047 251 1047 q 226 1049 229 1047 z "},"Ỹ":{"ha":496,"x_min":6,"x_max":489,"o":"m 256 369 l 244 371 l 8 965 q 11 972 6 971 q 44 972 17 972 l 126 765 q 181 622 153 700 q 230 488 210 544 q 250 432 250 432 q 271 488 250 432 q 320 622 292 544 q 374 765 349 700 l 450 965 q 458 972 453 971 q 489 972 463 972 l 256 369 m 233 0 l 233 418 l 267 418 l 267 14 q 263 1 267 3 q 233 0 258 0 m 315 1103 q 251 1124 272 1103 q 213 1165 229 1144 q 174 1185 197 1185 q 110 1148 131 1185 q 79 1111 89 1111 q 65 1121 72 1111 q 57 1131 57 1131 q 117 1199 89 1183 q 182 1214 146 1214 q 233 1194 215 1214 q 267 1156 250 1175 q 315 1138 283 1138 q 392 1174 374 1138 q 419 1210 410 1210 q 435 1199 429 1210 q 440 1189 440 1189 q 417 1149 431 1169 q 378 1116 403 1129 q 315 1103 354 1103 z "},"Z":{"ha":558,"x_min":43,"x_max":511,"o":"m 53 0 q 43 15 43 3 q 49 38 43 24 l 468 939 l 132 939 q 93 939 107 939 q 79 939 79 939 l 79 958 q 93 972 79 972 l 506 972 q 511 957 511 967 q 506 935 511 947 l 83 33 l 449 33 q 483 34 467 33 q 511 38 500 35 l 511 14 q 497 0 511 0 l 53 0 z "},"Ź":{"ha":558,"x_min":43,"x_max":511,"o":"m 53 0 q 43 15 43 3 q 49 38 43 24 l 468 939 l 132 939 q 93 939 107 939 q 79 939 79 939 l 79 958 q 93 972 79 972 l 506 972 q 511 957 511 967 q 506 935 511 947 l 83 33 l 449 33 q 483 34 467 33 q 511 38 500 35 l 511 14 q 497 0 511 0 l 53 0 m 188 1082 q 181 1093 188 1082 q 174 1104 174 1104 q 264 1184 219 1147 q 338 1244 308 1221 q 367 1267 367 1267 q 380 1251 375 1267 q 385 1235 385 1235 q 358 1212 385 1235 q 285 1154 331 1189 q 188 1082 240 1119 z "},"Ž":{"ha":558,"x_min":43,"x_max":511,"o":"m 53 0 q 43 15 43 3 q 49 38 43 24 l 468 939 l 132 939 q 93 939 107 939 q 79 939 79 939 l 79 958 q 93 972 79 972 l 506 972 q 511 957 511 967 q 506 935 511 947 l 83 33 l 449 33 q 483 34 467 33 q 511 38 500 35 l 511 14 q 497 0 511 0 l 53 0 m 290 1092 q 239 1132 281 1092 q 158 1213 197 1172 q 119 1253 119 1253 q 126 1263 119 1253 q 143 1272 133 1272 q 185 1236 149 1272 q 255 1163 221 1200 q 289 1126 289 1126 q 378 1230 333 1179 q 422 1281 422 1281 q 439 1258 439 1268 q 405 1212 439 1253 q 334 1131 371 1171 q 290 1092 297 1092 z "},"Ż":{"ha":558,"x_min":43,"x_max":511,"o":"m 53 0 q 43 15 43 3 q 49 38 43 24 l 468 939 l 132 939 q 93 939 107 939 q 79 939 79 939 l 79 958 q 93 972 79 972 l 506 972 q 511 957 511 967 q 506 935 511 947 l 83 33 l 449 33 q 483 34 467 33 q 511 38 500 35 l 511 14 q 497 0 511 0 l 53 0 m 278 1131 q 258 1142 264 1132 q 254 1169 253 1151 q 262 1199 256 1189 q 281 1208 268 1208 q 301 1197 294 1208 q 306 1167 307 1186 q 278 1131 303 1131 z "},"a":{"ha":532,"x_min":61,"x_max":454,"o":"m 264 -14 q 126 15 190 -17 q 63 188 63 47 q 97 335 63 286 q 183 398 131 383 q 294 413 236 413 q 363 409 331 413 q 421 399 396 406 q 421 452 421 399 q 421 535 421 506 q 381 650 421 625 q 283 675 342 675 q 147 663 204 675 q 67 639 90 651 q 63 648 64 644 q 61 657 61 651 q 68 675 61 672 q 155 698 92 688 q 290 708 218 708 q 410 671 367 708 q 454 540 454 633 l 454 449 q 451 226 454 331 q 446 39 449 122 q 385 7 429 28 q 264 -14 342 -14 m 274 19 q 359 33 321 19 q 413 60 397 47 q 419 201 417 115 q 421 367 421 286 q 301 382 367 382 q 160 353 224 382 q 96 189 96 324 q 151 42 96 64 q 274 19 206 19 z "},"á":{"ha":532,"x_min":61,"x_max":454,"o":"m 264 -14 q 126 15 190 -17 q 63 188 63 47 q 97 335 63 286 q 183 398 131 383 q 294 413 236 413 q 363 409 331 413 q 421 399 396 406 q 421 452 421 399 q 421 535 421 506 q 381 650 421 625 q 283 675 342 675 q 147 663 204 675 q 67 639 90 651 q 63 648 64 644 q 61 657 61 651 q 68 675 61 672 q 155 698 92 688 q 290 708 218 708 q 410 671 367 708 q 454 540 454 633 l 454 449 q 451 226 454 331 q 446 39 449 122 q 385 7 429 28 q 264 -14 342 -14 m 274 19 q 359 33 321 19 q 413 60 397 47 q 419 201 417 115 q 421 367 421 286 q 301 382 367 382 q 160 353 224 382 q 96 189 96 324 q 151 42 96 64 q 274 19 206 19 m 165 804 q 158 815 165 804 q 151 826 151 826 q 242 906 197 869 q 315 966 286 943 q 344 989 344 989 q 358 973 353 989 q 363 957 363 957 q 335 934 363 957 q 263 876 308 911 q 165 804 218 842 z "},"ă":{"ha":532,"x_min":61,"x_max":454,"o":"m 264 -14 q 126 15 190 -17 q 63 188 63 47 q 97 335 63 286 q 183 398 131 383 q 294 413 236 413 q 363 409 331 413 q 421 399 396 406 q 421 452 421 399 q 421 535 421 506 q 381 650 421 625 q 283 675 342 675 q 147 663 204 675 q 67 639 90 651 q 63 648 64 644 q 61 657 61 651 q 68 675 61 672 q 155 698 92 688 q 290 708 218 708 q 410 671 367 708 q 454 540 454 633 l 454 449 q 451 226 454 331 q 446 39 449 122 q 385 7 429 28 q 264 -14 342 -14 m 274 19 q 359 33 321 19 q 413 60 397 47 q 419 201 417 115 q 421 367 421 286 q 301 382 367 382 q 160 353 224 382 q 96 189 96 324 q 151 42 96 64 q 274 19 206 19 m 257 813 q 168 845 203 813 q 116 915 133 878 q 99 964 99 951 q 125 982 99 979 q 167 895 138 944 q 258 846 197 846 q 342 887 317 846 q 382 968 367 928 q 401 979 388 983 q 417 963 414 975 q 369 866 404 919 q 257 813 333 813 z "},"ắ":{"ha":532,"x_min":61,"x_max":454,"o":"m 264 -14 q 126 15 190 -17 q 63 188 63 47 q 97 335 63 286 q 183 398 131 383 q 294 413 236 413 q 363 409 331 413 q 421 399 396 406 q 421 452 421 399 q 421 535 421 506 q 381 650 421 625 q 283 675 342 675 q 147 663 204 675 q 67 639 90 651 q 63 648 64 644 q 61 657 61 651 q 68 675 61 672 q 155 698 92 688 q 290 708 218 708 q 410 671 367 708 q 454 540 454 633 l 454 449 q 451 226 454 331 q 446 39 449 122 q 385 7 429 28 q 264 -14 342 -14 m 274 19 q 359 33 321 19 q 413 60 397 47 q 419 201 417 115 q 421 367 421 286 q 301 382 367 382 q 160 353 224 382 q 96 189 96 324 q 151 42 96 64 q 274 19 206 19 z "},"ặ":{"ha":532,"x_min":61,"x_max":454,"o":"m 264 -14 q 126 15 190 -17 q 63 188 63 47 q 97 335 63 286 q 183 398 131 383 q 294 413 236 413 q 363 409 331 413 q 421 399 396 406 q 421 452 421 399 q 421 535 421 506 q 381 650 421 625 q 283 675 342 675 q 147 663 204 675 q 67 639 90 651 q 63 648 64 644 q 61 657 61 651 q 68 675 61 672 q 155 698 92 688 q 290 708 218 708 q 410 671 367 708 q 454 540 454 633 l 454 449 q 451 226 454 331 q 446 39 449 122 q 385 7 429 28 q 264 -14 342 -14 m 274 19 q 359 33 321 19 q 413 60 397 47 q 419 201 417 115 q 421 367 421 286 q 301 382 367 382 q 160 353 224 382 q 96 189 96 324 q 151 42 96 64 q 274 19 206 19 m 257 813 q 168 845 203 813 q 116 915 133 878 q 99 964 99 951 q 125 982 99 979 q 167 895 138 944 q 258 846 197 846 q 342 887 317 846 q 382 968 367 928 q 401 979 388 983 q 417 963 414 975 q 369 866 404 919 q 257 813 333 813 z "},"ằ":{"ha":532,"x_min":61,"x_max":454,"o":"m 264 -14 q 126 15 190 -17 q 63 188 63 47 q 97 335 63 286 q 183 398 131 383 q 294 413 236 413 q 363 409 331 413 q 421 399 396 406 q 421 452 421 399 q 421 535 421 506 q 381 650 421 625 q 283 675 342 675 q 147 663 204 675 q 67 639 90 651 q 63 648 64 644 q 61 657 61 651 q 68 675 61 672 q 155 698 92 688 q 290 708 218 708 q 410 671 367 708 q 454 540 454 633 l 454 449 q 451 226 454 331 q 446 39 449 122 q 385 7 429 28 q 264 -14 342 -14 m 274 19 q 359 33 321 19 q 413 60 397 47 q 419 201 417 115 q 421 367 421 286 q 301 382 367 382 q 160 353 224 382 q 96 189 96 324 q 151 42 96 64 q 274 19 206 19 z "},"ẳ":{"ha":532,"x_min":61,"x_max":454,"o":"m 264 -14 q 126 15 190 -17 q 63 188 63 47 q 97 335 63 286 q 183 398 131 383 q 294 413 236 413 q 363 409 331 413 q 421 399 396 406 q 421 452 421 399 q 421 535 421 506 q 381 650 421 625 q 283 675 342 675 q 147 663 204 675 q 67 639 90 651 q 63 648 64 644 q 61 657 61 651 q 68 675 61 672 q 155 698 92 688 q 290 708 218 708 q 410 671 367 708 q 454 540 454 633 l 454 449 q 451 226 454 331 q 446 39 449 122 q 385 7 429 28 q 264 -14 342 -14 m 274 19 q 359 33 321 19 q 413 60 397 47 q 419 201 417 115 q 421 367 421 286 q 301 382 367 382 q 160 353 224 382 q 96 189 96 324 q 151 42 96 64 q 274 19 206 19 z "},"ẵ":{"ha":532,"x_min":61,"x_max":454,"o":"m 264 -14 q 126 15 190 -17 q 63 188 63 47 q 97 335 63 286 q 183 398 131 383 q 294 413 236 413 q 363 409 331 413 q 421 399 396 406 q 421 452 421 399 q 421 535 421 506 q 381 650 421 625 q 283 675 342 675 q 147 663 204 675 q 67 639 90 651 q 63 648 64 644 q 61 657 61 651 q 68 675 61 672 q 155 698 92 688 q 290 708 218 708 q 410 671 367 708 q 454 540 454 633 l 454 449 q 451 226 454 331 q 446 39 449 122 q 385 7 429 28 q 264 -14 342 -14 m 274 19 q 359 33 321 19 q 413 60 397 47 q 419 201 417 115 q 421 367 421 286 q 301 382 367 382 q 160 353 224 382 q 96 189 96 324 q 151 42 96 64 q 274 19 206 19 z "},"â":{"ha":532,"x_min":61,"x_max":454,"o":"m 264 -14 q 126 15 190 -17 q 63 188 63 47 q 97 335 63 286 q 183 398 131 383 q 294 413 236 413 q 363 409 331 413 q 421 399 396 406 q 421 452 421 399 q 421 535 421 506 q 381 650 421 625 q 283 675 342 675 q 147 663 204 675 q 67 639 90 651 q 63 648 64 644 q 61 657 61 651 q 68 675 61 672 q 155 698 92 688 q 290 708 218 708 q 410 671 367 708 q 454 540 454 633 l 454 449 q 451 226 454 331 q 446 39 449 122 q 385 7 429 28 q 264 -14 342 -14 m 274 19 q 359 33 321 19 q 413 60 397 47 q 419 201 417 115 q 421 367 421 286 q 301 382 367 382 q 160 353 224 382 q 96 189 96 324 q 151 42 96 64 q 274 19 206 19 m 385 806 q 353 839 385 806 q 292 905 322 872 q 261 938 261 938 q 229 905 261 938 q 163 840 197 872 q 125 807 129 807 q 105 816 111 807 q 99 825 99 825 l 251 968 q 263 971 254 971 q 282 961 272 971 q 315 928 282 961 q 382 861 349 894 q 415 828 415 828 q 406 817 415 828 q 385 806 397 806 z "},"ấ":{"ha":532,"x_min":61,"x_max":619,"o":"m 264 -14 q 126 15 190 -17 q 63 188 63 47 q 97 335 63 286 q 183 398 131 383 q 294 413 236 413 q 363 409 331 413 q 421 399 396 406 q 421 452 421 399 q 421 535 421 506 q 381 650 421 625 q 283 675 342 675 q 147 663 204 675 q 67 639 90 651 q 63 648 64 644 q 61 657 61 651 q 68 675 61 672 q 155 698 92 688 q 290 708 218 708 q 410 671 367 708 q 454 540 454 633 l 454 449 q 451 226 454 331 q 446 39 449 122 q 385 7 429 28 q 264 -14 342 -14 m 274 19 q 359 33 321 19 q 413 60 397 47 q 419 201 417 115 q 421 367 421 286 q 301 382 367 382 q 160 353 224 382 q 96 189 96 324 q 151 42 96 64 q 274 19 206 19 z "},"ậ":{"ha":532,"x_min":61,"x_max":454,"o":"m 264 -14 q 126 15 190 -17 q 63 188 63 47 q 97 335 63 286 q 183 398 131 383 q 294 413 236 413 q 363 409 331 413 q 421 399 396 406 q 421 452 421 399 q 421 535 421 506 q 381 650 421 625 q 283 675 342 675 q 147 663 204 675 q 67 639 90 651 q 63 648 64 644 q 61 657 61 651 q 68 675 61 672 q 155 698 92 688 q 290 708 218 708 q 410 671 367 708 q 454 540 454 633 l 454 449 q 451 226 454 331 q 446 39 449 122 q 385 7 429 28 q 264 -14 342 -14 m 274 19 q 359 33 321 19 q 413 60 397 47 q 419 201 417 115 q 421 367 421 286 q 301 382 367 382 q 160 353 224 382 q 96 189 96 324 q 151 42 96 64 q 274 19 206 19 m 385 806 q 353 839 385 806 q 292 905 322 872 q 261 938 261 938 q 229 905 261 938 q 163 840 197 872 q 125 807 129 807 q 105 816 111 807 q 99 825 99 825 l 251 968 q 263 971 254 971 q 282 961 272 971 q 315 928 282 961 q 382 861 349 894 q 415 828 415 828 q 406 817 415 828 q 385 806 397 806 z "},"ầ":{"ha":532,"x_min":61,"x_max":454,"o":"m 264 -14 q 126 15 190 -17 q 63 188 63 47 q 97 335 63 286 q 183 398 131 383 q 294 413 236 413 q 363 409 331 413 q 421 399 396 406 q 421 452 421 399 q 421 535 421 506 q 381 650 421 625 q 283 675 342 675 q 147 663 204 675 q 67 639 90 651 q 63 648 64 644 q 61 657 61 651 q 68 675 61 672 q 155 698 92 688 q 290 708 218 708 q 410 671 367 708 q 454 540 454 633 l 454 449 q 451 226 454 331 q 446 39 449 122 q 385 7 429 28 q 264 -14 342 -14 m 274 19 q 359 33 321 19 q 413 60 397 47 q 419 201 417 115 q 421 367 421 286 q 301 382 367 382 q 160 353 224 382 q 96 189 96 324 q 151 42 96 64 q 274 19 206 19 z "},"ẩ":{"ha":532,"x_min":61,"x_max":499,"o":"m 264 -14 q 126 15 190 -17 q 63 188 63 47 q 97 335 63 286 q 183 398 131 383 q 294 413 236 413 q 363 409 331 413 q 421 399 396 406 q 421 452 421 399 q 421 535 421 506 q 381 650 421 625 q 283 675 342 675 q 147 663 204 675 q 67 639 90 651 q 63 648 64 644 q 61 657 61 651 q 68 675 61 672 q 155 698 92 688 q 290 708 218 708 q 410 671 367 708 q 454 540 454 633 l 454 449 q 451 226 454 331 q 446 39 449 122 q 385 7 429 28 q 264 -14 342 -14 m 274 19 q 359 33 321 19 q 413 60 397 47 q 419 201 417 115 q 421 367 421 286 q 301 382 367 382 q 160 353 224 382 q 96 189 96 324 q 151 42 96 64 q 274 19 206 19 z "},"ẫ":{"ha":532,"x_min":61,"x_max":469,"o":"m 264 -14 q 126 15 190 -17 q 63 188 63 47 q 97 335 63 286 q 183 398 131 383 q 294 413 236 413 q 363 409 331 413 q 421 399 396 406 q 421 452 421 399 q 421 535 421 506 q 381 650 421 625 q 283 675 342 675 q 147 663 204 675 q 67 639 90 651 q 63 648 64 644 q 61 657 61 651 q 68 675 61 672 q 155 698 92 688 q 290 708 218 708 q 410 671 367 708 q 454 540 454 633 l 454 449 q 451 226 454 331 q 446 39 449 122 q 385 7 429 28 q 264 -14 342 -14 m 274 19 q 359 33 321 19 q 413 60 397 47 q 419 201 417 115 q 421 367 421 286 q 301 382 367 382 q 160 353 224 382 q 96 189 96 324 q 151 42 96 64 q 274 19 206 19 z "},"ä":{"ha":532,"x_min":61,"x_max":454,"o":"m 264 -14 q 126 15 190 -17 q 63 188 63 47 q 97 335 63 286 q 183 398 131 383 q 294 413 236 413 q 363 409 331 413 q 421 399 396 406 q 421 452 421 399 q 421 535 421 506 q 381 650 421 625 q 283 675 342 675 q 147 663 204 675 q 67 639 90 651 q 63 648 64 644 q 61 657 61 651 q 68 675 61 672 q 155 698 92 688 q 290 708 218 708 q 410 671 367 708 q 454 540 454 633 l 454 449 q 451 226 454 331 q 446 39 449 122 q 385 7 429 28 q 264 -14 342 -14 m 274 19 q 359 33 321 19 q 413 60 397 47 q 419 201 417 115 q 421 367 421 286 q 301 382 367 382 q 160 353 224 382 q 96 189 96 324 q 151 42 96 64 q 274 19 206 19 m 186 853 q 167 864 172 854 q 163 892 161 874 q 189 931 164 931 q 209 919 203 931 q 214 889 215 908 q 186 853 211 853 m 325 853 q 306 864 311 854 q 301 892 300 874 q 328 931 303 931 q 348 919 342 931 q 353 889 354 908 q 325 853 350 853 z "},"ạ":{"ha":532,"x_min":61,"x_max":454,"o":"m 264 -14 q 126 15 190 -17 q 63 188 63 47 q 97 335 63 286 q 183 398 131 383 q 294 413 236 413 q 363 409 331 413 q 421 399 396 406 q 421 452 421 399 q 421 535 421 506 q 381 650 421 625 q 283 675 342 675 q 147 663 204 675 q 67 639 90 651 q 63 648 64 644 q 61 657 61 651 q 68 675 61 672 q 155 698 92 688 q 290 708 218 708 q 410 671 367 708 q 454 540 454 633 l 454 449 q 451 226 454 331 q 446 39 449 122 q 385 7 429 28 q 264 -14 342 -14 m 274 19 q 359 33 321 19 q 413 60 397 47 q 419 201 417 115 q 421 367 421 286 q 301 382 367 382 q 160 353 224 382 q 96 189 96 324 q 151 42 96 64 q 274 19 206 19 z "},"à":{"ha":532,"x_min":61,"x_max":454,"o":"m 264 -14 q 126 15 190 -17 q 63 188 63 47 q 97 335 63 286 q 183 398 131 383 q 294 413 236 413 q 363 409 331 413 q 421 399 396 406 q 421 452 421 399 q 421 535 421 506 q 381 650 421 625 q 283 675 342 675 q 147 663 204 675 q 67 639 90 651 q 63 648 64 644 q 61 657 61 651 q 68 675 61 672 q 155 698 92 688 q 290 708 218 708 q 410 671 367 708 q 454 540 454 633 l 454 449 q 451 226 454 331 q 446 39 449 122 q 385 7 429 28 q 264 -14 342 -14 m 274 19 q 359 33 321 19 q 413 60 397 47 q 419 201 417 115 q 421 367 421 286 q 301 382 367 382 q 160 353 224 382 q 96 189 96 324 q 151 42 96 64 q 274 19 206 19 m 349 804 q 251 876 296 842 q 178 934 206 911 q 151 957 151 957 q 156 973 151 957 q 169 989 161 989 q 199 966 169 989 q 272 906 228 943 q 363 826 317 869 q 356 815 363 826 q 349 804 349 804 z "},"ả":{"ha":532,"x_min":61,"x_max":454,"o":"m 264 -14 q 126 15 190 -17 q 63 188 63 47 q 97 335 63 286 q 183 398 131 383 q 294 413 236 413 q 363 409 331 413 q 421 399 396 406 q 421 452 421 399 q 421 535 421 506 q 381 650 421 625 q 283 675 342 675 q 147 663 204 675 q 67 639 90 651 q 63 648 64 644 q 61 657 61 651 q 68 675 61 672 q 155 698 92 688 q 290 708 218 708 q 410 671 367 708 q 454 540 454 633 l 454 449 q 451 226 454 331 q 446 39 449 122 q 385 7 429 28 q 264 -14 342 -14 m 274 19 q 359 33 321 19 q 413 60 397 47 q 419 201 417 115 q 421 367 421 286 q 301 382 367 382 q 160 353 224 382 q 96 189 96 324 q 151 42 96 64 q 274 19 206 19 m 235 771 q 233 782 235 771 q 238 806 232 793 q 271 836 250 829 q 292 881 292 843 q 269 931 292 922 q 236 939 247 939 q 182 922 204 939 q 182 937 182 922 q 182 956 182 951 q 235 975 182 975 q 304 954 278 975 q 331 881 331 933 q 307 826 331 842 q 271 800 283 810 q 263 783 264 794 q 261 772 261 772 q 249 769 260 769 q 235 771 238 769 z "},"ā":{"ha":532,"x_min":61,"x_max":454,"o":"m 264 -14 q 126 15 190 -17 q 63 188 63 47 q 97 335 63 286 q 183 398 131 383 q 294 413 236 413 q 363 409 331 413 q 421 399 396 406 q 421 452 421 399 q 421 535 421 506 q 381 650 421 625 q 283 675 342 675 q 147 663 204 675 q 67 639 90 651 q 63 648 64 644 q 61 657 61 651 q 68 675 61 672 q 155 698 92 688 q 290 708 218 708 q 410 671 367 708 q 454 540 454 633 l 454 449 q 451 226 454 331 q 446 39 449 122 q 385 7 429 28 q 264 -14 342 -14 m 274 19 q 359 33 321 19 q 413 60 397 47 q 419 201 417 115 q 421 367 421 286 q 301 382 367 382 q 160 353 224 382 q 96 189 96 324 q 151 42 96 64 q 274 19 206 19 m 90 865 q 89 875 89 871 q 89 883 89 879 q 104 900 92 900 l 424 900 q 425 882 425 893 q 420 869 424 874 q 410 865 417 865 l 90 865 z "},"ą":{"ha":532,"x_min":61,"x_max":454,"o":"m 392 -271 q 319 -240 344 -271 q 294 -150 294 -208 q 311 -71 294 -108 q 350 -4 328 -33 q 310 -11 332 -8 q 264 -14 289 -14 q 126 15 190 -17 q 63 188 63 47 q 97 335 63 286 q 183 398 131 383 q 294 413 236 413 q 363 409 331 413 q 421 399 396 406 l 421 535 q 381 650 421 625 q 283 675 342 675 q 147 663 204 675 q 67 639 90 651 q 63 648 64 644 q 61 657 61 651 q 68 675 61 672 q 155 698 92 688 q 290 708 218 708 q 410 671 367 708 q 454 540 454 633 l 454 449 q 451 226 454 331 q 446 39 449 122 q 357 -51 386 -1 q 328 -150 328 -100 q 393 -237 328 -237 q 440 -225 415 -237 q 446 -235 444 -228 q 449 -246 449 -243 q 392 -271 449 -271 m 274 19 q 359 33 321 19 q 413 60 397 47 q 419 201 417 115 q 421 367 421 286 q 301 382 367 382 q 160 353 224 382 q 96 189 96 324 q 151 42 96 64 q 274 19 206 19 z "},"å":{"ha":532,"x_min":61,"x_max":454,"o":"m 264 -14 q 126 15 190 -17 q 63 188 63 47 q 97 335 63 286 q 183 398 131 383 q 294 413 236 413 q 363 409 331 413 q 421 399 396 406 q 421 452 421 399 q 421 535 421 506 q 381 650 421 625 q 283 675 342 675 q 147 663 204 675 q 67 639 90 651 q 63 648 64 644 q 61 657 61 651 q 68 675 61 672 q 155 698 92 688 q 290 708 218 708 q 410 671 367 708 q 454 540 454 633 l 454 449 q 451 226 454 331 q 446 39 449 122 q 385 7 429 28 q 264 -14 342 -14 m 274 19 q 359 33 321 19 q 413 60 397 47 q 419 201 417 115 q 421 367 421 286 q 301 382 367 382 q 160 353 224 382 q 96 189 96 324 q 151 42 96 64 q 274 19 206 19 m 253 788 q 174 813 204 788 q 143 903 143 839 q 263 1019 143 1019 q 344 993 317 1019 q 371 903 371 967 q 253 788 371 788 m 253 821 q 338 904 338 821 q 319 969 338 951 q 264 986 300 986 q 199 967 222 986 q 176 899 176 949 q 253 821 176 821 z "},"ã":{"ha":532,"x_min":61,"x_max":454,"o":"m 264 -14 q 126 15 190 -17 q 63 188 63 47 q 97 335 63 286 q 183 398 131 383 q 294 413 236 413 q 363 409 331 413 q 421 399 396 406 q 421 452 421 399 q 421 535 421 506 q 381 650 421 625 q 283 675 342 675 q 147 663 204 675 q 67 639 90 651 q 63 648 64 644 q 61 657 61 651 q 68 675 61 672 q 155 698 92 688 q 290 708 218 708 q 410 671 367 708 q 454 540 454 633 l 454 449 q 451 226 454 331 q 446 39 449 122 q 385 7 429 28 q 264 -14 342 -14 m 274 19 q 359 33 321 19 q 413 60 397 47 q 419 201 417 115 q 421 367 421 286 q 301 382 367 382 q 160 353 224 382 q 96 189 96 324 q 151 42 96 64 q 274 19 206 19 m 324 825 q 259 846 281 825 q 222 887 238 867 q 182 907 206 907 q 118 870 139 907 q 88 833 97 833 q 73 843 81 833 q 65 853 65 853 q 126 921 97 906 q 190 936 154 936 q 241 917 224 936 q 275 878 258 897 q 324 860 292 860 q 400 896 382 860 q 428 932 418 932 q 443 922 438 932 q 449 911 449 911 q 425 872 439 892 q 387 838 411 851 q 324 825 363 825 z "},"æ":{"ha":925,"x_min":63,"x_max":847,"o":"m 658 -11 q 538 9 592 -11 q 454 97 485 29 q 424 307 424 164 q 463 579 424 494 q 560 686 503 664 q 674 708 618 708 q 808 651 768 708 q 847 499 847 593 q 845 415 847 458 q 838 342 843 372 q 663 331 753 325 q 512 349 574 338 q 450 360 450 360 l 450 393 q 512 382 450 393 q 658 364 574 371 q 808 371 742 357 q 813 430 811 403 q 814 482 814 457 q 783 624 811 574 q 675 675 756 675 q 580 657 631 675 q 493 560 529 639 q 457 301 457 482 q 484 113 457 172 q 556 38 511 54 q 657 22 601 22 q 756 35 708 22 q 835 74 803 49 q 840 56 839 65 q 842 40 842 46 q 786 10 842 31 q 658 -11 731 -11 m 274 19 q 363 31 321 19 q 421 57 406 42 l 421 367 q 301 382 367 382 q 160 352 224 382 q 96 182 96 322 q 151 43 96 67 q 274 19 206 19 m 264 -11 q 168 -2 214 -12 q 92 51 122 8 q 63 188 63 94 q 97 335 63 286 q 183 398 131 383 q 294 413 236 413 q 363 409 331 413 q 421 399 396 406 q 421 452 421 399 q 421 535 421 506 q 380 650 421 625 q 275 675 339 675 q 156 663 208 675 q 72 633 103 651 q 69 643 69 639 q 68 653 68 647 q 79 672 68 667 q 154 697 103 685 q 286 708 206 708 q 410 671 367 708 q 454 540 454 633 l 454 31 q 390 4 438 19 q 264 -11 342 -11 z "},"b":{"ha":586,"x_min":97,"x_max":528,"o":"m 257 -14 q 97 28 151 -14 l 97 1000 q 105 1018 97 1015 q 131 1021 113 1021 l 131 643 q 217 691 169 674 q 333 708 264 708 q 474 651 419 707 q 528 450 528 596 q 483 144 528 243 q 374 16 438 46 q 257 -14 311 -14 m 258 19 q 358 45 303 19 q 454 159 414 71 q 494 432 494 247 q 452 624 494 572 q 321 675 410 675 q 131 601 208 675 l 131 51 q 175 30 144 40 q 258 19 206 19 z "},"c":{"ha":489,"x_min":69,"x_max":442,"o":"m 279 -14 q 174 9 222 -14 q 98 106 126 32 q 69 332 69 181 q 109 578 69 499 q 208 683 149 658 q 322 708 267 708 q 403 693 367 708 q 439 661 439 678 q 437 649 439 657 q 431 636 435 642 q 384 663 414 650 q 313 675 354 675 q 218 653 267 675 q 136 558 169 632 q 103 325 103 483 q 155 73 103 128 q 285 18 207 18 q 376 36 339 18 q 433 74 414 54 q 442 49 442 64 q 397 9 442 32 q 279 -14 351 -14 z "},"ć":{"ha":489,"x_min":69,"x_max":442,"o":"m 279 -14 q 174 9 222 -14 q 98 106 126 32 q 69 332 69 181 q 109 578 69 499 q 208 683 149 658 q 322 708 267 708 q 403 693 367 708 q 439 661 439 678 q 437 649 439 657 q 431 636 435 642 q 384 663 414 650 q 313 675 354 675 q 218 653 267 675 q 136 558 169 632 q 103 325 103 483 q 155 73 103 128 q 285 18 207 18 q 376 36 339 18 q 433 74 414 54 q 442 49 442 64 q 397 9 442 32 q 279 -14 351 -14 m 190 804 q 183 815 190 804 q 176 826 176 826 q 267 906 222 869 q 340 966 311 943 q 369 989 369 989 q 383 973 378 989 q 388 957 388 957 q 360 934 388 957 q 288 876 333 911 q 190 804 243 842 z "},"č":{"ha":489,"x_min":69,"x_max":442,"o":"m 279 -14 q 174 9 222 -14 q 98 106 126 32 q 69 332 69 181 q 109 578 69 499 q 208 683 149 658 q 322 708 267 708 q 403 693 367 708 q 439 661 439 678 q 437 649 439 657 q 431 636 435 642 q 384 663 414 650 q 313 675 354 675 q 218 653 267 675 q 136 558 169 632 q 103 325 103 483 q 155 73 103 128 q 285 18 207 18 q 376 36 339 18 q 433 74 414 54 q 442 49 442 64 q 397 9 442 32 q 279 -14 351 -14 m 293 814 q 242 854 283 814 q 161 935 200 894 q 122 975 122 975 q 129 985 122 975 q 146 994 136 994 q 188 958 151 994 q 258 885 224 922 q 292 849 292 849 q 381 952 336 901 q 425 1003 425 1003 q 442 981 442 990 q 408 934 442 975 q 337 853 374 893 q 293 814 300 814 z "},"ç":{"ha":489,"x_min":69,"x_max":442,"o":"m 279 -14 q 174 9 222 -14 q 98 106 126 32 q 69 332 69 181 q 109 578 69 499 q 208 683 149 658 q 322 708 267 708 q 403 693 367 708 q 439 661 439 678 q 437 649 439 657 q 431 636 435 642 q 384 663 414 650 q 313 675 354 675 q 218 653 267 675 q 136 558 169 632 q 103 325 103 483 q 155 73 103 128 q 285 18 207 18 q 376 36 339 18 q 433 74 414 54 q 442 49 442 64 q 397 9 442 32 q 279 -14 351 -14 m 297 -246 q 250 -242 271 -246 q 229 -237 229 -237 q 231 -224 229 -237 q 239 -206 232 -211 q 262 -207 246 -200 q 297 -214 278 -214 q 333 -203 317 -214 q 350 -161 350 -192 q 334 -119 350 -128 q 299 -111 318 -111 q 266 -115 282 -111 q 250 -118 250 -118 l 276 4 l 311 4 l 292 -85 q 299 -83 292 -85 q 318 -82 306 -82 q 362 -98 340 -82 q 383 -153 383 -114 q 353 -228 383 -211 q 297 -246 324 -246 z "},"d":{"ha":586,"x_min":69,"x_max":489,"o":"m 296 -14 q 182 8 233 -14 q 100 103 131 29 q 69 335 69 178 q 145 618 69 528 q 324 708 221 708 q 454 675 406 708 l 454 1000 q 463 1018 454 1015 q 489 1021 471 1021 l 489 28 q 405 -3 456 8 q 296 -14 354 -14 m 306 19 q 386 28 347 19 q 456 54 425 36 l 454 636 q 401 667 428 658 q 328 675 375 675 q 215 637 265 675 q 133 523 164 599 q 103 335 103 447 q 129 124 103 190 q 201 38 156 57 q 306 19 247 19 z "},"ð":{"ha":625,"x_min":65,"x_max":565,"o":"m 318 -14 q 130 74 194 -14 q 65 356 65 161 q 131 617 65 529 q 321 706 197 706 q 462 665 401 706 q 550 540 522 625 l 550 488 q 456 626 514 581 q 322 672 399 672 q 158 595 218 672 q 99 356 99 518 q 158 97 99 175 q 318 19 217 19 q 460 78 414 19 q 519 228 506 138 q 532 417 532 319 q 503 649 532 542 q 408 848 474 757 q 232 1013 342 939 q 251 1032 236 1032 q 269 1025 258 1032 q 495 767 425 917 q 565 401 565 618 q 548 199 565 294 q 478 45 531 104 q 318 -14 425 -14 m 232 849 q 223 876 224 869 q 232 886 222 882 l 486 989 q 495 961 494 967 q 486 951 496 956 l 232 849 z "},"ď":{"ha":626,"x_min":69,"x_max":635,"o":"m 296 -14 q 182 8 233 -14 q 100 103 131 29 q 69 335 69 178 q 145 618 69 528 q 324 708 221 708 q 454 675 406 708 l 454 1000 q 463 1018 454 1015 q 489 1021 471 1021 l 489 28 q 405 -3 456 8 q 296 -14 354 -14 m 306 19 q 386 28 347 19 q 456 54 425 36 l 454 636 q 401 667 428 658 q 328 675 375 675 q 215 637 265 675 q 133 523 164 599 q 103 335 103 447 q 129 124 103 190 q 201 38 156 57 q 306 19 247 19 m 574 693 q 556 710 558 693 q 579 805 572 749 q 585 896 586 861 q 564 936 564 908 q 574 965 564 954 q 600 975 583 975 q 625 967 615 975 q 635 928 635 958 q 624 835 635 892 q 598 736 613 779 q 574 693 583 693 z "},"đ":{"ha":553,"x_min":69,"x_max":564,"o":"m 296 -14 q 182 8 233 -14 q 100 103 131 29 q 69 335 69 178 q 145 618 69 528 q 324 708 221 708 q 454 675 406 708 l 454 1000 q 463 1018 454 1015 q 489 1021 471 1021 l 489 28 q 405 -3 456 8 q 296 -14 354 -14 m 306 19 q 386 28 347 19 q 456 54 425 36 l 454 636 q 401 667 428 658 q 328 675 375 675 q 215 637 265 675 q 133 523 164 599 q 103 335 103 447 q 129 124 103 190 q 201 38 156 57 q 306 19 247 19 m 229 851 q 228 861 228 857 q 228 869 228 865 q 243 886 231 886 l 563 886 q 564 868 564 879 q 559 856 563 860 q 549 851 556 851 l 229 851 z "},"e":{"ha":542,"x_min":65,"x_max":489,"o":"m 300 -14 q 180 7 233 -14 q 96 96 126 28 q 65 307 65 164 q 106 576 65 492 q 203 685 146 661 q 315 708 261 708 q 449 647 410 708 q 489 492 489 586 q 487 412 489 451 q 479 342 485 372 q 305 320 394 325 q 153 316 215 315 q 92 317 92 317 l 92 350 q 153 349 92 350 q 299 353 215 349 q 450 371 383 357 q 454 426 453 403 q 456 475 456 450 q 425 621 453 567 q 317 675 397 675 q 222 656 272 675 q 135 559 171 638 q 99 301 99 481 q 126 113 99 172 q 198 36 153 53 q 299 19 243 19 q 397 33 350 19 q 476 71 444 46 q 482 56 481 63 q 483 44 483 49 q 428 8 483 29 q 300 -14 372 -14 z "},"é":{"ha":542,"x_min":65,"x_max":489,"o":"m 300 -14 q 180 7 233 -14 q 96 96 126 28 q 65 307 65 164 q 106 576 65 492 q 203 685 146 661 q 315 708 261 708 q 449 647 410 708 q 489 492 489 586 q 487 412 489 451 q 479 342 485 372 q 305 320 394 325 q 153 316 215 315 q 92 317 92 317 l 92 350 q 153 349 92 350 q 299 353 215 349 q 450 371 383 357 q 454 426 453 403 q 456 475 456 450 q 425 621 453 567 q 317 675 397 675 q 222 656 272 675 q 135 559 171 638 q 99 301 99 481 q 126 113 99 172 q 198 36 153 53 q 299 19 243 19 q 397 33 350 19 q 476 71 444 46 q 482 56 481 63 q 483 44 483 49 q 428 8 483 29 q 300 -14 372 -14 m 214 804 q 207 815 214 804 q 200 826 200 826 q 290 906 246 869 q 364 966 335 943 q 393 989 393 989 q 406 973 401 989 q 411 957 411 957 q 384 934 411 957 q 312 876 357 911 q 214 804 267 842 z "},"ě":{"ha":542,"x_min":65,"x_max":489,"o":"m 300 -14 q 180 7 233 -14 q 96 96 126 28 q 65 307 65 164 q 106 576 65 492 q 203 685 146 661 q 315 708 261 708 q 449 647 410 708 q 489 492 489 586 q 487 412 489 451 q 479 342 485 372 q 305 320 394 325 q 153 316 215 315 q 92 317 92 317 l 92 350 q 153 349 92 350 q 299 353 215 349 q 450 371 383 357 q 454 426 453 403 q 456 475 456 450 q 425 621 453 567 q 317 675 397 675 q 222 656 272 675 q 135 559 171 638 q 99 301 99 481 q 126 113 99 172 q 198 36 153 53 q 299 19 243 19 q 397 33 350 19 q 476 71 444 46 q 482 56 481 63 q 483 44 483 49 q 428 8 483 29 q 300 -14 372 -14 m 317 814 q 265 854 307 814 q 185 935 224 894 q 146 975 146 975 q 153 985 146 975 q 169 994 160 994 q 211 958 175 994 q 281 885 247 922 q 315 849 315 849 q 404 952 360 901 q 449 1003 449 1003 q 465 981 465 990 q 431 934 465 975 q 360 853 397 893 q 317 814 324 814 z "},"ê":{"ha":542,"x_min":65,"x_max":489,"o":"m 300 -14 q 180 7 233 -14 q 96 96 126 28 q 65 307 65 164 q 106 576 65 492 q 203 685 146 661 q 315 708 261 708 q 449 647 410 708 q 489 492 489 586 q 487 412 489 451 q 479 342 485 372 q 305 320 394 325 q 153 316 215 315 q 92 317 92 317 l 92 350 q 153 349 92 350 q 299 353 215 349 q 450 371 383 357 q 454 426 453 403 q 456 475 456 450 q 425 621 453 567 q 317 675 397 675 q 222 656 272 675 q 135 559 171 638 q 99 301 99 481 q 126 113 99 172 q 198 36 153 53 q 299 19 243 19 q 397 33 350 19 q 476 71 444 46 q 482 56 481 63 q 483 44 483 49 q 428 8 483 29 q 300 -14 372 -14 m 433 806 q 402 839 433 806 q 340 905 371 872 q 310 938 310 938 q 278 905 310 938 q 212 840 246 872 q 174 807 178 807 q 153 816 160 807 q 147 825 147 825 l 300 968 q 311 971 303 971 q 331 961 321 971 q 364 928 331 961 q 431 861 397 894 q 464 828 464 828 q 455 817 464 828 q 433 806 446 806 z "},"ế":{"ha":542,"x_min":65,"x_max":668,"o":"m 300 -14 q 180 7 233 -14 q 96 96 126 28 q 65 307 65 164 q 106 576 65 492 q 203 685 146 661 q 315 708 261 708 q 449 647 410 708 q 489 492 489 586 q 487 412 489 451 q 479 342 485 372 q 305 320 394 325 q 153 316 215 315 q 92 317 92 317 l 92 350 q 153 349 92 350 q 299 353 215 349 q 450 371 383 357 q 454 426 453 403 q 456 475 456 450 q 425 621 453 567 q 317 675 397 675 q 222 656 272 675 q 135 559 171 638 q 99 301 99 481 q 126 113 99 172 q 198 36 153 53 q 299 19 243 19 q 397 33 350 19 q 476 71 444 46 q 482 56 481 63 q 483 44 483 49 q 428 8 483 29 q 300 -14 372 -14 z "},"ệ":{"ha":542,"x_min":65,"x_max":489,"o":"m 300 -14 q 180 7 233 -14 q 96 96 126 28 q 65 307 65 164 q 106 576 65 492 q 203 685 146 661 q 315 708 261 708 q 449 647 410 708 q 489 492 489 586 q 487 412 489 451 q 479 342 485 372 q 305 320 394 325 q 153 316 215 315 q 92 317 92 317 l 92 350 q 153 349 92 350 q 299 353 215 349 q 450 371 383 357 q 454 426 453 403 q 456 475 456 450 q 425 621 453 567 q 317 675 397 675 q 222 656 272 675 q 135 559 171 638 q 99 301 99 481 q 126 113 99 172 q 198 36 153 53 q 299 19 243 19 q 397 33 350 19 q 476 71 444 46 q 482 56 481 63 q 483 44 483 49 q 428 8 483 29 q 300 -14 372 -14 m 433 806 q 402 839 433 806 q 340 905 371 872 q 310 938 310 938 q 278 905 310 938 q 212 840 246 872 q 174 807 178 807 q 153 816 160 807 q 147 825 147 825 l 300 968 q 311 971 303 971 q 331 961 321 971 q 364 928 331 961 q 431 861 397 894 q 464 828 464 828 q 455 817 464 828 q 433 806 446 806 z "},"ề":{"ha":542,"x_min":65,"x_max":489,"o":"m 300 -14 q 180 7 233 -14 q 96 96 126 28 q 65 307 65 164 q 106 576 65 492 q 203 685 146 661 q 315 708 261 708 q 449 647 410 708 q 489 492 489 586 q 487 412 489 451 q 479 342 485 372 q 305 320 394 325 q 153 316 215 315 q 92 317 92 317 l 92 350 q 153 349 92 350 q 299 353 215 349 q 450 371 383 357 q 454 426 453 403 q 456 475 456 450 q 425 621 453 567 q 317 675 397 675 q 222 656 272 675 q 135 559 171 638 q 99 301 99 481 q 126 113 99 172 q 198 36 153 53 q 299 19 243 19 q 397 33 350 19 q 476 71 444 46 q 482 56 481 63 q 483 44 483 49 q 428 8 483 29 q 300 -14 372 -14 z "},"ể":{"ha":542,"x_min":65,"x_max":547,"o":"m 300 -14 q 180 7 233 -14 q 96 96 126 28 q 65 307 65 164 q 106 576 65 492 q 203 685 146 661 q 315 708 261 708 q 449 647 410 708 q 489 492 489 586 q 487 412 489 451 q 479 342 485 372 q 305 320 394 325 q 153 316 215 315 q 92 317 92 317 l 92 350 q 153 349 92 350 q 299 353 215 349 q 450 371 383 357 q 454 426 453 403 q 456 475 456 450 q 425 621 453 567 q 317 675 397 675 q 222 656 272 675 q 135 559 171 638 q 99 301 99 481 q 126 113 99 172 q 198 36 153 53 q 299 19 243 19 q 397 33 350 19 q 476 71 444 46 q 482 56 481 63 q 483 44 483 49 q 428 8 483 29 q 300 -14 372 -14 z "},"ễ":{"ha":542,"x_min":65,"x_max":518,"o":"m 300 -14 q 180 7 233 -14 q 96 96 126 28 q 65 307 65 164 q 106 576 65 492 q 203 685 146 661 q 315 708 261 708 q 449 647 410 708 q 489 492 489 586 q 487 412 489 451 q 479 342 485 372 q 305 320 394 325 q 153 316 215 315 q 92 317 92 317 l 92 350 q 153 349 92 350 q 299 353 215 349 q 450 371 383 357 q 454 426 453 403 q 456 475 456 450 q 425 621 453 567 q 317 675 397 675 q 222 656 272 675 q 135 559 171 638 q 99 301 99 481 q 126 113 99 172 q 198 36 153 53 q 299 19 243 19 q 397 33 350 19 q 476 71 444 46 q 482 56 481 63 q 483 44 483 49 q 428 8 483 29 q 300 -14 372 -14 z "},"ë":{"ha":542,"x_min":65,"x_max":489,"o":"m 300 -14 q 180 7 233 -14 q 96 96 126 28 q 65 307 65 164 q 106 576 65 492 q 203 685 146 661 q 315 708 261 708 q 449 647 410 708 q 489 492 489 586 q 487 412 489 451 q 479 342 485 372 q 305 320 394 325 q 153 316 215 315 q 92 317 92 317 l 92 350 q 153 349 92 350 q 299 353 215 349 q 450 371 383 357 q 454 426 453 403 q 456 475 456 450 q 425 621 453 567 q 317 675 397 675 q 222 656 272 675 q 135 559 171 638 q 99 301 99 481 q 126 113 99 172 q 198 36 153 53 q 299 19 243 19 q 397 33 350 19 q 476 71 444 46 q 482 56 481 63 q 483 44 483 49 q 428 8 483 29 q 300 -14 372 -14 m 235 853 q 215 864 221 854 q 211 892 210 874 q 238 931 213 931 q 258 919 251 931 q 263 889 264 908 q 235 853 260 853 m 374 853 q 354 864 360 854 q 350 892 349 874 q 376 931 351 931 q 397 919 390 931 q 401 889 403 908 q 374 853 399 853 z "},"ė":{"ha":542,"x_min":65,"x_max":489,"o":"m 300 -14 q 180 7 233 -14 q 96 96 126 28 q 65 307 65 164 q 106 576 65 492 q 203 685 146 661 q 315 708 261 708 q 449 647 410 708 q 489 492 489 586 q 487 412 489 451 q 479 342 485 372 q 305 320 394 325 q 153 316 215 315 q 92 317 92 317 l 92 350 q 153 349 92 350 q 299 353 215 349 q 450 371 383 357 q 454 426 453 403 q 456 475 456 450 q 425 621 453 567 q 317 675 397 675 q 222 656 272 675 q 135 559 171 638 q 99 301 99 481 q 126 113 99 172 q 198 36 153 53 q 299 19 243 19 q 397 33 350 19 q 476 71 444 46 q 482 56 481 63 q 483 44 483 49 q 428 8 483 29 q 300 -14 372 -14 m 304 853 q 285 864 290 854 q 281 892 279 874 q 288 921 282 911 q 307 931 294 931 q 327 919 321 931 q 332 889 333 908 q 304 853 329 853 z "},"ẹ":{"ha":542,"x_min":65,"x_max":489,"o":"m 300 -14 q 180 7 233 -14 q 96 96 126 28 q 65 307 65 164 q 106 576 65 492 q 203 685 146 661 q 315 708 261 708 q 449 647 410 708 q 489 492 489 586 q 487 412 489 451 q 479 342 485 372 q 305 320 394 325 q 153 316 215 315 q 92 317 92 317 l 92 350 q 153 349 92 350 q 299 353 215 349 q 450 371 383 357 q 454 426 453 403 q 456 475 456 450 q 425 621 453 567 q 317 675 397 675 q 222 656 272 675 q 135 559 171 638 q 99 301 99 481 q 126 113 99 172 q 198 36 153 53 q 299 19 243 19 q 397 33 350 19 q 476 71 444 46 q 482 56 481 63 q 483 44 483 49 q 428 8 483 29 q 300 -14 372 -14 z "},"è":{"ha":542,"x_min":65,"x_max":489,"o":"m 300 -14 q 180 7 233 -14 q 96 96 126 28 q 65 307 65 164 q 106 576 65 492 q 203 685 146 661 q 315 708 261 708 q 449 647 410 708 q 489 492 489 586 q 487 412 489 451 q 479 342 485 372 q 305 320 394 325 q 153 316 215 315 q 92 317 92 317 l 92 350 q 153 349 92 350 q 299 353 215 349 q 450 371 383 357 q 454 426 453 403 q 456 475 456 450 q 425 621 453 567 q 317 675 397 675 q 222 656 272 675 q 135 559 171 638 q 99 301 99 481 q 126 113 99 172 q 198 36 153 53 q 299 19 243 19 q 397 33 350 19 q 476 71 444 46 q 482 56 481 63 q 483 44 483 49 q 428 8 483 29 q 300 -14 372 -14 m 397 804 q 299 876 344 842 q 227 934 254 911 q 200 957 200 957 q 205 973 200 957 q 218 989 210 989 q 247 966 218 989 q 321 906 276 943 q 411 826 365 869 q 404 815 411 826 q 397 804 397 804 z "},"ẻ":{"ha":542,"x_min":65,"x_max":489,"o":"m 300 -14 q 180 7 233 -14 q 96 96 126 28 q 65 307 65 164 q 106 576 65 492 q 203 685 146 661 q 315 708 261 708 q 449 647 410 708 q 489 492 489 586 q 487 412 489 451 q 479 342 485 372 q 305 320 394 325 q 153 316 215 315 q 92 317 92 317 l 92 350 q 153 349 92 350 q 299 353 215 349 q 450 371 383 357 q 454 426 453 403 q 456 475 456 450 q 425 621 453 567 q 317 675 397 675 q 222 656 272 675 q 135 559 171 638 q 99 301 99 481 q 126 113 99 172 q 198 36 153 53 q 299 19 243 19 q 397 33 350 19 q 476 71 444 46 q 482 56 481 63 q 483 44 483 49 q 428 8 483 29 q 300 -14 372 -14 m 283 771 q 282 782 283 771 q 286 806 281 793 q 319 836 299 829 q 340 881 340 843 q 318 931 340 922 q 285 939 296 939 q 231 922 253 939 q 231 937 231 922 q 231 956 231 951 q 283 975 231 975 q 353 954 326 975 q 379 881 379 933 q 356 826 379 842 q 319 800 332 810 q 311 783 313 794 q 310 772 310 772 q 297 769 308 769 q 283 771 286 769 z "},"ē":{"ha":542,"x_min":65,"x_max":489,"o":"m 300 -14 q 180 7 233 -14 q 96 96 126 28 q 65 307 65 164 q 106 576 65 492 q 203 685 146 661 q 315 708 261 708 q 449 647 410 708 q 489 492 489 586 q 487 412 489 451 q 479 342 485 372 q 305 320 394 325 q 153 316 215 315 q 92 317 92 317 l 92 350 q 153 349 92 350 q 299 353 215 349 q 450 371 383 357 q 454 426 453 403 q 456 475 456 450 q 425 621 453 567 q 317 675 397 675 q 222 656 272 675 q 135 559 171 638 q 99 301 99 481 q 126 113 99 172 q 198 36 153 53 q 299 19 243 19 q 397 33 350 19 q 476 71 444 46 q 482 56 481 63 q 483 44 483 49 q 428 8 483 29 q 300 -14 372 -14 m 139 865 q 138 875 138 871 q 138 883 138 879 q 153 900 140 900 l 472 900 q 474 882 474 893 q 469 869 472 874 q 458 865 465 865 l 139 865 z "},"ę":{"ha":542,"x_min":65,"x_max":489,"o":"m 431 -271 q 358 -244 383 -271 q 333 -164 333 -217 q 353 -76 333 -118 q 397 -1 374 -33 q 351 -10 376 -7 q 300 -14 326 -14 q 180 7 233 -14 q 96 96 126 28 q 65 307 65 164 q 106 576 65 492 q 203 685 146 661 q 315 708 261 708 q 449 647 410 708 q 489 492 489 586 q 487 412 489 451 q 479 342 485 372 q 324 322 404 328 q 181 317 243 317 q 99 317 118 317 q 126 114 99 176 q 199 35 154 51 q 299 19 244 19 q 397 33 350 19 q 476 71 444 46 q 482 56 481 63 q 483 44 483 49 q 476 33 483 39 q 463 22 468 26 q 397 -56 426 -3 q 367 -164 367 -110 q 432 -237 367 -237 q 479 -225 454 -237 q 485 -235 483 -228 q 488 -246 488 -243 q 431 -271 488 -271 m 100 350 q 181 350 119 350 q 317 354 243 350 q 450 371 392 358 q 454 426 453 403 q 456 475 456 450 q 425 621 453 567 q 317 675 397 675 q 226 659 275 675 q 142 574 178 643 q 100 350 106 506 z "},"ẽ":{"ha":542,"x_min":65,"x_max":497,"o":"m 300 -14 q 180 7 233 -14 q 96 96 126 28 q 65 307 65 164 q 106 576 65 492 q 203 685 146 661 q 315 708 261 708 q 449 647 410 708 q 489 492 489 586 q 487 412 489 451 q 479 342 485 372 q 305 320 394 325 q 153 316 215 315 q 92 317 92 317 l 92 350 q 153 349 92 350 q 299 353 215 349 q 450 371 383 357 q 454 426 453 403 q 456 475 456 450 q 425 621 453 567 q 317 675 397 675 q 222 656 272 675 q 135 559 171 638 q 99 301 99 481 q 126 113 99 172 q 198 36 153 53 q 299 19 243 19 q 397 33 350 19 q 476 71 444 46 q 482 56 481 63 q 483 44 483 49 q 428 8 483 29 q 300 -14 372 -14 m 372 825 q 308 846 329 825 q 270 887 286 867 q 231 907 254 907 q 167 870 188 907 q 136 833 146 833 q 122 843 129 833 q 114 853 114 853 q 174 921 146 906 q 239 936 203 936 q 290 917 272 936 q 324 878 307 897 q 372 860 340 860 q 449 896 431 860 q 476 932 467 932 q 492 922 486 932 q 497 911 497 911 q 474 872 488 892 q 435 838 460 851 q 372 825 411 825 z "},"f":{"ha":335,"x_min":24,"x_max":469,"o":"m 142 0 l 142 661 l 24 661 q 26 689 24 683 q 38 694 28 694 l 142 694 l 142 788 q 177 946 142 894 q 263 1013 213 997 q 360 1028 314 1028 q 445 1017 421 1028 q 469 1000 469 1007 q 464 979 469 993 q 415 990 439 986 q 357 994 390 994 q 275 983 317 994 q 204 926 233 971 q 175 782 175 881 l 175 694 l 344 694 q 343 667 344 672 q 331 661 342 661 l 175 661 l 175 14 q 172 3 175 7 q 161 0 168 0 l 142 0 z "},"g":{"ha":575,"x_min":63,"x_max":551,"o":"m 281 -275 q 103 -231 144 -275 q 63 -131 63 -186 q 118 -9 63 -69 q 219 74 174 51 l 249 58 q 148 -22 200 36 q 96 -131 96 -79 q 129 -209 96 -176 q 281 -242 163 -242 q 458 -194 397 -242 q 518 -89 518 -147 q 469 -1 518 -21 q 363 25 419 19 q 167 60 249 38 q 86 124 86 82 q 124 196 86 156 q 196 256 163 236 l 226 242 q 156 186 192 222 q 119 126 119 150 q 190 85 119 103 q 365 56 260 67 q 494 21 436 47 q 551 -87 551 -6 q 484 -215 551 -156 q 281 -275 417 -275 m 301 214 q 125 290 165 214 q 85 461 85 367 q 152 645 85 582 q 310 708 219 708 q 350 705 324 708 q 396 694 376 701 l 407 678 q 494 615 463 664 q 526 486 526 565 q 474 297 526 381 q 301 214 422 214 m 306 247 q 448 324 403 247 q 493 486 493 401 q 444 628 493 582 q 310 675 394 675 q 176 622 233 675 q 118 458 118 568 q 150 315 118 382 q 306 247 182 247 m 526 671 q 467 672 500 671 q 410 674 433 672 q 386 675 386 675 l 338 701 l 546 701 q 547 698 546 701 q 549 689 549 694 q 526 671 549 671 z "},"ğ":{"ha":575,"x_min":63,"x_max":551,"o":"m 281 -275 q 103 -231 144 -275 q 63 -131 63 -186 q 118 -9 63 -69 q 219 74 174 51 l 249 58 q 148 -22 200 36 q 96 -131 96 -79 q 129 -209 96 -176 q 281 -242 163 -242 q 458 -194 397 -242 q 518 -89 518 -147 q 469 -1 518 -21 q 363 25 419 19 q 167 60 249 38 q 86 124 86 82 q 124 196 86 156 q 196 256 163 236 l 226 242 q 156 186 192 222 q 119 126 119 150 q 190 85 119 103 q 365 56 260 67 q 494 21 436 47 q 551 -87 551 -6 q 484 -215 551 -156 q 281 -275 417 -275 m 301 214 q 125 290 165 214 q 85 461 85 367 q 152 645 85 582 q 310 708 219 708 q 350 705 324 708 q 396 694 376 701 l 407 678 q 494 615 463 664 q 526 486 526 565 q 474 297 526 381 q 301 214 422 214 m 306 247 q 448 324 403 247 q 493 486 493 401 q 444 628 493 582 q 310 675 394 675 q 176 622 233 675 q 118 458 118 568 q 150 315 118 382 q 306 247 182 247 m 526 671 q 467 672 500 671 q 410 674 433 672 q 386 675 386 675 l 338 701 l 546 701 q 547 698 546 701 q 549 689 549 694 q 526 671 549 671 m 301 813 q 213 845 247 813 q 160 915 178 878 q 143 964 143 951 q 169 982 143 979 q 212 895 182 944 q 303 846 242 846 q 386 887 361 846 q 426 968 411 928 q 445 979 432 983 q 461 963 458 975 q 413 866 449 919 q 301 813 378 813 z "},"ģ":{"ha":575,"x_min":63,"x_max":551,"o":"m 281 -275 q 103 -231 144 -275 q 63 -131 63 -186 q 118 -9 63 -69 q 219 74 174 51 l 249 58 q 148 -22 200 36 q 96 -131 96 -79 q 129 -209 96 -176 q 281 -242 163 -242 q 458 -194 397 -242 q 518 -89 518 -147 q 469 -1 518 -21 q 363 25 419 19 q 167 60 249 38 q 86 124 86 82 q 124 196 86 156 q 196 256 163 236 l 226 242 q 156 186 192 222 q 119 126 119 150 q 190 85 119 103 q 365 56 260 67 q 494 21 436 47 q 551 -87 551 -6 q 484 -215 551 -156 q 281 -275 417 -275 m 301 214 q 125 290 165 214 q 85 461 85 367 q 152 645 85 582 q 310 708 219 708 q 350 705 324 708 q 396 694 376 701 l 407 678 q 494 615 463 664 q 526 486 526 565 q 474 297 526 381 q 301 214 422 214 m 306 247 q 448 324 403 247 q 493 486 493 401 q 444 628 493 582 q 310 675 394 675 q 176 622 233 675 q 118 458 118 568 q 150 315 118 382 q 306 247 182 247 m 526 671 q 467 672 500 671 q 410 674 433 672 q 386 675 386 675 l 338 701 l 546 701 q 547 698 546 701 q 549 689 549 694 q 526 671 549 671 z "},"h":{"ha":576,"x_min":92,"x_max":501,"o":"m 92 0 l 92 1000 q 99 1018 92 1015 q 125 1021 106 1021 l 125 643 q 225 693 172 678 q 325 708 278 708 q 467 656 433 708 q 501 518 501 604 l 501 14 q 497 1 501 3 q 468 0 493 0 l 468 518 q 440 633 468 590 q 322 675 411 675 q 224 658 279 675 q 125 597 169 642 l 125 14 q 120 1 125 3 q 92 0 115 0 z "},"i":{"ha":231,"x_min":89,"x_max":143,"o":"m 99 0 l 99 674 q 106 692 99 689 q 132 694 113 694 l 132 14 q 128 1 132 3 q 99 0 124 0 m 114 853 q 94 864 100 854 q 90 892 89 874 q 98 921 92 911 q 117 931 104 931 q 137 919 131 931 q 142 889 143 908 q 114 853 139 853 z "},"ı":{"ha":231,"x_min":99,"x_max":132,"o":"m 99 0 l 99 674 q 106 692 99 689 q 132 694 113 694 l 132 14 q 128 1 132 3 q 99 0 124 0 z "},"í":{"ha":231,"x_min":10,"x_max":221,"o":"m 99 0 l 99 674 q 106 692 99 689 q 132 694 113 694 l 132 14 q 128 1 132 3 q 99 0 124 0 m 24 804 q 17 815 24 804 q 10 826 10 826 q 100 906 56 869 q 174 966 144 943 q 203 989 203 989 q 216 973 211 989 q 221 957 221 957 q 194 934 221 957 q 122 876 167 911 q 24 804 76 842 z "},"î":{"ha":231,"x_min":-43,"x_max":274,"o":"m 99 0 l 99 674 q 106 692 99 689 q 132 694 113 694 l 132 14 q 128 1 132 3 q 99 0 124 0 m 243 806 q 212 839 243 806 q 150 905 181 872 q 119 938 119 938 q 88 905 119 938 q 22 840 56 872 q -17 807 -12 807 q -37 816 -31 807 q -43 825 -43 825 l 110 968 q 121 971 113 971 q 140 961 131 971 q 174 928 140 961 q 240 861 207 894 q 274 828 274 828 q 265 817 274 828 q 243 806 256 806 z "},"ï":{"ha":231,"x_min":19,"x_max":213,"o":"m 99 0 l 99 674 q 106 692 99 689 q 132 694 113 694 l 132 14 q 128 1 132 3 q 99 0 124 0 m 44 853 q 25 864 31 854 q 21 892 19 874 q 47 931 22 931 q 67 919 61 931 q 72 889 74 908 q 44 853 69 853 m 183 853 q 164 864 169 854 q 160 892 158 874 q 186 931 161 931 q 206 919 200 931 q 211 889 213 908 q 183 853 208 853 z "},"ị":{"ha":231,"x_min":89,"x_max":143,"o":"m 99 0 l 99 674 q 106 692 99 689 q 132 694 113 694 l 132 14 q 128 1 132 3 q 99 0 124 0 m 114 853 q 94 864 100 854 q 90 892 89 874 q 98 921 92 911 q 117 931 104 931 q 137 919 131 931 q 142 889 143 908 q 114 853 139 853 z "},"ì":{"ha":231,"x_min":10,"x_max":221,"o":"m 99 0 l 99 674 q 106 692 99 689 q 132 694 113 694 l 132 14 q 128 1 132 3 q 99 0 124 0 m 207 804 q 109 876 154 842 q 37 934 64 911 q 10 957 10 957 q 15 973 10 957 q 28 989 19 989 q 57 966 28 989 q 131 906 86 943 q 221 826 175 869 q 214 815 221 826 q 207 804 207 804 z "},"ỉ":{"ha":231,"x_min":40,"x_max":189,"o":"m 99 0 l 99 674 q 106 692 99 689 q 132 694 113 694 l 132 14 q 128 1 132 3 q 99 0 124 0 m 93 771 q 92 782 93 771 q 96 806 90 793 q 129 836 108 829 q 150 881 150 843 q 128 931 150 922 q 94 939 106 939 q 40 922 63 939 q 40 937 40 922 q 40 956 40 951 q 93 975 40 975 q 163 954 136 975 q 189 881 189 933 q 165 826 189 842 q 129 800 142 810 q 121 783 122 794 q 119 772 119 772 q 107 769 118 769 q 93 771 96 769 z "},"ĳ":{"ha":479,"x_min":57,"x_max":383,"o":"m 99 0 l 99 674 q 106 692 99 689 q 132 694 113 694 l 132 14 q 128 1 132 3 q 99 0 124 0 m 114 853 q 94 864 100 854 q 90 892 89 874 q 98 921 92 911 q 117 931 104 931 q 137 919 131 931 q 142 889 143 908 q 114 853 139 853 z "},"ī":{"ha":231,"x_min":3,"x_max":228,"o":"m 99 0 l 99 674 q 106 692 99 689 q 132 694 113 694 l 132 14 q 128 1 132 3 q 99 0 124 0 m 4 865 q 3 875 3 871 q 3 883 3 879 q 18 900 3 900 l 226 900 q 228 882 228 893 q 224 869 228 874 q 213 865 219 865 l 4 865 z "},"į":{"ha":231,"x_min":-4,"x_max":151,"o":"m 94 -271 q 21 -244 46 -271 q -4 -168 -4 -217 q 26 -63 -4 -108 q 97 17 57 -18 l 97 672 q 102 692 97 689 q 133 694 107 694 l 133 14 q 115 -8 133 4 q 56 -76 83 -33 q 29 -169 29 -119 q 94 -237 29 -237 q 142 -225 117 -237 q 150 -246 150 -233 q 135 -264 151 -257 q 94 -271 119 -271 m 114 853 q 94 864 100 854 q 90 892 89 874 q 98 921 92 911 q 117 931 104 931 q 137 919 131 931 q 142 889 143 908 q 114 853 139 853 z "},"ĩ":{"ha":231,"x_min":-76,"x_max":307,"o":"m 99 0 l 99 674 q 106 692 99 689 q 132 694 113 694 l 132 14 q 128 1 132 3 q 99 0 124 0 m 182 825 q 117 846 139 825 q 80 887 96 867 q 40 907 64 907 q -24 870 -3 907 q -54 833 -44 833 q -69 843 -61 833 q -76 853 -76 853 q -16 921 -44 906 q 49 936 13 936 q 99 917 82 936 q 133 878 117 897 q 182 860 150 860 q 258 896 240 860 q 286 932 276 932 q 301 922 296 932 q 307 911 307 911 q 283 872 297 892 q 245 838 269 851 q 182 825 221 825 z "},"j":{"ha":249,"x_min":-174,"x_max":153,"o":"m -19 -269 q -133 -250 -92 -269 q -174 -215 -174 -231 q -165 -190 -174 -201 q -106 -222 -142 -208 q -15 -236 -71 -236 q 87 -185 67 -236 q 107 -39 107 -133 l 107 674 q 114 692 107 689 q 140 694 121 694 l 140 -51 q 111 -210 140 -150 q -19 -269 82 -269 m 124 853 q 104 864 110 854 q 100 892 99 874 q 108 921 101 911 q 126 931 114 931 q 147 919 140 931 q 151 889 153 908 q 124 853 149 853 z "},"ȷ":{"ha":249,"x_min":-174,"x_max":140,"o":"m -19 -269 q -133 -250 -92 -269 q -174 -215 -174 -231 q -165 -190 -174 -201 q -106 -222 -142 -208 q -15 -236 -71 -236 q 87 -185 67 -236 q 107 -39 107 -133 l 107 674 q 114 692 107 689 q 140 694 121 694 l 140 -51 q 111 -210 140 -150 q -19 -269 82 -269 z "},"k":{"ha":561,"x_min":97,"x_max":518,"o":"m 97 0 l 97 1000 q 104 1018 97 1015 q 131 1021 111 1021 l 131 599 q 243 681 178 654 q 353 708 308 708 q 448 678 418 708 q 478 585 478 647 q 441 469 478 517 q 360 396 404 422 q 297 361 317 369 q 410 333 339 371 q 504 178 481 296 q 506 18 518 108 q 499 2 503 4 q 469 0 496 0 q 475 133 481 78 q 454 226 469 189 q 344 326 417 317 q 236 326 272 336 q 172 304 214 319 q 131 289 131 289 l 131 14 q 128 1 131 3 q 97 0 125 0 m 131 325 q 351 428 258 364 q 444 585 444 492 q 350 675 444 675 q 244 649 301 675 q 131 558 186 622 l 131 325 z "},"ķ":{"ha":561,"x_min":97,"x_max":518,"o":"m 97 0 l 97 1000 q 104 1018 97 1015 q 131 1021 111 1021 l 131 599 q 243 681 178 654 q 353 708 308 708 q 448 678 418 708 q 478 585 478 647 q 441 469 478 517 q 360 396 404 422 q 297 361 317 369 q 410 333 339 371 q 504 178 481 296 q 506 18 518 108 q 499 2 503 4 q 469 0 496 0 q 475 133 481 78 q 454 226 469 189 q 344 326 417 317 q 236 326 272 336 q 172 304 214 319 q 131 289 131 289 l 131 14 q 128 1 131 3 q 97 0 125 0 m 131 325 q 351 428 258 364 q 444 585 444 492 q 350 675 444 675 q 244 649 301 675 q 131 558 186 622 l 131 325 z "},"l":{"ha":229,"x_min":97,"x_max":131,"o":"m 97 0 l 97 1000 q 104 1018 97 1015 q 131 1021 111 1021 l 131 14 q 126 1 131 3 q 97 0 121 0 z "},"ĺ":{"ha":229,"x_min":10,"x_max":221,"o":"m 97 0 l 97 1000 q 104 1018 97 1015 q 131 1021 111 1021 l 131 14 q 126 1 131 3 q 97 0 121 0 m 24 1131 q 17 1142 24 1131 q 10 1153 10 1153 q 100 1233 56 1196 q 174 1292 144 1269 q 203 1315 203 1315 q 216 1299 211 1315 q 221 1283 221 1283 q 194 1260 221 1283 q 122 1203 167 1238 q 24 1131 76 1168 z "},"ľ":{"ha":229,"x_min":97,"x_max":131,"o":"m 97 0 l 97 1000 q 104 1018 97 1015 q 131 1021 111 1021 l 131 14 q 126 1 131 3 q 97 0 121 0 z "},"ļ":{"ha":229,"x_min":68,"x_max":161,"o":"m 97 0 l 97 1000 q 104 1018 97 1015 q 131 1021 111 1021 l 131 14 q 126 1 131 3 q 97 0 121 0 z "},"ŀ":{"ha":228,"x_min":97,"x_max":263,"o":"m 97 0 l 97 1000 q 104 1018 97 1015 q 131 1021 111 1021 l 131 14 q 126 1 131 3 q 97 0 121 0 m 222 332 q 194 344 204 332 q 185 375 185 356 q 194 404 185 392 q 222 417 204 417 q 251 404 240 417 q 263 375 263 392 q 251 344 263 356 q 222 332 240 332 z "},"ł":{"ha":229,"x_min":3,"x_max":225,"o":"m 97 0 l 97 1000 q 104 1018 97 1015 q 131 1021 111 1021 l 131 14 q 128 1 131 3 q 97 0 125 0 m 13 576 q 3 603 4 597 q 13 614 3 610 l 215 696 q 224 668 224 674 q 215 658 225 663 l 13 576 z "},"m":{"ha":868,"x_min":97,"x_max":779,"o":"m 97 0 l 97 663 q 203 697 153 686 q 299 708 253 708 q 437 655 417 708 q 457 511 457 601 l 457 14 q 453 1 457 3 q 424 0 449 0 l 424 510 q 408 633 424 592 q 300 675 393 675 q 219 667 261 675 q 131 638 178 660 l 131 14 q 125 1 131 3 q 97 0 119 0 m 424 0 l 424 644 q 526 693 474 678 q 625 708 579 708 q 753 656 726 708 q 779 500 779 603 l 779 14 q 775 1 779 3 q 746 0 771 0 l 746 510 q 724 635 746 594 q 626 675 703 675 q 544 665 586 675 q 457 624 501 654 l 457 14 q 452 1 457 3 q 424 0 447 0 z "},"n":{"ha":586,"x_min":93,"x_max":508,"o":"m 93 0 l 93 658 q 206 694 150 681 q 322 708 261 708 q 474 657 439 708 q 508 511 508 606 l 508 14 q 504 1 508 3 q 475 0 500 0 l 475 506 q 446 633 475 592 q 324 675 417 675 q 226 665 283 675 q 126 635 169 656 l 126 14 q 122 1 126 3 q 93 0 117 0 z "},"ń":{"ha":586,"x_min":93,"x_max":508,"o":"m 93 0 l 93 658 q 206 694 150 681 q 322 708 261 708 q 474 657 439 708 q 508 511 508 606 l 508 14 q 504 1 508 3 q 475 0 500 0 l 475 506 q 446 633 475 592 q 324 675 417 675 q 226 665 283 675 q 126 635 169 656 l 126 14 q 122 1 126 3 q 93 0 117 0 m 201 804 q 194 815 201 804 q 188 826 188 826 q 278 906 233 869 q 351 966 322 943 q 381 989 381 989 q 394 973 389 989 q 399 957 399 957 q 372 934 399 957 q 299 876 344 911 q 201 804 254 842 z "},"ŉ":{"ha":586,"x_min":93,"x_max":508,"o":"m 93 0 l 93 658 q 206 694 150 681 q 322 708 261 708 q 474 657 439 708 q 508 511 508 606 l 508 14 q 504 1 508 3 q 475 0 500 0 l 475 506 q 446 633 475 592 q 324 675 417 675 q 226 665 283 675 q 126 635 169 656 l 126 14 q 122 1 126 3 q 93 0 117 0 m 122 799 q 104 815 107 799 q 128 910 121 854 q 133 1001 135 967 q 113 1042 113 1014 q 122 1070 113 1060 q 149 1081 132 1081 q 174 1072 164 1081 q 183 1033 183 1064 q 172 941 183 997 q 147 842 161 885 q 122 799 132 799 z "},"ň":{"ha":586,"x_min":93,"x_max":508,"o":"m 93 0 l 93 658 q 206 694 150 681 q 322 708 261 708 q 474 657 439 708 q 508 511 508 606 l 508 14 q 504 1 508 3 q 475 0 500 0 l 475 506 q 446 633 475 592 q 324 675 417 675 q 226 665 283 675 q 126 635 169 656 l 126 14 q 122 1 126 3 q 93 0 117 0 m 304 814 q 253 854 294 814 q 172 935 211 894 q 133 975 133 975 q 140 985 133 975 q 157 994 147 994 q 199 958 163 994 q 269 885 235 922 q 303 849 303 849 q 392 952 347 901 q 436 1003 436 1003 q 453 981 453 990 q 419 934 453 975 q 348 853 385 893 q 304 814 311 814 z "},"ņ":{"ha":586,"x_min":93,"x_max":508,"o":"m 93 0 l 93 658 q 206 694 150 681 q 322 708 261 708 q 474 657 439 708 q 508 511 508 606 l 508 14 q 504 1 508 3 q 475 0 500 0 l 475 506 q 446 633 475 592 q 324 675 417 675 q 226 665 283 675 q 126 635 169 656 l 126 14 q 122 1 126 3 q 93 0 117 0 z "},"ñ":{"ha":586,"x_min":93,"x_max":508,"o":"m 93 0 l 93 658 q 206 694 150 681 q 322 708 261 708 q 474 657 439 708 q 508 511 508 606 l 508 14 q 504 1 508 3 q 475 0 500 0 l 475 506 q 446 633 475 592 q 324 675 417 675 q 226 665 283 675 q 126 635 169 656 l 126 14 q 122 1 126 3 q 93 0 117 0 m 360 825 q 295 846 317 825 q 258 887 274 867 q 218 907 242 907 q 154 870 175 907 q 124 833 133 833 q 109 843 117 833 q 101 853 101 853 q 162 921 133 906 q 226 936 190 936 q 277 917 260 936 q 311 878 294 897 q 360 860 328 860 q 436 896 418 860 q 464 932 454 932 q 479 922 474 932 q 485 911 485 911 q 461 872 475 892 q 423 838 447 851 q 360 825 399 825 z "},"o":{"ha":557,"x_min":56,"x_max":501,"o":"m 271 -14 q 158 10 207 -14 q 83 110 110 33 q 56 344 56 186 q 118 624 56 539 q 288 708 181 708 q 447 633 393 708 q 501 344 501 558 q 441 75 501 164 q 271 -14 381 -14 m 272 19 q 415 102 363 19 q 468 350 468 185 q 419 610 468 546 q 286 675 371 675 q 143 600 197 675 q 89 335 89 525 q 137 82 89 144 q 272 19 185 19 z "},"ó":{"ha":557,"x_min":56,"x_max":501,"o":"m 271 -14 q 158 10 207 -14 q 83 110 110 33 q 56 344 56 186 q 118 624 56 539 q 288 708 181 708 q 447 633 393 708 q 501 344 501 558 q 441 75 501 164 q 271 -14 381 -14 m 272 19 q 415 102 363 19 q 468 350 468 185 q 419 610 468 546 q 286 675 371 675 q 143 600 197 675 q 89 335 89 525 q 137 82 89 144 q 272 19 185 19 m 194 804 q 188 815 194 804 q 181 826 181 826 q 271 906 226 869 q 344 966 315 943 q 374 989 374 989 q 387 973 382 989 q 392 957 392 957 q 365 934 392 957 q 292 876 338 911 q 194 804 247 842 z "},"ô":{"ha":557,"x_min":56,"x_max":501,"o":"m 271 -14 q 158 10 207 -14 q 83 110 110 33 q 56 344 56 186 q 118 624 56 539 q 288 708 181 708 q 447 633 393 708 q 501 344 501 558 q 441 75 501 164 q 271 -14 381 -14 m 272 19 q 415 102 363 19 q 468 350 468 185 q 419 610 468 546 q 286 675 371 675 q 143 600 197 675 q 89 335 89 525 q 137 82 89 144 q 272 19 185 19 m 414 806 q 383 839 414 806 q 321 905 351 872 q 290 938 290 938 q 258 905 290 938 q 192 840 226 872 q 154 807 158 807 q 134 816 140 807 q 128 825 128 825 l 281 968 q 292 971 283 971 q 311 961 301 971 q 344 928 311 961 q 411 861 378 894 q 444 828 444 828 q 435 817 444 828 q 414 806 426 806 z "},"ố":{"ha":557,"x_min":56,"x_max":649,"o":"m 271 -14 q 158 10 207 -14 q 83 110 110 33 q 56 344 56 186 q 118 624 56 539 q 288 708 181 708 q 447 633 393 708 q 501 344 501 558 q 441 75 501 164 q 271 -14 381 -14 m 272 19 q 415 102 363 19 q 468 350 468 185 q 419 610 468 546 q 286 675 371 675 q 143 600 197 675 q 89 335 89 525 q 137 82 89 144 q 272 19 185 19 z "},"ộ":{"ha":557,"x_min":56,"x_max":501,"o":"m 271 -14 q 158 10 207 -14 q 83 110 110 33 q 56 344 56 186 q 118 624 56 539 q 288 708 181 708 q 447 633 393 708 q 501 344 501 558 q 441 75 501 164 q 271 -14 381 -14 m 272 19 q 415 102 363 19 q 468 350 468 185 q 419 610 468 546 q 286 675 371 675 q 143 600 197 675 q 89 335 89 525 q 137 82 89 144 q 272 19 185 19 m 414 806 q 383 839 414 806 q 321 905 351 872 q 290 938 290 938 q 258 905 290 938 q 192 840 226 872 q 154 807 158 807 q 134 816 140 807 q 128 825 128 825 l 281 968 q 292 971 283 971 q 311 961 301 971 q 344 928 311 961 q 411 861 378 894 q 444 828 444 828 q 435 817 444 828 q 414 806 426 806 z "},"ồ":{"ha":557,"x_min":56,"x_max":501,"o":"m 271 -14 q 158 10 207 -14 q 83 110 110 33 q 56 344 56 186 q 118 624 56 539 q 288 708 181 708 q 447 633 393 708 q 501 344 501 558 q 441 75 501 164 q 271 -14 381 -14 m 272 19 q 415 102 363 19 q 468 350 468 185 q 419 610 468 546 q 286 675 371 675 q 143 600 197 675 q 89 335 89 525 q 137 82 89 144 q 272 19 185 19 z "},"ổ":{"ha":557,"x_min":56,"x_max":528,"o":"m 271 -14 q 158 10 207 -14 q 83 110 110 33 q 56 344 56 186 q 118 624 56 539 q 288 708 181 708 q 447 633 393 708 q 501 344 501 558 q 441 75 501 164 q 271 -14 381 -14 m 272 19 q 415 102 363 19 q 468 350 468 185 q 419 610 468 546 q 286 675 371 675 q 143 600 197 675 q 89 335 89 525 q 137 82 89 144 q 272 19 185 19 z "},"ỗ":{"ha":557,"x_min":56,"x_max":501,"o":"m 271 -14 q 158 10 207 -14 q 83 110 110 33 q 56 344 56 186 q 118 624 56 539 q 288 708 181 708 q 447 633 393 708 q 501 344 501 558 q 441 75 501 164 q 271 -14 381 -14 m 272 19 q 415 102 363 19 q 468 350 468 185 q 419 610 468 546 q 286 675 371 675 q 143 600 197 675 q 89 335 89 525 q 137 82 89 144 q 272 19 185 19 z "},"ö":{"ha":557,"x_min":56,"x_max":501,"o":"m 271 -14 q 158 10 207 -14 q 83 110 110 33 q 56 344 56 186 q 118 624 56 539 q 288 708 181 708 q 447 633 393 708 q 501 344 501 558 q 441 75 501 164 q 271 -14 381 -14 m 272 19 q 415 102 363 19 q 468 350 468 185 q 419 610 468 546 q 286 675 371 675 q 143 600 197 675 q 89 335 89 525 q 137 82 89 144 q 272 19 185 19 m 215 853 q 196 864 201 854 q 192 892 190 874 q 218 931 193 931 q 238 919 232 931 q 243 889 244 908 q 215 853 240 853 m 354 853 q 335 864 340 854 q 331 892 329 874 q 357 931 332 931 q 377 919 371 931 q 382 889 383 908 q 354 853 379 853 z "},"ọ":{"ha":557,"x_min":56,"x_max":501,"o":"m 271 -14 q 158 10 207 -14 q 83 110 110 33 q 56 344 56 186 q 118 624 56 539 q 288 708 181 708 q 447 633 393 708 q 501 344 501 558 q 441 75 501 164 q 271 -14 381 -14 m 272 19 q 415 102 363 19 q 468 350 468 185 q 419 610 468 546 q 286 675 371 675 q 143 600 197 675 q 89 335 89 525 q 137 82 89 144 q 272 19 185 19 z "},"ò":{"ha":557,"x_min":56,"x_max":501,"o":"m 271 -14 q 158 10 207 -14 q 83 110 110 33 q 56 344 56 186 q 118 624 56 539 q 288 708 181 708 q 447 633 393 708 q 501 344 501 558 q 441 75 501 164 q 271 -14 381 -14 m 272 19 q 415 102 363 19 q 468 350 468 185 q 419 610 468 546 q 286 675 371 675 q 143 600 197 675 q 89 335 89 525 q 137 82 89 144 q 272 19 185 19 m 378 804 q 280 876 325 842 q 208 934 235 911 q 181 957 181 957 q 185 973 181 957 q 199 989 190 989 q 228 966 199 989 q 301 906 257 943 q 392 826 346 869 q 385 815 392 826 q 378 804 378 804 z "},"ỏ":{"ha":557,"x_min":56,"x_max":501,"o":"m 271 -14 q 158 10 207 -14 q 83 110 110 33 q 56 344 56 186 q 118 624 56 539 q 288 708 181 708 q 447 633 393 708 q 501 344 501 558 q 441 75 501 164 q 271 -14 381 -14 m 272 19 q 415 102 363 19 q 468 350 468 185 q 419 610 468 546 q 286 675 371 675 q 143 600 197 675 q 89 335 89 525 q 137 82 89 144 q 272 19 185 19 m 264 771 q 263 782 264 771 q 267 806 261 793 q 300 836 279 829 q 321 881 321 843 q 299 931 321 922 q 265 939 276 939 q 211 922 233 939 q 211 937 211 922 q 211 956 211 951 q 264 975 211 975 q 333 954 307 975 q 360 881 360 933 q 336 826 360 842 q 300 800 313 810 q 292 783 293 794 q 290 772 290 772 q 278 769 289 769 q 264 771 267 769 z "},"ơ":{"ha":557,"x_min":56,"x_max":501,"o":"m 271 -14 q 158 10 207 -14 q 83 110 110 33 q 56 344 56 186 q 118 624 56 539 q 288 708 181 708 q 447 633 393 708 q 501 344 501 558 q 441 75 501 164 q 271 -14 381 -14 m 272 19 q 415 102 363 19 q 468 350 468 185 q 419 610 468 546 q 286 675 371 675 q 143 600 197 675 q 89 335 89 525 q 137 82 89 144 q 272 19 185 19 m 365 660 l 367 693 q 442 719 425 693 q 460 786 460 744 q 468 798 460 796 q 485 795 476 800 q 494 781 494 790 q 485 723 496 750 q 444 678 474 696 q 365 660 415 660 z "},"ớ":{"ha":557,"x_min":56,"x_max":501,"o":"m 271 -14 q 158 10 207 -14 q 83 110 110 33 q 56 344 56 186 q 118 624 56 539 q 288 708 181 708 q 447 633 393 708 q 501 344 501 558 q 441 75 501 164 q 271 -14 381 -14 m 272 19 q 415 102 363 19 q 468 350 468 185 q 419 610 468 546 q 286 675 371 675 q 143 600 197 675 q 89 335 89 525 q 137 82 89 144 q 272 19 185 19 m 365 660 l 367 693 q 442 719 425 693 q 460 786 460 744 q 468 798 460 796 q 485 795 476 800 q 494 781 494 790 q 485 723 496 750 q 444 678 474 696 q 365 660 415 660 m 194 804 q 188 815 194 804 q 181 826 181 826 q 271 906 226 869 q 344 966 315 943 q 374 989 374 989 q 387 973 382 989 q 392 957 392 957 q 365 934 392 957 q 292 876 338 911 q 194 804 247 842 z "},"ợ":{"ha":557,"x_min":56,"x_max":501,"o":"m 271 -14 q 158 10 207 -14 q 83 110 110 33 q 56 344 56 186 q 118 624 56 539 q 288 708 181 708 q 447 633 393 708 q 501 344 501 558 q 441 75 501 164 q 271 -14 381 -14 m 272 19 q 415 102 363 19 q 468 350 468 185 q 419 610 468 546 q 286 675 371 675 q 143 600 197 675 q 89 335 89 525 q 137 82 89 144 q 272 19 185 19 m 365 660 l 367 693 q 442 719 425 693 q 460 786 460 744 q 468 798 460 796 q 485 795 476 800 q 494 781 494 790 q 485 723 496 750 q 444 678 474 696 q 365 660 415 660 z "},"ờ":{"ha":557,"x_min":56,"x_max":501,"o":"m 271 -14 q 158 10 207 -14 q 83 110 110 33 q 56 344 56 186 q 118 624 56 539 q 288 708 181 708 q 447 633 393 708 q 501 344 501 558 q 441 75 501 164 q 271 -14 381 -14 m 272 19 q 415 102 363 19 q 468 350 468 185 q 419 610 468 546 q 286 675 371 675 q 143 600 197 675 q 89 335 89 525 q 137 82 89 144 q 272 19 185 19 m 365 660 l 367 693 q 442 719 425 693 q 460 786 460 744 q 468 798 460 796 q 485 795 476 800 q 494 781 494 790 q 485 723 496 750 q 444 678 474 696 q 365 660 415 660 z "},"ở":{"ha":557,"x_min":56,"x_max":501,"o":"m 271 -14 q 158 10 207 -14 q 83 110 110 33 q 56 344 56 186 q 118 624 56 539 q 288 708 181 708 q 447 633 393 708 q 501 344 501 558 q 441 75 501 164 q 271 -14 381 -14 m 272 19 q 415 102 363 19 q 468 350 468 185 q 419 610 468 546 q 286 675 371 675 q 143 600 197 675 q 89 335 89 525 q 137 82 89 144 q 272 19 185 19 m 365 660 l 367 693 q 442 719 425 693 q 460 786 460 744 q 468 798 460 796 q 485 795 476 800 q 494 781 494 790 q 485 723 496 750 q 444 678 474 696 q 365 660 415 660 m 264 771 q 263 782 264 771 q 267 806 261 793 q 300 836 279 829 q 321 881 321 843 q 299 931 321 922 q 265 939 276 939 q 211 922 233 939 q 211 937 211 922 q 211 956 211 951 q 264 975 211 975 q 333 954 307 975 q 360 881 360 933 q 336 826 360 842 q 300 800 313 810 q 292 783 293 794 q 290 772 290 772 q 278 769 289 769 q 264 771 267 769 z "},"ỡ":{"ha":557,"x_min":56,"x_max":501,"o":"m 271 -14 q 158 10 207 -14 q 83 110 110 33 q 56 344 56 186 q 118 624 56 539 q 288 708 181 708 q 447 633 393 708 q 501 344 501 558 q 441 75 501 164 q 271 -14 381 -14 m 272 19 q 415 102 363 19 q 468 350 468 185 q 419 610 468 546 q 286 675 371 675 q 143 600 197 675 q 89 335 89 525 q 137 82 89 144 q 272 19 185 19 m 365 660 l 367 693 q 442 719 425 693 q 460 786 460 744 q 468 798 460 796 q 485 795 476 800 q 494 781 494 790 q 485 723 496 750 q 444 678 474 696 q 365 660 415 660 m 353 825 q 288 846 310 825 q 251 887 267 867 q 211 907 235 907 q 147 870 168 907 q 117 833 126 833 q 102 843 110 833 q 94 853 94 853 q 155 921 126 906 q 219 936 183 936 q 270 917 253 936 q 304 878 288 897 q 353 860 321 860 q 429 896 411 860 q 457 932 447 932 q 472 922 467 932 q 478 911 478 911 q 454 872 468 892 q 416 838 440 851 q 353 825 392 825 z "},"ő":{"ha":557,"x_min":56,"x_max":501,"o":"m 271 -14 q 158 10 207 -14 q 83 110 110 33 q 56 344 56 186 q 118 624 56 539 q 288 708 181 708 q 447 633 393 708 q 501 344 501 558 q 441 75 501 164 q 271 -14 381 -14 m 272 19 q 415 102 363 19 q 468 350 468 185 q 419 610 468 546 q 286 675 371 675 q 143 600 197 675 q 89 335 89 525 q 137 82 89 144 q 272 19 185 19 m 188 801 q 178 810 188 801 q 169 819 169 819 q 233 908 201 867 q 285 974 264 949 q 307 1000 307 1000 q 323 988 315 1003 q 331 974 331 974 q 311 949 331 974 q 259 884 292 924 q 188 801 226 844 m 326 801 q 317 810 326 801 q 308 819 308 819 q 372 908 340 867 q 424 974 403 949 q 446 1000 446 1000 q 462 988 454 1003 q 469 974 469 974 q 450 949 469 974 q 398 884 431 924 q 326 801 365 844 z "},"ō":{"ha":557,"x_min":56,"x_max":501,"o":"m 271 -14 q 158 10 207 -14 q 83 110 110 33 q 56 344 56 186 q 118 624 56 539 q 288 708 181 708 q 447 633 393 708 q 501 344 501 558 q 441 75 501 164 q 271 -14 381 -14 m 272 19 q 415 102 363 19 q 468 350 468 185 q 419 610 468 546 q 286 675 371 675 q 143 600 197 675 q 89 335 89 525 q 137 82 89 144 q 272 19 185 19 m 119 865 q 118 875 118 871 q 118 883 118 879 q 133 900 121 900 l 453 900 q 454 882 454 893 q 449 869 453 874 q 439 865 446 865 l 119 865 z "},"ø":{"ha":608,"x_min":58,"x_max":553,"o":"m 315 -14 q 197 10 247 -14 q 118 110 146 33 q 90 344 90 186 q 152 624 90 539 q 319 708 214 708 q 481 633 425 708 q 536 344 536 558 q 477 75 536 164 q 315 -14 418 -14 m 82 -25 q 65 -22 72 -25 q 58 -7 58 -18 q 75 20 58 -7 q 109 75 92 47 q 126 103 126 103 q 138 99 126 103 q 150 85 150 94 q 133 58 150 85 q 99 3 117 31 q 82 -25 82 -25 m 307 19 q 450 102 397 19 q 503 350 503 185 q 454 610 503 546 q 321 675 406 675 q 177 600 231 675 q 124 335 124 525 q 172 82 124 144 q 307 19 219 19 m 163 89 q 151 92 163 89 q 139 107 139 94 l 460 625 q 472 621 460 625 q 483 607 483 617 q 451 555 483 607 q 370 425 418 503 q 275 270 322 347 q 195 141 228 193 q 163 89 163 89 m 490 608 q 484 610 490 608 q 472 615 478 611 q 467 626 467 618 q 482 651 467 626 q 513 700 497 675 q 529 725 529 725 q 541 721 529 725 q 553 707 553 717 q 543 692 553 707 q 522 658 533 678 q 500 623 510 638 q 490 608 490 608 z "},"õ":{"ha":557,"x_min":56,"x_max":501,"o":"m 271 -14 q 158 10 207 -14 q 83 110 110 33 q 56 344 56 186 q 118 624 56 539 q 288 708 181 708 q 447 633 393 708 q 501 344 501 558 q 441 75 501 164 q 271 -14 381 -14 m 272 19 q 415 102 363 19 q 468 350 468 185 q 419 610 468 546 q 286 675 371 675 q 143 600 197 675 q 89 335 89 525 q 137 82 89 144 q 272 19 185 19 m 353 825 q 288 846 310 825 q 251 887 267 867 q 211 907 235 907 q 147 870 168 907 q 117 833 126 833 q 102 843 110 833 q 94 853 94 853 q 155 921 126 906 q 219 936 183 936 q 270 917 253 936 q 304 878 288 897 q 353 860 321 860 q 429 896 411 860 q 457 932 447 932 q 472 922 467 932 q 478 911 478 911 q 454 872 468 892 q 416 838 440 851 q 353 825 392 825 z "},"œ":{"ha":944,"x_min":56,"x_max":892,"o":"m 281 -14 q 161 10 211 -14 q 83 110 111 33 q 56 344 56 186 q 117 624 56 539 q 285 708 178 708 q 446 633 390 708 q 501 344 501 558 q 442 75 501 164 q 281 -14 383 -14 m 272 19 q 415 102 363 19 q 468 350 468 185 q 419 610 468 546 q 286 675 371 675 q 143 600 197 675 q 89 335 89 525 q 137 82 89 144 q 272 19 185 19 m 703 -14 q 583 7 636 -14 q 499 96 529 28 q 468 307 468 164 q 508 584 468 500 q 605 688 547 668 q 718 708 663 708 q 852 651 813 708 q 892 499 892 593 q 890 415 892 458 q 882 342 888 372 q 708 320 797 325 q 556 316 618 315 q 494 317 494 317 l 494 350 q 556 349 494 350 q 702 353 618 349 q 853 371 786 357 q 857 430 856 403 q 858 482 858 457 q 828 624 856 574 q 719 675 800 675 q 624 660 675 675 q 538 567 574 644 q 501 301 501 489 q 528 113 501 172 q 601 36 556 53 q 701 19 646 19 q 800 33 753 19 q 879 71 847 46 q 885 53 883 63 q 886 38 886 43 q 831 7 886 28 q 703 -14 775 -14 z "},"p":{"ha":582,"x_min":97,"x_max":526,"o":"m 113 -274 q 101 -270 106 -274 q 97 -261 97 -267 l 97 651 q 294 708 186 708 q 466 644 406 708 q 526 408 526 579 q 481 130 526 219 q 375 13 435 40 q 274 -14 315 -14 q 183 7 222 -14 q 131 49 144 28 l 131 -271 q 113 -274 117 -274 m 271 19 q 358 42 306 19 q 452 144 411 65 q 493 390 493 222 q 442 617 493 558 q 293 675 390 675 q 131 631 200 675 l 131 104 q 193 40 154 61 q 271 19 232 19 z "},"þ":{"ha":582,"x_min":97,"x_max":526,"o":"m 113 -278 q 101 -276 106 -278 q 97 -268 97 -275 l 97 653 q 294 707 182 707 q 466 642 406 707 q 526 399 526 576 q 478 127 526 214 q 367 14 429 40 q 263 -12 304 -12 q 178 5 211 -12 q 131 40 146 22 l 131 -276 q 113 -278 124 -278 m 260 21 q 350 47 294 22 q 449 149 406 71 q 493 390 493 228 q 439 616 493 558 q 297 674 385 674 q 131 629 200 674 l 131 88 q 260 21 175 21 m 97 340 l 97 1000 q 104 1018 97 1015 q 131 1021 111 1021 l 131 354 l 97 340 z "},"q":{"ha":597,"x_min":68,"x_max":499,"o":"m 476 -275 q 472 -275 475 -275 q 465 -275 468 -275 l 465 74 q 282 -14 403 -14 q 190 7 240 -14 q 104 97 140 28 q 68 311 68 167 q 101 531 68 443 q 197 664 135 619 q 344 708 258 708 q 499 664 438 708 l 499 -261 q 496 -273 499 -271 q 476 -275 493 -275 m 292 19 q 387 43 336 18 q 465 129 438 68 l 465 644 q 342 675 425 675 q 165 584 228 675 q 101 306 101 493 q 133 115 101 175 q 210 37 165 54 q 292 19 256 19 z "},"r":{"ha":401,"x_min":93,"x_max":379,"o":"m 93 0 l 93 647 q 189 695 142 682 q 275 708 236 708 q 351 697 322 708 q 379 671 379 686 q 376 657 379 664 q 371 649 374 650 q 332 667 356 658 q 278 675 308 675 q 126 626 189 675 l 126 14 q 121 1 126 3 q 93 0 115 0 z "},"ŕ":{"ha":401,"x_min":93,"x_max":379,"o":"m 93 0 l 93 647 q 189 695 142 682 q 275 708 236 708 q 351 697 322 708 q 379 671 379 686 q 376 657 379 664 q 371 649 374 650 q 332 667 356 658 q 278 675 308 675 q 126 626 189 675 l 126 14 q 121 1 126 3 q 93 0 115 0 m 144 804 q 138 815 144 804 q 131 826 131 826 q 221 906 176 869 q 294 966 265 943 q 324 989 324 989 q 337 973 332 989 q 342 957 342 957 q 315 934 342 957 q 242 876 288 911 q 144 804 197 842 z "},"ř":{"ha":401,"x_min":76,"x_max":396,"o":"m 93 0 l 93 647 q 189 695 142 682 q 275 708 236 708 q 351 697 322 708 q 379 671 379 686 q 376 657 379 664 q 371 649 374 650 q 332 667 356 658 q 278 675 308 675 q 126 626 189 675 l 126 14 q 121 1 126 3 q 93 0 115 0 m 247 814 q 196 854 238 814 q 115 935 154 894 q 76 975 76 975 q 83 985 76 975 q 100 994 90 994 q 142 958 106 994 q 212 885 178 922 q 246 849 246 849 q 335 952 290 901 q 379 1003 379 1003 q 396 981 396 990 q 362 934 396 975 q 291 853 328 893 q 247 814 254 814 z "},"ŗ":{"ha":401,"x_min":65,"x_max":379,"o":"m 93 0 l 93 647 q 189 695 142 682 q 275 708 236 708 q 351 697 322 708 q 379 671 379 686 q 376 657 379 664 q 371 649 374 650 q 332 667 356 658 q 278 675 308 675 q 126 626 189 675 l 126 14 q 121 1 126 3 q 93 0 115 0 z "},"s":{"ha":549,"x_min":69,"x_max":479,"o":"m 251 -14 q 117 3 164 -14 q 69 35 69 19 q 81 60 69 51 q 151 29 113 39 q 250 19 189 19 q 389 51 336 19 q 442 154 442 83 q 417 245 442 207 q 339 319 392 283 l 179 413 q 93 485 111 453 q 75 558 75 517 q 140 669 75 631 q 299 708 206 708 q 433 684 388 708 q 479 649 479 660 q 467 624 479 639 q 299 675 390 675 q 164 646 219 675 q 108 560 108 617 q 124 503 108 528 q 192 446 140 478 l 368 339 q 447 261 419 303 q 475 167 475 219 q 417 31 475 76 q 251 -14 358 -14 z "},"ś":{"ha":549,"x_min":69,"x_max":479,"o":"m 251 -14 q 117 3 164 -14 q 69 35 69 19 q 81 60 69 51 q 151 29 113 39 q 250 19 189 19 q 389 51 336 19 q 442 154 442 83 q 417 245 442 207 q 339 319 392 283 l 179 413 q 93 485 111 453 q 75 558 75 517 q 140 669 75 631 q 299 708 206 708 q 433 684 388 708 q 479 649 479 660 q 467 624 479 639 q 299 675 390 675 q 164 646 219 675 q 108 560 108 617 q 124 503 108 528 q 192 446 140 478 l 368 339 q 447 261 419 303 q 475 167 475 219 q 417 31 475 76 q 251 -14 358 -14 m 183 804 q 176 815 183 804 q 169 826 169 826 q 260 906 215 869 q 333 966 304 943 q 363 989 363 989 q 376 973 371 989 q 381 957 381 957 q 353 934 381 957 q 281 876 326 911 q 183 804 236 842 z "},"š":{"ha":549,"x_min":69,"x_max":479,"o":"m 251 -14 q 117 3 164 -14 q 69 35 69 19 q 81 60 69 51 q 151 29 113 39 q 250 19 189 19 q 389 51 336 19 q 442 154 442 83 q 417 245 442 207 q 339 319 392 283 l 179 413 q 93 485 111 453 q 75 558 75 517 q 140 669 75 631 q 299 708 206 708 q 433 684 388 708 q 479 649 479 660 q 467 624 479 639 q 299 675 390 675 q 164 646 219 675 q 108 560 108 617 q 124 503 108 528 q 192 446 140 478 l 368 339 q 447 261 419 303 q 475 167 475 219 q 417 31 475 76 q 251 -14 358 -14 m 286 814 q 235 854 276 814 q 154 935 193 894 q 115 975 115 975 q 122 985 115 975 q 139 994 129 994 q 181 958 144 994 q 251 885 217 922 q 285 849 285 849 q 374 952 329 901 q 418 1003 418 1003 q 435 981 435 990 q 401 934 435 975 q 330 853 367 893 q 286 814 293 814 z "},"ş":{"ha":549,"x_min":69,"x_max":479,"o":"m 251 -14 q 117 3 164 -14 q 69 35 69 19 q 81 60 69 51 q 151 29 113 39 q 250 19 189 19 q 389 51 336 19 q 442 154 442 83 q 417 245 442 207 q 339 319 392 283 l 179 413 q 93 485 111 453 q 75 558 75 517 q 140 669 75 631 q 299 708 206 708 q 433 684 388 708 q 479 649 479 660 q 467 624 479 639 q 299 675 390 675 q 164 646 219 675 q 108 560 108 617 q 124 503 108 528 q 192 446 140 478 l 368 339 q 447 261 419 303 q 475 167 475 219 q 417 31 475 76 q 251 -14 358 -14 m 281 -246 q 233 -242 254 -246 q 213 -237 213 -237 q 214 -224 213 -237 q 222 -206 215 -211 q 245 -207 229 -200 q 281 -214 261 -214 q 317 -203 300 -214 q 333 -161 333 -192 q 317 -119 333 -128 q 282 -111 301 -111 q 249 -115 265 -111 q 233 -118 233 -118 l 260 4 l 294 4 l 275 -85 q 282 -83 275 -85 q 301 -82 289 -82 q 345 -98 324 -82 q 367 -153 367 -114 q 337 -228 367 -211 q 281 -246 307 -246 z "},"ș":{"ha":549,"x_min":69,"x_max":479,"o":"m 251 -14 q 117 3 164 -14 q 69 35 69 19 q 81 60 69 51 q 151 29 113 39 q 250 19 189 19 q 389 51 336 19 q 442 154 442 83 q 417 245 442 207 q 339 319 392 283 l 179 413 q 93 485 111 453 q 75 558 75 517 q 140 669 75 631 q 299 708 206 708 q 433 684 388 708 q 479 649 479 660 q 467 624 479 639 q 299 675 390 675 q 164 646 219 675 q 108 560 108 617 q 124 503 108 528 q 192 446 140 478 l 368 339 q 447 261 419 303 q 475 167 475 219 q 417 31 475 76 q 251 -14 358 -14 z "},"ß":{"ha":663,"x_min":86,"x_max":635,"o":"m 108 -11 q 92 -6 97 -11 q 86 -1 86 -1 q 90 10 86 -1 q 94 42 94 22 l 94 763 q 153 931 94 883 q 306 978 211 978 q 461 944 404 978 q 542 865 518 910 q 567 783 567 819 q 535 704 567 735 q 461 650 503 674 q 388 601 419 626 q 356 539 356 576 q 398 465 356 497 q 495 399 440 433 q 592 314 550 364 q 635 185 635 264 q 576 36 635 85 q 424 -12 518 -12 q 306 10 349 -12 q 263 43 263 32 q 269 61 263 53 q 275 69 275 69 q 338 31 303 43 q 425 19 372 19 q 550 58 497 19 q 603 182 603 96 q 560 299 603 253 q 463 380 518 344 q 365 451 407 415 q 322 538 322 488 q 354 615 322 585 q 428 667 386 644 q 501 715 469 689 q 533 782 533 742 q 482 890 533 833 q 311 946 431 946 q 174 900 221 946 q 128 740 128 854 l 128 11 q 124 -6 128 0 q 108 -11 119 -11 z "},"ſ":{"ha":240,"x_min":94,"x_max":479,"o":"m 117 -11 q 100 -6 106 -11 q 94 -1 94 -1 q 99 13 94 -1 q 103 61 103 26 l 103 815 q 162 981 103 936 q 319 1025 221 1025 q 435 1005 392 1025 q 479 976 479 985 q 474 958 479 968 q 469 947 469 947 q 415 976 454 961 q 319 992 376 992 q 183 954 229 992 q 136 803 136 917 l 136 6 q 132 -8 136 -6 q 117 -11 128 -11 z "},"t":{"ha":424,"x_min":50,"x_max":394,"o":"m 276 -14 q 179 51 193 -14 q 165 213 165 117 l 165 661 l 50 661 q 52 689 50 683 q 61 694 54 694 l 165 694 l 165 924 q 170 942 165 939 q 199 944 175 944 l 199 694 l 394 694 q 393 667 394 672 q 386 661 392 661 l 199 661 l 199 208 q 210 73 199 126 q 279 19 221 19 q 334 26 314 19 q 378 44 354 33 q 381 34 381 39 q 382 24 382 29 q 351 -3 382 8 q 276 -14 319 -14 z "},"ť":{"ha":424,"x_min":50,"x_max":413,"o":"m 276 -14 q 179 51 193 -14 q 165 213 165 117 l 165 661 l 50 661 q 52 689 50 683 q 61 694 54 694 l 165 694 l 165 924 q 170 942 165 939 q 199 944 175 944 l 199 694 l 394 694 q 393 667 394 672 q 386 661 392 661 l 199 661 l 199 208 q 210 73 199 126 q 279 19 221 19 q 334 26 314 19 q 378 44 354 33 q 381 34 381 39 q 382 24 382 29 q 351 -3 382 8 q 276 -14 319 -14 m 351 744 q 333 761 336 744 q 357 856 350 800 q 363 947 364 913 q 342 988 342 960 q 351 1016 342 1006 q 378 1026 361 1026 q 403 1018 393 1026 q 413 979 413 1010 q 401 887 413 943 q 376 788 390 831 q 351 744 361 744 z "},"ţ":{"ha":424,"x_min":50,"x_max":394,"o":"m 276 -14 q 179 51 193 -14 q 165 213 165 117 l 165 661 l 50 661 q 52 689 50 683 q 61 694 54 694 l 165 694 l 165 924 q 170 942 165 939 q 199 944 175 944 l 199 694 l 394 694 q 393 667 394 672 q 386 661 392 661 l 199 661 l 199 208 q 210 73 199 126 q 279 19 221 19 q 334 26 314 19 q 378 44 354 33 q 381 34 381 39 q 382 24 382 29 q 351 -3 382 8 q 276 -14 319 -14 m 278 -246 q 231 -242 251 -246 q 210 -237 210 -237 q 211 -224 210 -237 q 219 -206 213 -211 q 242 -207 226 -200 q 278 -214 258 -214 q 314 -203 297 -214 q 331 -161 331 -192 q 315 -119 331 -128 q 279 -111 299 -111 q 247 -115 263 -111 q 231 -118 231 -118 l 257 4 l 292 4 l 272 -85 q 279 -83 272 -85 q 299 -82 286 -82 q 342 -98 321 -82 q 364 -153 364 -114 q 334 -228 364 -211 q 278 -246 304 -246 z "},"ț":{"ha":424,"x_min":50,"x_max":394,"o":"m 276 -14 q 179 51 193 -14 q 165 213 165 117 l 165 661 l 50 661 q 52 689 50 683 q 61 694 54 694 l 165 694 l 165 924 q 170 942 165 939 q 199 944 175 944 l 199 694 l 394 694 q 393 667 394 672 q 386 661 392 661 l 199 661 l 199 208 q 210 73 199 126 q 279 19 221 19 q 334 26 314 19 q 378 44 354 33 q 381 34 381 39 q 382 24 382 29 q 351 -3 382 8 q 276 -14 319 -14 z "},"u":{"ha":618,"x_min":101,"x_max":517,"o":"m 304 -14 q 142 46 183 -14 q 101 257 101 106 l 101 681 q 106 693 101 692 q 135 694 110 694 l 135 247 q 171 67 135 115 q 315 19 207 19 q 392 28 343 19 q 483 58 442 36 l 483 681 q 490 693 483 692 q 517 694 497 694 l 517 32 q 407 -4 464 6 q 304 -14 350 -14 z "},"ú":{"ha":618,"x_min":101,"x_max":517,"o":"m 304 -14 q 142 46 183 -14 q 101 257 101 106 l 101 681 q 106 693 101 692 q 135 694 110 694 l 135 247 q 171 67 135 115 q 315 19 207 19 q 392 28 343 19 q 483 58 442 36 l 483 681 q 490 693 483 692 q 517 694 497 694 l 517 32 q 407 -4 464 6 q 304 -14 350 -14 m 218 804 q 211 815 218 804 q 204 826 204 826 q 294 906 250 869 q 368 966 339 943 q 397 989 397 989 q 410 973 406 989 q 415 957 415 957 q 388 934 415 957 q 316 876 361 911 q 218 804 271 842 z "},"û":{"ha":618,"x_min":101,"x_max":517,"o":"m 304 -14 q 142 46 183 -14 q 101 257 101 106 l 101 681 q 106 693 101 692 q 135 694 110 694 l 135 247 q 171 67 135 115 q 315 19 207 19 q 392 28 343 19 q 483 58 442 36 l 483 681 q 490 693 483 692 q 517 694 497 694 l 517 32 q 407 -4 464 6 q 304 -14 350 -14 m 438 806 q 406 839 438 806 q 344 905 375 872 q 314 938 314 938 q 282 905 314 938 q 216 840 250 872 q 178 807 182 807 q 158 816 164 807 q 151 825 151 825 l 304 968 q 315 971 307 971 q 335 961 325 971 q 368 928 335 961 q 435 861 401 894 q 468 828 468 828 q 459 817 468 828 q 438 806 450 806 z "},"ü":{"ha":618,"x_min":101,"x_max":517,"o":"m 304 -14 q 142 46 183 -14 q 101 257 101 106 l 101 681 q 106 693 101 692 q 135 694 110 694 l 135 247 q 171 67 135 115 q 315 19 207 19 q 392 28 343 19 q 483 58 442 36 l 483 681 q 490 693 483 692 q 517 694 497 694 l 517 32 q 407 -4 464 6 q 304 -14 350 -14 m 239 853 q 219 864 225 854 q 215 892 214 874 q 242 931 217 931 q 262 919 256 931 q 267 889 268 908 q 239 853 264 853 m 378 853 q 358 864 364 854 q 354 892 353 874 q 381 931 356 931 q 401 919 394 931 q 406 889 407 908 q 378 853 403 853 z "},"ụ":{"ha":618,"x_min":101,"x_max":517,"o":"m 304 -14 q 142 46 183 -14 q 101 257 101 106 l 101 681 q 106 693 101 692 q 135 694 110 694 l 135 247 q 171 67 135 115 q 315 19 207 19 q 392 28 343 19 q 483 58 442 36 l 483 681 q 490 693 483 692 q 517 694 497 694 l 517 32 q 407 -4 464 6 q 304 -14 350 -14 z "},"ù":{"ha":618,"x_min":101,"x_max":517,"o":"m 304 -14 q 142 46 183 -14 q 101 257 101 106 l 101 681 q 106 693 101 692 q 135 694 110 694 l 135 247 q 171 67 135 115 q 315 19 207 19 q 392 28 343 19 q 483 58 442 36 l 483 681 q 490 693 483 692 q 517 694 497 694 l 517 32 q 407 -4 464 6 q 304 -14 350 -14 m 401 804 q 303 876 349 842 q 231 934 258 911 q 204 957 204 957 q 209 973 204 957 q 222 989 214 989 q 251 966 222 989 q 325 906 281 943 q 415 826 369 869 q 408 815 415 826 q 401 804 401 804 z "},"ủ":{"ha":618,"x_min":101,"x_max":517,"o":"m 304 -14 q 142 46 183 -14 q 101 257 101 106 l 101 681 q 106 693 101 692 q 135 694 110 694 l 135 247 q 171 67 135 115 q 315 19 207 19 q 392 28 343 19 q 483 58 442 36 l 483 681 q 490 693 483 692 q 517 694 497 694 l 517 32 q 407 -4 464 6 q 304 -14 350 -14 m 288 771 q 286 782 288 771 q 290 806 285 793 q 324 836 303 829 q 344 881 344 843 q 322 931 344 922 q 289 939 300 939 q 235 922 257 939 q 235 937 235 922 q 235 956 235 951 q 288 975 235 975 q 357 954 331 975 q 383 881 383 933 q 360 826 383 842 q 324 800 336 810 q 315 783 317 794 q 314 772 314 772 q 301 769 313 769 q 288 771 290 769 z "},"ư":{"ha":618,"x_min":101,"x_max":629,"o":"m 304 -14 q 142 46 183 -14 q 101 257 101 106 l 101 681 q 106 693 101 692 q 135 694 110 694 l 135 247 q 171 67 135 115 q 315 19 207 19 q 392 28 343 19 q 483 58 442 36 l 483 681 q 490 693 483 692 q 517 694 497 694 l 517 32 q 407 -4 464 6 q 304 -14 350 -14 m 499 660 l 500 693 q 576 719 558 693 q 593 786 593 744 q 601 798 593 796 q 619 795 610 800 q 628 781 628 790 q 618 723 629 750 q 578 678 607 696 q 499 660 549 660 z "},"ứ":{"ha":618,"x_min":101,"x_max":629,"o":"m 304 -14 q 142 46 183 -14 q 101 257 101 106 l 101 681 q 106 693 101 692 q 135 694 110 694 l 135 247 q 171 67 135 115 q 315 19 207 19 q 392 28 343 19 q 483 58 442 36 l 483 681 q 490 693 483 692 q 517 694 497 694 l 517 32 q 407 -4 464 6 q 304 -14 350 -14 m 499 660 l 500 693 q 576 719 558 693 q 593 786 593 744 q 601 798 593 796 q 619 795 610 800 q 628 781 628 790 q 618 723 629 750 q 578 678 607 696 q 499 660 549 660 m 218 804 q 211 815 218 804 q 204 826 204 826 q 294 906 250 869 q 368 966 339 943 q 397 989 397 989 q 410 973 406 989 q 415 957 415 957 q 388 934 415 957 q 316 876 361 911 q 218 804 271 842 z "},"ự":{"ha":618,"x_min":101,"x_max":629,"o":"m 304 -14 q 142 46 183 -14 q 101 257 101 106 l 101 681 q 106 693 101 692 q 135 694 110 694 l 135 247 q 171 67 135 115 q 315 19 207 19 q 392 28 343 19 q 483 58 442 36 l 483 681 q 490 693 483 692 q 517 694 497 694 l 517 32 q 407 -4 464 6 q 304 -14 350 -14 m 499 660 l 500 693 q 576 719 558 693 q 593 786 593 744 q 601 798 593 796 q 619 795 610 800 q 628 781 628 790 q 618 723 629 750 q 578 678 607 696 q 499 660 549 660 z "},"ừ":{"ha":618,"x_min":101,"x_max":629,"o":"m 304 -14 q 142 46 183 -14 q 101 257 101 106 l 101 681 q 106 693 101 692 q 135 694 110 694 l 135 247 q 171 67 135 115 q 315 19 207 19 q 392 28 343 19 q 483 58 442 36 l 483 681 q 490 693 483 692 q 517 694 497 694 l 517 32 q 407 -4 464 6 q 304 -14 350 -14 m 499 660 l 500 693 q 576 719 558 693 q 593 786 593 744 q 601 798 593 796 q 619 795 610 800 q 628 781 628 790 q 618 723 629 750 q 578 678 607 696 q 499 660 549 660 z "},"ử":{"ha":618,"x_min":101,"x_max":629,"o":"m 304 -14 q 142 46 183 -14 q 101 257 101 106 l 101 681 q 106 693 101 692 q 135 694 110 694 l 135 247 q 171 67 135 115 q 315 19 207 19 q 392 28 343 19 q 483 58 442 36 l 483 681 q 490 693 483 692 q 517 694 497 694 l 517 32 q 407 -4 464 6 q 304 -14 350 -14 m 499 660 l 500 693 q 576 719 558 693 q 593 786 593 744 q 601 798 593 796 q 619 795 610 800 q 628 781 628 790 q 618 723 629 750 q 578 678 607 696 q 499 660 549 660 m 288 771 q 286 782 288 771 q 290 806 285 793 q 324 836 303 829 q 344 881 344 843 q 322 931 344 922 q 289 939 300 939 q 235 922 257 939 q 235 937 235 922 q 235 956 235 951 q 288 975 235 975 q 357 954 331 975 q 383 881 383 933 q 360 826 383 842 q 324 800 336 810 q 315 783 317 794 q 314 772 314 772 q 301 769 313 769 q 288 771 290 769 z "},"ữ":{"ha":618,"x_min":101,"x_max":629,"o":"m 304 -14 q 142 46 183 -14 q 101 257 101 106 l 101 681 q 106 693 101 692 q 135 694 110 694 l 135 247 q 171 67 135 115 q 315 19 207 19 q 392 28 343 19 q 483 58 442 36 l 483 681 q 490 693 483 692 q 517 694 497 694 l 517 32 q 407 -4 464 6 q 304 -14 350 -14 m 499 660 l 500 693 q 576 719 558 693 q 593 786 593 744 q 601 798 593 796 q 619 795 610 800 q 628 781 628 790 q 618 723 629 750 q 578 678 607 696 q 499 660 549 660 m 376 825 q 312 846 333 825 q 274 887 290 867 q 235 907 258 907 q 171 870 192 907 q 140 833 150 833 q 126 843 133 833 q 118 853 118 853 q 178 921 150 906 q 243 936 207 936 q 294 917 276 936 q 328 878 311 897 q 376 860 344 860 q 453 896 435 860 q 481 932 471 932 q 496 922 490 932 q 501 911 501 911 q 478 872 492 892 q 440 838 464 851 q 376 825 415 825 z "},"ű":{"ha":618,"x_min":101,"x_max":517,"o":"m 304 -14 q 142 46 183 -14 q 101 257 101 106 l 101 681 q 106 693 101 692 q 135 694 110 694 l 135 247 q 171 67 135 115 q 315 19 207 19 q 392 28 343 19 q 483 58 442 36 l 483 681 q 490 693 483 692 q 517 694 497 694 l 517 32 q 407 -4 464 6 q 304 -14 350 -14 m 211 801 q 202 810 211 801 q 193 819 193 819 q 256 908 225 867 q 309 974 288 949 q 331 1000 331 1000 q 347 988 339 1003 q 354 974 354 974 q 335 949 354 974 q 283 884 315 924 q 211 801 250 844 m 350 801 q 341 810 350 801 q 332 819 332 819 q 395 908 364 867 q 448 974 426 949 q 469 1000 469 1000 q 485 988 478 1003 q 493 974 493 974 q 474 949 493 974 q 422 884 454 924 q 350 801 389 844 z "},"ū":{"ha":618,"x_min":101,"x_max":517,"o":"m 304 -14 q 142 46 183 -14 q 101 257 101 106 l 101 681 q 106 693 101 692 q 135 694 110 694 l 135 247 q 171 67 135 115 q 315 19 207 19 q 392 28 343 19 q 483 58 442 36 l 483 681 q 490 693 483 692 q 517 694 497 694 l 517 32 q 407 -4 464 6 q 304 -14 350 -14 m 143 865 q 142 875 142 871 q 142 883 142 879 q 157 900 144 900 l 476 900 q 478 882 478 893 q 473 869 476 874 q 463 865 469 865 l 143 865 z "},"ų":{"ha":618,"x_min":101,"x_max":518,"o":"m 463 -271 q 389 -243 414 -271 q 364 -167 364 -215 q 385 -76 364 -118 q 433 1 407 -35 q 303 -14 371 -14 q 142 46 183 -14 q 101 257 101 106 l 101 681 q 106 693 101 692 q 135 694 110 694 l 135 247 q 169 69 135 119 q 306 19 204 19 q 393 28 344 19 q 483 58 442 36 l 483 681 q 490 693 483 692 q 517 694 497 694 l 517 32 q 434 -50 471 6 q 397 -165 397 -106 q 463 -237 397 -237 q 510 -225 485 -237 q 515 -235 514 -228 q 518 -246 518 -240 q 501 -265 518 -260 q 463 -271 483 -271 z "},"ů":{"ha":618,"x_min":101,"x_max":517,"o":"m 304 -14 q 142 46 183 -14 q 101 257 101 106 l 101 681 q 106 693 101 692 q 135 694 110 694 l 135 247 q 171 67 135 115 q 315 19 207 19 q 392 28 343 19 q 483 58 442 36 l 483 681 q 490 693 483 692 q 517 694 497 694 l 517 32 q 407 -4 464 6 q 304 -14 350 -14 m 306 788 q 226 813 257 788 q 196 903 196 839 q 315 1019 196 1019 q 397 993 369 1019 q 424 903 424 967 q 306 788 424 788 m 306 821 q 390 904 390 821 q 372 969 390 951 q 317 986 353 986 q 252 967 275 986 q 229 899 229 949 q 306 821 229 821 z "},"ũ":{"ha":618,"x_min":101,"x_max":517,"o":"m 304 -14 q 142 46 183 -14 q 101 257 101 106 l 101 681 q 106 693 101 692 q 135 694 110 694 l 135 247 q 171 67 135 115 q 315 19 207 19 q 392 28 343 19 q 483 58 442 36 l 483 681 q 490 693 483 692 q 517 694 497 694 l 517 32 q 407 -4 464 6 q 304 -14 350 -14 m 376 825 q 312 846 333 825 q 274 887 290 867 q 235 907 258 907 q 171 870 192 907 q 140 833 150 833 q 126 843 133 833 q 118 853 118 853 q 178 921 150 906 q 243 936 207 936 q 294 917 276 936 q 328 878 311 897 q 376 860 344 860 q 453 896 435 860 q 481 932 471 932 q 496 922 490 932 q 501 911 501 911 q 478 872 492 892 q 440 838 464 851 q 376 825 415 825 z "},"v":{"ha":514,"x_min":44,"x_max":468,"o":"m 251 -12 q 247 6 251 -12 q 232 56 242 25 l 47 681 q 51 693 44 692 q 76 694 58 694 l 156 431 q 208 247 183 336 q 247 101 232 158 q 261 44 261 44 l 263 44 q 276 101 263 44 q 312 247 289 158 q 363 433 335 336 l 433 681 q 441 693 436 692 q 468 694 446 694 l 269 -12 q 260 -12 269 -12 q 251 -12 251 -12 z "},"w":{"ha":788,"x_min":44,"x_max":742,"o":"m 554 -12 q 548 9 554 -12 q 532 67 542 31 l 506 164 q 444 392 472 289 q 401 556 417 494 q 385 618 385 618 l 378 653 q 378 663 375 658 q 392 667 381 667 l 407 667 l 474 407 q 518 234 497 314 q 551 106 539 154 q 563 57 563 57 l 564 57 q 594 203 571 100 q 640 410 617 306 l 703 681 q 710 693 706 692 q 742 694 714 694 q 724 623 742 694 q 682 447 707 551 q 632 236 657 342 q 590 59 607 131 q 572 -12 572 -12 q 563 -12 572 -12 q 554 -12 554 -12 m 224 -12 q 218 6 224 -12 q 206 56 213 25 q 163 228 189 124 q 110 436 136 332 q 65 610 83 540 q 46 681 46 681 q 49 693 44 692 q 78 694 53 694 l 149 410 q 192 233 172 314 q 222 105 211 153 q 233 57 233 57 l 235 57 q 271 213 244 106 q 318 413 297 321 l 372 653 q 377 663 374 658 q 386 667 381 667 l 394 667 q 408 663 406 667 q 408 653 410 658 l 399 618 q 384 556 399 618 q 344 391 369 494 q 288 163 319 288 l 243 -12 q 233 -12 243 -12 q 224 -12 224 -12 z "},"ẃ":{"ha":788,"x_min":44,"x_max":742,"o":"m 554 -12 q 548 9 554 -12 q 532 67 542 31 l 506 164 q 444 392 472 289 q 401 556 417 494 q 385 618 385 618 l 378 653 q 378 663 375 658 q 392 667 381 667 l 407 667 l 474 407 q 518 234 497 314 q 551 106 539 154 q 563 57 563 57 l 564 57 q 594 203 571 100 q 640 410 617 306 l 703 681 q 710 693 706 692 q 742 694 714 694 q 724 623 742 694 q 682 447 707 551 q 632 236 657 342 q 590 59 607 131 q 572 -12 572 -12 q 563 -12 572 -12 q 554 -12 554 -12 m 224 -12 q 218 6 224 -12 q 206 56 213 25 q 163 228 189 124 q 110 436 136 332 q 65 610 83 540 q 46 681 46 681 q 49 693 44 692 q 78 694 53 694 l 149 410 q 192 233 172 314 q 222 105 211 153 q 233 57 233 57 l 235 57 q 271 213 244 106 q 318 413 297 321 l 372 653 q 377 663 374 658 q 386 667 381 667 l 394 667 q 408 663 406 667 q 408 653 410 658 l 399 618 q 384 556 399 618 q 344 391 369 494 q 288 163 319 288 l 243 -12 q 233 -12 243 -12 q 224 -12 224 -12 m 303 804 q 296 815 303 804 q 289 826 289 826 q 379 906 335 869 q 453 966 424 943 q 482 989 482 989 q 495 973 490 989 q 500 957 500 957 q 473 934 500 957 q 401 876 446 911 q 303 804 356 842 z "},"ŵ":{"ha":788,"x_min":44,"x_max":742,"o":"m 554 -12 q 548 9 554 -12 q 532 67 542 31 l 506 164 q 444 392 472 289 q 401 556 417 494 q 385 618 385 618 l 378 653 q 378 663 375 658 q 392 667 381 667 l 407 667 l 474 407 q 518 234 497 314 q 551 106 539 154 q 563 57 563 57 l 564 57 q 594 203 571 100 q 640 410 617 306 l 703 681 q 710 693 706 692 q 742 694 714 694 q 724 623 742 694 q 682 447 707 551 q 632 236 657 342 q 590 59 607 131 q 572 -12 572 -12 q 563 -12 572 -12 q 554 -12 554 -12 m 224 -12 q 218 6 224 -12 q 206 56 213 25 q 163 228 189 124 q 110 436 136 332 q 65 610 83 540 q 46 681 46 681 q 49 693 44 692 q 78 694 53 694 l 149 410 q 192 233 172 314 q 222 105 211 153 q 233 57 233 57 l 235 57 q 271 213 244 106 q 318 413 297 321 l 372 653 q 377 663 374 658 q 386 667 381 667 l 394 667 q 408 663 406 667 q 408 653 410 658 l 399 618 q 384 556 399 618 q 344 391 369 494 q 288 163 319 288 l 243 -12 q 233 -12 243 -12 q 224 -12 224 -12 m 522 806 q 491 839 522 806 q 429 905 460 872 q 399 938 399 938 q 367 905 399 938 q 301 840 335 872 q 263 807 267 807 q 242 816 249 807 q 236 825 236 825 l 389 968 q 400 971 392 971 q 419 961 410 971 q 453 928 419 961 q 519 861 486 894 q 553 828 553 828 q 544 817 553 828 q 522 806 535 806 z "},"ẅ":{"ha":788,"x_min":44,"x_max":742,"o":"m 554 -12 q 548 9 554 -12 q 532 67 542 31 l 506 164 q 444 392 472 289 q 401 556 417 494 q 385 618 385 618 l 378 653 q 378 663 375 658 q 392 667 381 667 l 407 667 l 474 407 q 518 234 497 314 q 551 106 539 154 q 563 57 563 57 l 564 57 q 594 203 571 100 q 640 410 617 306 l 703 681 q 710 693 706 692 q 742 694 714 694 q 724 623 742 694 q 682 447 707 551 q 632 236 657 342 q 590 59 607 131 q 572 -12 572 -12 q 563 -12 572 -12 q 554 -12 554 -12 m 224 -12 q 218 6 224 -12 q 206 56 213 25 q 163 228 189 124 q 110 436 136 332 q 65 610 83 540 q 46 681 46 681 q 49 693 44 692 q 78 694 53 694 l 149 410 q 192 233 172 314 q 222 105 211 153 q 233 57 233 57 l 235 57 q 271 213 244 106 q 318 413 297 321 l 372 653 q 377 663 374 658 q 386 667 381 667 l 394 667 q 408 663 406 667 q 408 653 410 658 l 399 618 q 384 556 399 618 q 344 391 369 494 q 288 163 319 288 l 243 -12 q 233 -12 243 -12 q 224 -12 224 -12 m 324 853 q 304 864 310 854 q 300 892 299 874 q 326 931 301 931 q 347 919 340 931 q 351 889 353 908 q 324 853 349 853 m 463 853 q 443 864 449 854 q 439 892 438 874 q 465 931 440 931 q 485 919 479 931 q 490 889 492 908 q 463 853 488 853 z "},"ẁ":{"ha":788,"x_min":44,"x_max":742,"o":"m 554 -12 q 548 9 554 -12 q 532 67 542 31 l 506 164 q 444 392 472 289 q 401 556 417 494 q 385 618 385 618 l 378 653 q 378 663 375 658 q 392 667 381 667 l 407 667 l 474 407 q 518 234 497 314 q 551 106 539 154 q 563 57 563 57 l 564 57 q 594 203 571 100 q 640 410 617 306 l 703 681 q 710 693 706 692 q 742 694 714 694 q 724 623 742 694 q 682 447 707 551 q 632 236 657 342 q 590 59 607 131 q 572 -12 572 -12 q 563 -12 572 -12 q 554 -12 554 -12 m 224 -12 q 218 6 224 -12 q 206 56 213 25 q 163 228 189 124 q 110 436 136 332 q 65 610 83 540 q 46 681 46 681 q 49 693 44 692 q 78 694 53 694 l 149 410 q 192 233 172 314 q 222 105 211 153 q 233 57 233 57 l 235 57 q 271 213 244 106 q 318 413 297 321 l 372 653 q 377 663 374 658 q 386 667 381 667 l 394 667 q 408 663 406 667 q 408 653 410 658 l 399 618 q 384 556 399 618 q 344 391 369 494 q 288 163 319 288 l 243 -12 q 233 -12 243 -12 q 224 -12 224 -12 m 486 804 q 388 876 433 842 q 316 934 343 911 q 289 957 289 957 q 294 973 289 957 q 307 989 299 989 q 336 966 307 989 q 410 906 365 943 q 500 826 454 869 q 493 815 500 826 q 486 804 486 804 z "},"x":{"ha":650,"x_min":42,"x_max":611,"o":"m 42 0 l 310 376 l 322 388 q 365 448 322 388 q 450 568 407 508 l 535 688 q 543 694 539 693 q 579 694 547 694 l 343 363 l 333 354 q 309 320 333 354 q 248 235 285 286 q 176 133 211 183 l 89 8 q 77 1 85 3 q 42 0 69 0 m 569 0 l 474 136 q 404 235 439 185 q 346 318 369 285 q 322 351 322 351 l 311 360 l 81 688 q 83 693 78 692 q 115 694 88 694 l 207 565 q 290 447 249 507 q 332 388 332 388 l 343 378 l 604 13 q 606 1 611 3 q 569 0 600 0 z "},"y":{"ha":536,"x_min":11,"x_max":483,"o":"m 99 -268 q 37 -262 63 -268 q 11 -242 11 -256 q 22 -218 11 -226 q 63 -231 40 -226 q 100 -235 86 -235 q 187 -188 146 -235 q 258 -22 228 -142 l 63 681 q 64 693 60 692 q 93 694 68 694 l 232 196 q 254 108 244 150 q 269 40 264 67 q 275 13 275 13 q 281 39 275 13 q 295 108 286 65 q 317 199 304 150 l 444 681 q 451 693 447 692 q 483 694 456 694 l 285 -49 q 205 -220 251 -172 q 99 -268 158 -268 z "},"ý":{"ha":536,"x_min":11,"x_max":483,"o":"m 99 -268 q 37 -262 63 -268 q 11 -242 11 -256 q 22 -218 11 -226 q 63 -231 40 -226 q 100 -235 86 -235 q 187 -188 146 -235 q 258 -22 228 -142 l 63 681 q 64 693 60 692 q 93 694 68 694 l 232 196 q 254 108 244 150 q 269 40 264 67 q 275 13 275 13 q 281 39 275 13 q 295 108 286 65 q 317 199 304 150 l 444 681 q 451 693 447 692 q 483 694 456 694 l 285 -49 q 205 -220 251 -172 q 99 -268 158 -268 m 176 804 q 169 815 176 804 q 163 826 163 826 q 253 906 208 869 q 326 966 297 943 q 356 989 356 989 q 369 973 364 989 q 374 957 374 957 q 347 934 374 957 q 274 876 319 911 q 176 804 229 842 z "},"ŷ":{"ha":536,"x_min":11,"x_max":483,"o":"m 99 -268 q 37 -262 63 -268 q 11 -242 11 -256 q 22 -218 11 -226 q 63 -231 40 -226 q 100 -235 86 -235 q 187 -188 146 -235 q 258 -22 228 -142 l 63 681 q 64 693 60 692 q 93 694 68 694 l 232 196 q 254 108 244 150 q 269 40 264 67 q 275 13 275 13 q 281 39 275 13 q 295 108 286 65 q 317 199 304 150 l 444 681 q 451 693 447 692 q 483 694 456 694 l 285 -49 q 205 -220 251 -172 q 99 -268 158 -268 m 396 806 q 365 839 396 806 q 303 905 333 872 q 272 938 272 938 q 240 905 272 938 q 174 840 208 872 q 136 807 140 807 q 116 816 122 807 q 110 825 110 825 l 263 968 q 274 971 265 971 q 293 961 283 971 q 326 928 293 961 q 393 861 360 894 q 426 828 426 828 q 417 817 426 828 q 396 806 408 806 z "},"ÿ":{"ha":536,"x_min":11,"x_max":483,"o":"m 99 -268 q 37 -262 63 -268 q 11 -242 11 -256 q 22 -218 11 -226 q 63 -231 40 -226 q 100 -235 86 -235 q 187 -188 146 -235 q 258 -22 228 -142 l 63 681 q 64 693 60 692 q 93 694 68 694 l 232 196 q 254 108 244 150 q 269 40 264 67 q 275 13 275 13 q 281 39 275 13 q 295 108 286 65 q 317 199 304 150 l 444 681 q 451 693 447 692 q 483 694 456 694 l 285 -49 q 205 -220 251 -172 q 99 -268 158 -268 m 197 853 q 178 864 183 854 q 174 892 172 874 q 200 931 175 931 q 220 919 214 931 q 225 889 226 908 q 197 853 222 853 m 336 853 q 317 864 322 854 q 313 892 311 874 q 339 931 314 931 q 359 919 353 931 q 364 889 365 908 q 336 853 361 853 z "},"ỵ":{"ha":536,"x_min":11,"x_max":483,"o":"m 99 -268 q 37 -262 63 -268 q 11 -242 11 -256 q 22 -218 11 -226 q 63 -231 40 -226 q 100 -235 86 -235 q 187 -188 146 -235 q 258 -22 228 -142 l 63 681 q 64 693 60 692 q 93 694 68 694 l 232 196 q 254 108 244 150 q 269 40 264 67 q 275 13 275 13 q 281 39 275 13 q 295 108 286 65 q 317 199 304 150 l 444 681 q 451 693 447 692 q 483 694 456 694 l 285 -49 q 205 -220 251 -172 q 99 -268 158 -268 z "},"ỳ":{"ha":536,"x_min":11,"x_max":483,"o":"m 99 -268 q 37 -262 63 -268 q 11 -242 11 -256 q 22 -218 11 -226 q 63 -231 40 -226 q 100 -235 86 -235 q 187 -188 146 -235 q 258 -22 228 -142 l 63 681 q 64 693 60 692 q 93 694 68 694 l 232 196 q 254 108 244 150 q 269 40 264 67 q 275 13 275 13 q 281 39 275 13 q 295 108 286 65 q 317 199 304 150 l 444 681 q 451 693 447 692 q 483 694 456 694 l 285 -49 q 205 -220 251 -172 q 99 -268 158 -268 m 360 804 q 262 876 307 842 q 190 934 217 911 q 163 957 163 957 q 167 973 163 957 q 181 989 172 989 q 210 966 181 989 q 283 906 239 943 q 374 826 328 869 q 367 815 374 826 q 360 804 360 804 z "},"ỷ":{"ha":536,"x_min":11,"x_max":483,"o":"m 99 -268 q 37 -262 63 -268 q 11 -242 11 -256 q 22 -218 11 -226 q 63 -231 40 -226 q 100 -235 86 -235 q 187 -188 146 -235 q 258 -22 228 -142 l 63 681 q 64 693 60 692 q 93 694 68 694 l 232 196 q 254 108 244 150 q 269 40 264 67 q 275 13 275 13 q 281 39 275 13 q 295 108 286 65 q 317 199 304 150 l 444 681 q 451 693 447 692 q 483 694 456 694 l 285 -49 q 205 -220 251 -172 q 99 -268 158 -268 m 246 771 q 244 782 246 771 q 249 806 243 793 q 282 836 261 829 q 303 881 303 843 q 281 931 303 922 q 247 939 258 939 q 193 922 215 939 q 193 937 193 922 q 193 956 193 951 q 246 975 193 975 q 315 954 289 975 q 342 881 342 933 q 318 826 342 842 q 282 800 294 810 q 274 783 275 794 q 272 772 272 772 q 260 769 271 769 q 246 771 249 769 z "},"ỹ":{"ha":536,"x_min":11,"x_max":483,"o":"m 99 -268 q 37 -262 63 -268 q 11 -242 11 -256 q 22 -218 11 -226 q 63 -231 40 -226 q 100 -235 86 -235 q 187 -188 146 -235 q 258 -22 228 -142 l 63 681 q 64 693 60 692 q 93 694 68 694 l 232 196 q 254 108 244 150 q 269 40 264 67 q 275 13 275 13 q 281 39 275 13 q 295 108 286 65 q 317 199 304 150 l 444 681 q 451 693 447 692 q 483 694 456 694 l 285 -49 q 205 -220 251 -172 q 99 -268 158 -268 m 335 825 q 270 846 292 825 q 233 887 249 867 q 193 907 217 907 q 129 870 150 907 q 99 833 108 833 q 84 843 92 833 q 76 853 76 853 q 137 921 108 906 q 201 936 165 936 q 252 917 235 936 q 286 878 269 897 q 335 860 303 860 q 411 896 393 860 q 439 932 429 932 q 454 922 449 932 q 460 911 460 911 q 436 872 450 892 q 398 838 422 851 q 335 825 374 825 z "},"z":{"ha":553,"x_min":56,"x_max":497,"o":"m 61 0 q 58 5 61 0 q 56 18 56 10 q 60 36 56 31 l 453 661 l 256 661 q 142 660 190 661 q 64 656 93 658 q 63 667 63 663 q 63 675 63 671 q 75 694 63 694 l 492 694 q 494 691 492 694 q 497 681 497 688 q 496 669 497 675 q 492 658 494 664 l 96 33 l 303 33 q 424 35 381 33 q 494 40 468 38 q 494 31 494 38 q 494 21 494 25 q 492 5 494 10 q 482 0 489 0 l 61 0 z "},"ź":{"ha":553,"x_min":56,"x_max":497,"o":"m 61 0 q 58 5 61 0 q 56 18 56 10 q 60 36 56 31 l 453 661 l 256 661 q 142 660 190 661 q 64 656 93 658 q 63 667 63 663 q 63 675 63 671 q 75 694 63 694 l 492 694 q 494 691 492 694 q 497 681 497 688 q 496 669 497 675 q 492 658 494 664 l 96 33 l 303 33 q 424 35 381 33 q 494 40 468 38 q 494 31 494 38 q 494 21 494 25 q 492 5 494 10 q 482 0 489 0 l 61 0 m 185 804 q 178 815 185 804 q 171 826 171 826 q 261 906 217 869 q 335 966 306 943 q 364 989 364 989 q 377 973 372 989 q 382 957 382 957 q 355 934 382 957 q 283 876 328 911 q 185 804 238 842 z "},"ž":{"ha":553,"x_min":56,"x_max":497,"o":"m 61 0 q 58 5 61 0 q 56 18 56 10 q 60 36 56 31 l 453 661 l 256 661 q 142 660 190 661 q 64 656 93 658 q 63 667 63 663 q 63 675 63 671 q 75 694 63 694 l 492 694 q 494 691 492 694 q 497 681 497 688 q 496 669 497 675 q 492 658 494 664 l 96 33 l 303 33 q 424 35 381 33 q 494 40 468 38 q 494 31 494 38 q 494 21 494 25 q 492 5 494 10 q 482 0 489 0 l 61 0 m 288 814 q 236 854 278 814 q 156 935 194 894 q 117 975 117 975 q 124 985 117 975 q 140 994 131 994 q 182 958 146 994 q 252 885 218 922 q 286 849 286 849 q 375 952 331 901 q 419 1003 419 1003 q 436 981 436 990 q 402 934 436 975 q 331 853 368 893 q 288 814 294 814 z "},"ż":{"ha":553,"x_min":56,"x_max":497,"o":"m 61 0 q 58 5 61 0 q 56 18 56 10 q 60 36 56 31 l 453 661 l 256 661 q 142 660 190 661 q 64 656 93 658 q 63 667 63 663 q 63 675 63 671 q 75 694 63 694 l 492 694 q 494 691 492 694 q 497 681 497 688 q 496 669 497 675 q 492 658 494 664 l 96 33 l 303 33 q 424 35 381 33 q 494 40 468 38 q 494 31 494 38 q 494 21 494 25 q 492 5 494 10 q 482 0 489 0 l 61 0 m 275 853 q 256 864 261 854 q 251 892 250 874 q 259 921 253 911 q 278 931 265 931 q 298 919 292 931 q 303 889 304 908 q 275 853 300 853 z "},"ﬁ":{"ha":542,"x_min":15,"x_max":469,"o":"m 133 0 l 133 661 l 15 661 q 17 689 15 683 q 29 694 19 694 l 133 694 l 133 788 q 169 953 133 903 q 255 1015 204 1003 q 351 1028 306 1028 q 437 1019 404 1028 q 469 997 469 1010 q 468 987 469 992 q 464 976 467 982 q 349 994 410 994 q 267 983 308 994 q 196 926 225 971 q 167 782 167 881 l 167 694 l 308 694 q 307 667 308 672 q 294 661 306 661 l 167 661 l 167 14 q 165 7 167 14 q 153 0 164 0 l 133 0 m 413 0 l 413 674 q 420 692 413 689 q 446 694 428 694 l 446 14 q 442 1 446 3 q 413 0 439 0 z "},"ﬂ":{"ha":556,"x_min":14,"x_max":458,"o":"m 132 0 l 132 661 l 14 661 q 15 689 14 683 q 28 694 17 694 l 132 694 l 132 788 q 166 952 132 903 q 246 1013 200 1001 q 326 1025 292 1025 q 398 1018 367 1025 q 458 997 429 1011 l 433 972 q 380 988 407 983 q 326 992 353 992 q 260 983 297 992 q 194 931 222 975 q 165 782 165 888 l 165 694 l 335 694 q 333 667 335 672 q 321 661 331 661 l 165 661 l 165 14 q 163 7 165 14 q 151 0 161 0 l 132 0 m 425 0 l 425 985 l 458 997 l 458 14 q 457 7 458 14 q 444 0 456 0 q 426 0 428 0 q 425 0 425 0 z "},"ª":{"ha":485,"x_min":83,"x_max":401,"o":"m 240 401 q 132 428 181 401 q 83 565 83 456 q 137 702 83 675 q 260 729 190 729 q 319 724 289 729 q 368 713 349 719 l 368 854 q 328 938 368 922 q 250 953 289 953 q 160 940 199 953 q 100 914 121 926 q 91 930 93 918 q 94 946 89 942 q 157 973 115 960 q 261 986 199 986 q 357 962 313 986 q 401 861 401 938 l 401 440 q 342 417 388 432 q 240 401 297 401 m 250 433 q 319 442 285 433 q 368 460 353 450 l 368 679 q 318 691 347 686 q 268 696 289 696 q 159 677 203 696 q 115 560 115 658 q 155 456 115 478 q 250 433 194 433 z "},"º":{"ha":500,"x_min":69,"x_max":431,"o":"m 244 403 q 118 457 167 403 q 69 692 69 511 q 124 917 69 849 q 258 986 178 986 q 388 926 344 986 q 431 692 431 865 q 244 403 431 403 m 244 436 q 358 501 317 436 q 399 697 399 567 q 362 901 399 850 q 261 953 325 953 q 146 893 189 953 q 103 685 103 833 q 140 486 103 536 q 244 436 176 436 z "},"А":{"ha":606,"x_min":14,"x_max":592,"o":"m 33 -1 q 26 -1 31 -1 q 14 0 21 -1 l 292 976 q 299 979 292 979 q 311 976 308 979 l 590 14 q 590 2 592 6 q 579 -1 588 -1 q 569 -1 575 -1 q 557 0 563 -1 l 372 653 q 324 827 346 747 q 301 929 303 907 q 278 828 299 907 q 231 653 257 749 l 53 8 q 45 0 50 1 q 33 -1 40 -1 m 128 294 l 128 328 l 493 328 l 493 294 l 128 294 z "},"Б":{"ha":568,"x_min":94,"x_max":510,"o":"m 94 0 l 94 958 q 96 965 94 958 q 108 972 97 972 l 465 972 q 465 945 465 951 q 458 939 464 939 l 128 939 l 128 551 l 272 551 q 453 492 397 551 q 510 307 510 432 q 444 84 510 168 q 249 0 378 0 l 94 0 m 243 33 q 420 109 364 33 q 476 304 476 185 q 427 466 476 414 q 268 518 378 518 l 128 518 l 128 33 q 185 33 157 33 q 243 33 214 33 z "},"В":{"ha":569,"x_min":94,"x_max":528,"o":"m 94 0 l 94 950 q 128 972 94 972 l 268 972 q 372 957 318 972 q 462 897 425 942 q 499 764 499 853 q 448 589 499 633 q 357 538 397 544 q 424 522 383 536 q 497 463 465 507 q 528 332 528 419 q 495 142 528 210 q 416 44 463 74 q 325 7 369 14 q 257 0 281 0 l 94 0 m 128 33 l 256 33 q 419 91 344 33 q 494 329 494 149 q 424 489 494 463 q 254 515 354 515 l 128 515 l 128 33 m 128 549 l 274 549 q 408 592 351 549 q 465 763 465 636 q 401 905 465 869 q 261 940 338 940 l 128 940 l 128 549 z "},"Г":{"ha":442,"x_min":94,"x_max":414,"o":"m 94 0 l 94 958 q 96 965 94 958 q 108 972 97 972 l 414 972 q 413 945 414 951 q 407 939 413 939 l 128 939 l 128 14 q 126 7 128 14 q 114 0 125 0 l 94 0 z "},"Ѓ":{"ha":442,"x_min":94,"x_max":414,"o":"m 94 0 l 94 958 q 96 965 94 958 q 108 972 97 972 l 414 972 q 413 945 414 951 q 407 939 413 939 l 128 939 l 128 14 q 126 7 128 14 q 114 0 125 0 l 94 0 m 215 1082 q 208 1093 215 1082 q 201 1104 201 1104 q 292 1184 247 1147 q 365 1244 336 1221 q 394 1267 394 1267 q 408 1251 403 1267 q 413 1235 413 1235 q 385 1212 413 1235 q 313 1154 358 1189 q 215 1082 268 1119 z "},"Ґ":{"ha":442,"x_min":94,"x_max":414,"o":"m 94 0 l 94 958 q 96 965 94 958 q 108 972 97 972 l 378 972 q 382 1043 379 1000 q 390 1122 385 1086 q 407 1121 400 1122 q 414 1113 414 1119 l 414 972 q 413 945 414 951 q 407 939 413 939 l 128 939 l 128 14 q 126 7 128 14 q 114 0 125 0 l 94 0 z "},"Д":{"ha":649,"x_min":25,"x_max":600,"o":"m 47 -222 q 33 -221 42 -222 q 25 -214 25 -219 l 25 33 l 42 33 q 97 62 71 33 q 143 182 122 90 q 182 459 164 274 q 215 958 200 644 q 221 971 215 969 q 250 972 226 972 l 531 972 l 531 33 l 600 33 l 600 -214 q 592 -221 600 -219 q 578 -222 583 -222 q 565 -93 567 -156 q 564 0 564 -31 l 61 0 q 60 -93 61 -31 q 47 -222 58 -156 m 111 33 l 497 33 l 497 939 l 247 939 q 206 420 225 608 q 165 145 188 232 q 111 33 142 58 z "},"Е":{"ha":496,"x_min":99,"x_max":447,"o":"m 99 0 l 99 958 q 101 965 99 958 q 113 972 103 972 l 444 972 q 443 945 444 951 q 436 939 442 939 l 132 939 l 132 33 l 447 33 q 446 6 447 11 q 436 0 444 0 l 99 0 m 121 517 l 121 550 l 417 550 q 415 523 417 529 q 406 517 414 517 l 121 517 z "},"Ѐ":{"ha":496,"x_min":99,"x_max":447,"o":"m 99 0 l 99 958 q 101 965 99 958 q 113 972 103 972 l 444 972 q 443 945 444 951 q 436 939 442 939 l 132 939 l 132 33 l 447 33 q 446 6 447 11 q 436 0 444 0 l 99 0 m 121 517 l 121 550 l 417 550 q 415 523 417 529 q 406 517 414 517 l 121 517 m 365 1082 q 267 1154 313 1119 q 195 1212 222 1189 q 168 1235 168 1235 q 173 1251 168 1235 q 186 1267 178 1267 q 215 1244 186 1267 q 289 1184 244 1221 q 379 1104 333 1147 q 372 1093 379 1104 q 365 1082 365 1082 z "},"Ё":{"ha":496,"x_min":99,"x_max":447,"o":"m 99 0 l 99 958 q 101 965 99 958 q 113 972 103 972 l 444 972 q 443 945 444 951 q 436 939 442 939 l 132 939 l 132 33 l 447 33 q 446 6 447 11 q 436 0 444 0 l 99 0 m 121 517 l 121 550 l 417 550 q 415 523 417 529 q 406 517 414 517 l 121 517 m 203 1131 q 183 1142 189 1132 q 179 1169 178 1151 q 206 1208 181 1208 q 226 1197 219 1208 q 231 1167 232 1186 q 203 1131 228 1131 m 342 1131 q 322 1142 328 1132 q 318 1169 317 1151 q 344 1208 319 1208 q 365 1197 358 1208 q 369 1167 371 1186 q 342 1131 367 1131 z "},"Ж":{"ha":908,"x_min":56,"x_max":853,"o":"m 71 -1 q 59 3 63 -1 q 57 18 56 8 l 135 324 q 263 513 171 463 q 167 646 199 547 l 74 951 q 69 967 69 963 q 81 972 68 972 q 91 972 86 972 q 101 971 96 972 l 197 654 q 249 561 217 593 q 319 529 281 529 l 438 529 l 438 958 q 442 971 438 969 q 472 972 446 972 l 472 529 l 589 529 q 660 561 628 529 q 711 654 692 593 l 807 971 q 817 972 813 972 q 828 972 822 972 q 840 967 840 972 q 835 951 839 963 l 742 646 q 646 513 710 547 q 774 324 738 463 l 851 18 q 849 3 853 8 q 838 -1 846 -1 q 819 0 826 -1 l 740 308 q 676 444 718 392 q 585 496 633 496 l 472 496 l 472 14 q 468 1 472 3 q 438 0 464 0 l 438 496 l 324 496 q 233 444 275 496 q 168 308 190 392 l 89 0 q 71 -1 83 -1 z "},"З":{"ha":510,"x_min":32,"x_max":468,"o":"m 239 -11 q 94 23 154 -11 q 32 82 33 57 q 42 107 32 96 q 129 40 78 60 q 238 21 181 21 q 318 40 272 21 q 397 111 364 58 q 431 267 431 164 q 379 442 431 389 q 260 496 328 496 l 165 496 q 146 524 146 496 l 146 533 l 288 533 q 380 644 356 586 q 404 763 404 701 q 247 949 404 949 q 143 922 183 949 q 79 875 103 894 q 77 888 78 882 q 76 897 76 894 q 126 953 76 925 q 249 982 176 982 q 392 924 340 982 q 443 769 443 865 q 411 629 443 694 q 328 524 379 564 q 428 442 388 500 q 468 274 468 385 q 427 94 468 156 q 332 10 386 32 q 239 -11 278 -11 z "},"И":{"ha":653,"x_min":94,"x_max":558,"o":"m 94 0 l 94 958 q 99 971 94 969 q 128 972 103 972 l 128 340 q 126 184 128 249 q 121 44 125 119 q 205 249 147 119 q 350 579 263 378 l 521 960 q 541 972 529 971 q 558 972 553 972 l 558 14 q 554 1 558 3 q 525 0 550 0 l 525 357 q 528 692 525 569 q 538 939 531 815 q 442 710 501 844 q 307 401 383 576 l 132 13 q 113 0 125 0 q 94 0 100 0 z "},"Й":{"ha":653,"x_min":94,"x_max":558,"o":"m 94 0 l 94 958 q 99 971 94 969 q 128 972 103 972 l 128 340 q 126 184 128 249 q 121 44 125 119 q 205 249 147 119 q 350 579 263 378 l 521 960 q 541 972 529 971 q 558 972 553 972 l 558 14 q 554 1 558 3 q 525 0 550 0 l 525 357 q 528 692 525 569 q 538 939 531 815 q 442 710 501 844 q 307 401 383 576 l 132 13 q 113 0 125 0 q 94 0 100 0 m 325 1092 q 192 1149 228 1092 q 153 1242 156 1206 q 163 1256 151 1253 q 186 1260 175 1258 q 224 1168 193 1215 q 326 1121 254 1121 q 413 1153 388 1121 q 457 1246 439 1185 q 479 1257 461 1261 q 499 1240 497 1253 q 440 1133 476 1174 q 325 1092 403 1092 z "},"Ѝ":{"ha":653,"x_min":94,"x_max":558,"o":"m 94 0 l 94 958 q 99 971 94 969 q 128 972 103 972 l 128 340 q 126 184 128 249 q 121 44 125 119 q 205 249 147 119 q 350 579 263 378 l 521 960 q 541 972 529 971 q 558 972 553 972 l 558 14 q 554 1 558 3 q 525 0 550 0 l 525 357 q 528 692 525 569 q 538 939 531 815 q 442 710 501 844 q 307 401 383 576 l 132 13 q 113 0 125 0 q 94 0 100 0 m 418 1082 q 320 1154 365 1119 q 248 1212 275 1189 q 221 1235 221 1235 q 226 1251 221 1235 q 239 1267 231 1267 q 268 1244 239 1267 q 342 1184 297 1221 q 432 1104 386 1147 q 425 1093 432 1104 q 418 1082 418 1082 z "},"К":{"ha":571,"x_min":94,"x_max":517,"o":"m 499 -1 q 481 0 486 -1 l 392 303 q 322 439 367 388 q 225 490 276 490 l 128 490 l 128 14 q 124 1 128 3 q 94 0 119 0 l 94 958 q 99 971 94 969 q 128 972 103 972 l 128 524 l 232 524 q 305 556 272 524 q 358 649 338 589 l 469 971 q 480 972 475 972 q 490 972 485 972 q 503 967 503 972 q 499 951 503 963 l 389 640 q 345 557 371 592 q 289 507 319 522 q 369 435 335 483 q 424 318 404 386 l 513 18 q 512 2 517 6 q 499 -1 507 -1 z "},"Ќ":{"ha":571,"x_min":94,"x_max":517,"o":"m 499 -1 q 481 0 486 -1 l 392 303 q 322 439 367 388 q 225 490 276 490 l 128 490 l 128 14 q 124 1 128 3 q 94 0 119 0 l 94 958 q 99 971 94 969 q 128 972 103 972 l 128 524 l 232 524 q 305 556 272 524 q 358 649 338 589 l 469 971 q 480 972 475 972 q 490 972 485 972 q 503 967 503 972 q 499 951 503 963 l 389 640 q 345 557 371 592 q 289 507 319 522 q 369 435 335 483 q 424 318 404 386 l 513 18 q 512 2 517 6 q 499 -1 507 -1 m 215 1082 q 208 1093 215 1082 q 201 1104 201 1104 q 292 1184 247 1147 q 365 1244 336 1221 q 394 1267 394 1267 q 408 1251 403 1267 q 413 1235 413 1235 q 385 1212 413 1235 q 313 1154 358 1189 q 215 1082 268 1119 z "},"Л":{"ha":593,"x_min":-3,"x_max":499,"o":"m 19 -6 q 3 -1 10 -6 q 1 22 -3 3 q 100 125 65 25 q 156 431 135 225 q 197 960 176 638 q 203 971 197 969 q 232 972 208 972 l 499 972 l 499 14 q 494 1 499 3 q 465 0 489 0 l 465 939 l 231 939 q 162 239 201 483 q 19 -6 122 -6 z "},"М":{"ha":708,"x_min":94,"x_max":614,"o":"m 335 179 l 250 456 q 229 520 250 456 q 181 670 208 585 q 133 820 154 756 q 113 885 113 885 l 124 972 l 297 407 q 311 362 297 407 q 339 272 325 317 q 353 226 353 226 q 367 270 353 226 q 394 358 381 314 q 407 401 407 401 l 581 958 l 590 875 q 570 812 590 875 q 524 665 550 749 q 478 519 499 582 q 458 456 458 456 l 371 193 q 356 179 367 179 l 335 179 m 94 0 l 94 958 q 99 969 94 965 q 108 972 103 972 l 124 972 l 128 953 l 128 876 q 128 818 128 876 q 128 683 128 760 q 128 547 128 606 q 128 489 128 489 l 128 14 q 124 1 128 3 q 94 0 119 0 m 581 0 l 581 475 q 581 539 581 475 q 581 687 581 603 q 581 835 581 771 q 581 899 581 899 l 581 915 l 581 958 q 583 965 581 958 q 594 972 586 972 q 611 972 608 972 q 614 972 614 972 l 614 14 q 610 1 614 3 q 581 0 606 0 z "},"Н":{"ha":638,"x_min":94,"x_max":543,"o":"m 510 0 l 510 958 q 514 970 510 968 q 543 972 518 972 l 543 14 q 538 1 543 3 q 510 0 533 0 m 94 0 l 94 958 q 99 971 94 969 q 128 972 104 972 l 128 14 q 123 1 128 3 q 94 0 118 0 m 117 518 l 117 551 l 526 551 l 526 518 l 117 518 z "},"О":{"ha":647,"x_min":67,"x_max":581,"o":"m 319 -14 q 175 33 231 -14 q 93 192 119 81 q 67 493 67 303 q 133 872 67 758 q 335 986 200 986 q 525 875 469 986 q 581 493 581 764 q 519 102 581 218 q 319 -14 457 -14 m 318 19 q 492 126 438 19 q 547 497 547 233 q 496 853 547 754 q 333 953 444 953 q 158 847 217 953 q 100 476 100 740 q 152 122 100 225 q 318 19 204 19 z "},"П":{"ha":621,"x_min":94,"x_max":526,"o":"m 94 0 l 94 958 q 99 971 94 969 q 128 972 104 972 l 526 972 l 526 14 q 522 1 526 3 q 493 0 517 0 l 493 939 l 128 939 l 128 14 q 123 1 128 3 q 94 0 118 0 z "}}}
